<svg xmlns="http://www.w3.org/2000/svg" width="146" height="25" fill="none" viewBox="0 0 146 25"><path fill="#0c181c" d="M44.286 17.328q-.115-.338-.115-1.055V1.796c0-.133-.146-.22-.267-.157l-.545.277-1.353.69-1.681.758.21.452q.63-.267.882-.267t.316.257.063.953v11.515q0 .717-.116 1.055a.78.78 0 0 1-.44.481q-.328.144-.979.144v.512h5.445v-.512q-.652 0-.978-.144a.78.78 0 0 1-.442-.48z"/><path fill="#0c181c" d="m49.994 16.54-3.027-5.286 1.871-2.07q.651-.675 1.23-.87.577-.195 1.398-.195v-.512H47.26v.512q.715 0 .946.041.231.042.158.174-.075.134-.452.522l-.335.327-2.985 3.136 2.417 4.22q.021.042.053.092a1 1 0 0 1 .052.092q.335.574.389.81.052.235-.168.327t-.914.092v.512h5.738v-.512q-.735 0-1.208-.287-.473-.285-.957-1.126M8.595 10.69q-.747-.749-2.239-1.978a5 5 0 0 1-.336-.267l-.336-.286a11 11 0 0 0-.325-.267A31 31 0 0 1 3.75 6.52a4.3 4.3 0 0 1-.767-.942 2.05 2.05 0 0 1-.305-1.065q0-.82.61-1.373.609-.553 1.807-.553 1.093 0 1.944.533t1.335 1.486.526 2.202h.525V1.971H8.9q0 .614-.064.819-.063.205-.273.205a.75.75 0 0 1-.294-.092 3 3 0 0 1-.4-.236 7.2 7.2 0 0 0-1.377-.727q-.704-.277-1.713-.277-1.198 0-2.176.44a3.66 3.66 0 0 0-1.555 1.29q-.579.852-.579 2.06 0 1.087.358 1.905a5 5 0 0 0 1.072 1.537q.714.718 2.122 1.886l.358.276q.167.135.336.277 1.156.901 1.818 1.516t1.083 1.302.42 1.424q0 1.087-.725 1.732-.724.645-1.923.645-1.197 0-2.165-.645t-1.556-1.855q-.588-1.209-.651-2.807H.491v5.922h.525q0-.615.106-.87.105-.256.357-.257.126 0 .305.103.179.104.39.267a9 9 0 0 0 1.513.768q.757.297 1.954.298c.8 0 1.531-.171 2.239-.512a4.24 4.24 0 0 0 1.713-1.485q.651-.975.651-2.326 0-1.25-.451-2.182a6.2 6.2 0 0 0-1.198-1.68zm11.831 6.639q-.116-.338-.116-1.055v-6.025q0-3.053-2.334-3.053-1.073 0-1.944.615a6.9 6.9 0 0 0-1.588 1.598h-.063v-2.08c0-.133-.146-.219-.267-.157l-.616.313-1.282.654-1.681.759.21.45q.63-.266.882-.266t.316.257q.063.255.063.953v5.984q0 .717-.115 1.055a.78.78 0 0 1-.442.48q-.325.145-.978.145v.512h5.277v-.512q-.588 0-.872-.144a.77.77 0 0 1-.39-.481q-.105-.338-.105-1.055v-5.942q.631-.78 1.25-1.209.62-.43 1.209-.43c.392 0 .655.13.83.39q.263.389.263 1.167v6.025q0 .717-.094 1.055a.73.73 0 0 1-.379.48q-.285.145-.872.145v.512h5.255v-.512q-.652 0-.978-.144a.78.78 0 0 1-.442-.481zm7.824-.881q-.642.687-1.46.687a1.94 1.94 0 0 1-1.42-.584q-.579-.585-.862-1.65-.274-1.027-.284-2.398h5.633q0-1.536-.41-2.736-.41-1.198-1.261-1.885-.852-.686-2.134-.687c-.855 0-1.622.27-2.26.81q-.957.81-1.472 2.162t-.515 2.971q0 1.783.494 3.073t1.408 1.978 2.154.686q1.598 0 2.618-1.177t1.397-3.515h-.525q-.462 1.578-1.104 2.265zm-3.857-6.394q.168-.912.547-1.424a1.21 1.21 0 0 1 1.03-.512q.568 0 .893.43t.451 1.148.126 1.864h-3.2q.036-.877.152-1.506zm16.122 6.998h-.525q-.21.491-.358.697a.49.49 0 0 1-.42.204q-.275 0-.368-.215-.095-.216-.094-.707v-6.537q0-1.618-.988-2.46-.989-.84-2.733-.84c-1.164 0-2.058.219-2.765.656q-1.062.656-1.062 1.783 0 .696.347 1.086t.978.389q.568 0 .936-.257.367-.255.367-.686 0-.267-.167-.676a1.5 1.5 0 0 1-.148-.594q0-.43.368-.676.366-.245.978-.245c.407 0 .739.089.956.266q.326.267.441.8.116.532.116 1.414v.922l-1.009.452-.567.225q-1.409.615-2.238 1.076a4.3 4.3 0 0 0-1.398 1.23q-.568.768-.567 1.895 0 1.23.672 1.927.674.696 1.809.696 1.198 0 1.944-.614.746-.615 1.294-1.435 0-.02.01-.02t.01-.022h.043q.018 1.025.504 1.547.504.543 1.535.543.903 0 1.345-.42t.715-1.321l.042-.082zm-4.14-1.122q-.558.677-1.031.99a1.9 1.9 0 0 1-1.05.316q-.61 0-.999-.42-.39-.42-.39-1.218 0-.963.652-1.691.651-.728 1.913-1.302l.904-.39z"/><path fill="#0c181c" d="M58.037 16.448q-.642.687-1.462.687a1.94 1.94 0 0 1-1.419-.584q-.579-.585-.862-1.65-.273-1.027-.284-2.398h5.633q0-1.536-.41-2.736-.41-1.198-1.261-1.885-.851-.686-2.134-.687c-.855 0-1.622.27-2.26.81q-.957.81-1.471 2.162t-.515 2.971q0 1.783.493 3.073.494 1.29 1.408 1.978.915.686 2.155.686 1.596 0 2.617-1.177t1.398-3.515h-.526q-.461 1.578-1.104 2.265zm-3.858-6.394q.168-.912.547-1.424a1.21 1.21 0 0 1 1.03-.512q.568 0 .893.43t.452 1.148.126 1.864h-3.2q.035-.877.151-1.506zm13.867-2.48q-.472-.38-1.23-.38-.987 0-1.723.635a5.9 5.9 0 0 0-1.261 1.557h-.064v-2.06c0-.134-.145-.218-.266-.157l-.54.275-1.36.693-1.681.758.21.451q.63-.266.883-.266.251 0 .315.256.063.256.063.954v5.983q0 .718-.115 1.055a.78.78 0 0 1-.442.482q-.326.143-.977.143v.512h6.222v-.512q-.988 0-1.471-.143-.484-.144-.663-.482-.178-.337-.178-1.055V10.68q.526-.922.925-1.353.4-.43.84-.43.168 0 .284.082t.242.287q.23.327.483.492.252.164.715.163.588.001.924-.379.337-.378.336-.953 0-.635-.473-1.014zm66.397.003q-.473-.38-1.229-.38-.988 0-1.724.635t-1.261 1.557h-.064V7.33c0-.134-.145-.218-.266-.158l-.215.11L128 8.14l-1.681.758.21.451q.631-.266.883-.266t.315.256.064.954v5.983q0 .717-.116 1.055a.78.78 0 0 1-.441.481q-.327.144-.978.144v.512h6.222v-.512q-.988 0-1.471-.144-.484-.143-.663-.48-.178-.339-.178-1.056v-5.593q.525-.922.925-1.353t.841-.43q.167 0 .283.082t.242.286q.23.329.483.493t.715.163q.588.001.925-.379.335-.379.335-.953 0-.635-.473-1.014zM82.73 16.08q-.369.83-.81 1.148-.44.317-1.113.317H79.11q-.588 0-.883-.103a.65.65 0 0 1-.41-.41q-.114-.306-.115-.922V4.267q0-.676.178-1.014t.651-.502q.474-.164 1.44-.164v-.512H72.53v.512q.966 0 1.45.164t.651.502.168 1.014v12.008q0 .675-.168 1.014-.17.338-.651.502-.484.164-1.45.163v.512h10.272l.148-.574 1.072-4.18-.505-.102q-.421 1.639-.788 2.469m10.711 1.67a.49.49 0 0 1-.42.204q-.274 0-.368-.215-.095-.216-.094-.707v-6.537q0-1.618-.988-2.46-.989-.84-2.733-.84c-1.164 0-2.058.219-2.765.656q-1.062.656-1.062 1.783 0 .696.347 1.086t.978.389q.567 0 .936-.257.368-.255.368-.686 0-.267-.168-.676a1.5 1.5 0 0 1-.148-.594q0-.43.368-.676.367-.245.978-.245c.407 0 .739.089.956.266q.326.267.442.8.114.532.115 1.414v.922l-1.008.452-.568.225q-1.408.615-2.238 1.076a4.3 4.3 0 0 0-1.398 1.23q-.568.768-.567 1.895 0 1.23.673 1.927.672.696 1.807.696 1.198 0 1.944-.614.746-.615 1.293-1.435 0-.02.01-.02t.01-.022h.043q.018 1.025.504 1.547.504.543 1.535.543.903 0 1.345-.42t.715-1.321l.042-.082H93.8q-.21.491-.358.697zm-3.258-1.82q-.555.678-1.03.99a1.9 1.9 0 0 1-1.05.317q-.61 0-.999-.42t-.389-1.218q0-.963.651-1.691t1.913-1.302l.904-.39zm13.98.836q-.589.246-.821.246t-.294-.257-.063-.973V7.449a.182.182 0 0 0-.227-.173l-.088.022-1.85.451-1.765.512.147.492q.653-.184.936-.144.285.041.379.318.095.276.094.953v5.86q-.63.8-1.198 1.219t-1.135.42c-.38 0-.676-.13-.851-.39q-.263-.388-.263-1.167V7.449a.182.182 0 0 0-.227-.173l-.089.022-1.85.451-1.765.512.147.492q.652-.184.936-.144a.44.44 0 0 1 .378.318q.094.276.094.953v5.942q0 3.053 2.354 3.053 1.05 0 1.86-.594.81-.593 1.546-1.619h.063v2.08c0 .133.146.219.267.158l.839-.423 1.081-.544 1.577-.717-.21-.451z"/><path fill="#0c181c" d="M114.177 17.328q-.116-.338-.116-1.055v-6.025q0-3.053-2.333-3.053-1.072 0-1.945.615a6.9 6.9 0 0 0-1.587 1.598h-.064v-2.08c0-.134-.145-.22-.267-.158l-.048.025-1.849.942-1.682.759.21.45q.631-.266.883-.266t.315.257q.064.255.064.953v5.984q0 .717-.116 1.055a.78.78 0 0 1-.441.48q-.326.145-.978.145v.512h5.276v-.512q-.588 0-.872-.144a.76.76 0 0 1-.389-.481q-.106-.338-.106-1.055v-5.942q.631-.78 1.251-1.209t1.208-.43c.392 0 .655.13.83.39q.263.389.264 1.167v6.025q0 .717-.095 1.055a.73.73 0 0 1-.379.48q-.284.145-.872.145v.512h5.255v-.512q-.652 0-.978-.144a.78.78 0 0 1-.441-.481zm29.798-9.723h-2.334v.513q.653 0 .893.122.242.123.232.44-.01.318-.221 1.036l-1.388 5.246-1.597-5.266q-.233-.718-.252-1.025-.022-.306.21-.43.23-.123.882-.123v-.512h-5.424v.512q.484 0 .799.123t.547.461q.23.339.441.974l3.175 9.158q-.337 1.415-.705 2.029-.369.614-.914.614a.8.8 0 0 1-.379-.082 1.8 1.8 0 0 1-.379-.327 1.8 1.8 0 0 0-.505-.44 1.35 1.35 0 0 0-.673-.154q-.504 0-.893.359a1.2 1.2 0 0 0-.389.912q0 .737.568 1.189.566.45 1.493.45 1.155 0 1.87-.624a4.2 4.2 0 0 0 1.104-1.547q.389-.922.851-2.5a17 17 0 0 0 .168-.614l2.376-8.38q.189-.657.399-.995t.505-.47.757-.133v-.513h-1.22zm-17.785 9.16q-.588.246-.82.246t-.294-.257-.063-.973V1.797a.18.18 0 0 0-.266-.157l-.05.025-1.87.942-1.577.717.231.452q.588-.246.82-.246t.284.257.052.973v3.709h-.042a3.8 3.8 0 0 0-1.114-.902 3.1 3.1 0 0 0-1.513-.369q-1.304 0-2.313.789-1.008.789-1.555 2.203t-.547 3.278q0 1.681.473 2.9t1.336 1.864q.861.645 2.018.646 1.03 0 1.776-.533.747-.532 1.398-1.578h.084v1.979c0 .132.145.218.265.157l.051-.025 1.87-.942 1.577-.717-.21-.45zm-3.552-1.095v.088l-.049.076-.054.083a8 8 0 0 1-.6.806 3 3 0 0 1-.694.584 1.6 1.6 0 0 1-.851.236q-1.093 0-1.597-1.322t-.505-3.452c0-1.42.175-2.533.526-3.381q.525-1.27 1.744-1.27.925 0 1.504.953.578.952.578 2.776v3.823zm21.774 1.46v.15h-.431v1.186h-.181v-1.185h-.431v-.151zm.762 1.017h-.166l-.12-.523a4 4 0 0 1-.061-.344h-.011c.002.084.004.244.004.357v.83h-.17v-1.336h.261l.155.698.021.12h.011l.022-.12.155-.698h.261v1.336h-.17v-.83c0-.113.002-.273.004-.357h-.011a4 4 0 0 1-.062.344l-.12.523z"/></svg>