<svg xmlns="http://www.w3.org/2000/svg" width="83" height="25" fill="none" viewBox="0 0 83 25"><defs><path id="e" fill="#0c181c" d="M.438-.063h81.998v24.996H.438z"/><path id="h" fill="#0c181c" d="M.441-.064h82v24.996h-82z"/></defs><mask id="a" width="22" height="15" x="46" y="8" maskUnits="userSpaceOnUse" style="mask-type:luminance"><path fill="#fff" d="M46.04 8.444h21.244v13.771H46.039z"/></mask><g mask="url(#a)"><mask id="b" width="22" height="15" x="46" y="8" maskUnits="userSpaceOnUse" style="mask-type:luminance"><path fill="#fff" d="M55.47 8.488h2.646l3.41 10.327 3.03-10.337h2.702L62.864 22.07h-2.647l-3.492-10.016-3.41 10.021h-2.7l-4.47-13.602h2.808l3.107 10.352z"/></mask><g mask="url(#b)"><path fill="#0c181c" d="M.434-.064h81.998v24.996H.434z"/></g></g><mask id="c" width="12" height="15" x="19" y="8" maskUnits="userSpaceOnUse" style="mask-type:luminance"><path fill="#fff" d="M19.477 8.444h11.509v13.771h-11.51z"/></mask><g mask="url(#c)"><mask id="d" width="12" height="15" x="19" y="8" maskUnits="userSpaceOnUse" style="mask-type:luminance"><path fill="#fff" d="M22.161 14.46v7.615H19.59V8.521a8.74 8.74 0 0 0 4.596.235l1.942-.235q2.258 0 3.475 1.457c.811.972 1.218 2.222 1.213 3.75v8.353h-2.55v-7.919q0-3.309-3.053-3.309c-.968 0-1.715.342-2.251 1.028-.536.684-.796 1.549-.8 2.587"/></mask><g mask="url(#d)"><use href="#e"/></g></g><mask id="f" width="15" height="15" x="32" y="8" maskUnits="userSpaceOnUse" style="mask-type:luminance"><path fill="#fff" d="M32.91 8.444h13.126v13.771H32.91z"/></mask><g mask="url(#f)"><mask id="g" width="14" height="15" x="32" y="8" maskUnits="userSpaceOnUse" style="mask-type:luminance"><path fill="#fff" d="M36.63 18.628a3.904 3.904 0 0 0 5.536.125l.081-.081c.811-.853 1.195-1.978 1.195-3.419q.001-2.133-1.157-3.347a3.906 3.906 0 0 0-5.537-.125l-.08.082c-.814.854-1.197 1.967-1.197 3.39q-.001 2.162 1.153 3.375m-1.857-8.243q1.841-1.933 4.693-1.934c1.898 0 3.458.646 4.693 1.934 1.233 1.288 1.845 2.913 1.845 4.868q0 2.968-1.835 4.898c-1.224 1.288-2.787 1.934-4.703 1.934s-3.481-.646-4.704-1.934c-1.224-1.288-1.834-2.924-1.834-4.898q0-2.926 1.845-4.868"/></mask><g mask="url(#g)"><use href="#h"/></g></g><mask id="i" width="12" height="15" x="68" y="8" maskUnits="userSpaceOnUse" style="mask-type:luminance"><path fill="#fff" d="M68.613 8.444H80v13.771H68.613z"/></mask><g mask="url(#i)"><mask id="j" width="12" height="15" x="68" y="8" maskUnits="userSpaceOnUse" style="mask-type:luminance"><path fill="#fff" d="M71.19 14.46v7.615h-2.561V8.521a8.74 8.74 0 0 0 4.596.235l1.942-.235q2.256 0 3.475 1.457t1.213 3.75v8.353h-2.561v-7.919q0-3.309-3.052-3.309c-.969 0-1.716.342-2.252 1.028-.536.684-.8 1.549-.805 2.587"/></mask><g mask="url(#j)"><use href="#e"/></g></g><mask id="k" width="13" height="21" x="6" y="2" maskUnits="userSpaceOnUse" style="mask-type:luminance"><path fill="#fff" d="M6.934 2.652H18.57v19.563H6.934z"/></mask><g mask="url(#k)"><mask id="l" width="12" height="21" x="7" y="2" maskUnits="userSpaceOnUse" style="mask-type:luminance"><path fill="#fff" d="M18.492 22.074h-3.385L7.07 12.368l7.908-9.716h3.519l-8.157 9.716z"/></mask><g mask="url(#l)"><path fill="#0c181c" d="M.438-.065h81.998V24.93H.438z"/></g></g><mask id="m" width="5" height="21" x="3" y="2" maskUnits="userSpaceOnUse" style="mask-type:luminance"><path fill="#fff" d="M3.145 2.652h4.33v19.563h-4.33z"/></mask><g mask="url(#m)"><mask id="n" width="5" height="21" x="3" y="2" maskUnits="userSpaceOnUse" style="mask-type:luminance"><path fill="#fff" d="M7.376 15.656a5.84 5.84 0 0 0-1.558 3.972v2.446H3.145V2.652h2.673V13.77z"/></mask><g mask="url(#n)"><use href="#h"/></g></g></svg>