<svg xmlns="http://www.w3.org/2000/svg" width="115" height="16" fill="none" viewBox="0 0 115 16"><path fill="#0c181c" d="M0 13.192c0 1.627.698 2.585 1.979 2.585h.744c1.35 0 2.049-.713 2.049-2.072v-2.897h3.305c1.513 0 2.165-.557 2.165-1.716v-.09c0-1.091-.629-1.648-2.165-1.648H4.586V4.902h5.097c1.49 0 2.165-.557 2.165-1.782v-.134c0-1.159-.675-1.716-2.165-1.716H2.398C.86 1.27 0 2.14 0 3.766zm11.227-2.897c0 3.566 2.467 5.705 6.401 5.705 1.63 0 2.863-.267 3.725-.735.837-.468 1.303-1.115 1.303-1.85 0-1.627-2.095-1.694-2.118-1.649-.42.78-1.373 1.337-2.747 1.337-1.326 0-2.327-.602-2.653-1.649a1.2 1.2 0 0 1-.093-.312H22.4c.698 0 .885-.379.908-1.025v-.2c0-3.187-2.444-5.505-5.959-5.505-3.561 0-6.122 2.496-6.122 5.883m8.1-1.136h-4.236C15.208 8 16.092 7.153 17.28 7.153c1.234 0 1.979.736 2.049 2.006m4.621 1.136c0 3.566 2.468 5.705 6.402 5.705 1.63 0 2.863-.267 3.724-.735.838-.468 1.303-1.115 1.303-1.85 0-1.627-2.094-1.694-2.118-1.649-.419.78-1.373 1.337-2.747 1.337-1.326 0-2.327-.602-2.653-1.649a1.2 1.2 0 0 1-.093-.312h7.355c.699 0 .885-.379.908-1.025v-.2c0-3.187-2.444-5.505-5.959-5.505-3.561 0-6.122 2.496-6.122 5.883m8.1-1.136h-4.236C27.93 8 28.813 7.153 30 7.153c1.234 0 1.98.736 2.049 2.006m7.182 6.64h.466c1.14 0 1.978-.534 1.978-2.072V3.253C41.674.646 40.208 0 38.904 0c-.907 0-1.699.334-1.699.49v13.237c0 1.582.838 2.072 2.025 2.072m21.278-8.378h-4.073c-1.467 0-2.188.267-2.188 1.537v.2c0 1.226.721 1.538 2.188 1.538h1.396a2.6 2.6 0 0 1-.116.49c-.35.847-1.35 1.405-2.677 1.405-2.071 0-3.561-1.516-3.561-3.9 0-2.362 1.652-3.922 3.77-3.922 1.304 0 2.514.557 3.306 1.56.14.133 2.35-.401 2.35-2.05 0-.936-.535-1.783-1.559-2.363-1.024-.601-2.49-.958-4.376-.958-4.935 0-8.193 3.142-8.193 7.532 0 4.301 2.886 7.443 7.053 7.443 2.188 0 3.677-.824 4.422-2.072l.14.379c.395 1.225 1.303 1.56 2.141 1.56.861 0 1.583-.313 1.583-.446v-6.04c0-1.292-.256-1.893-1.606-1.893m2.733 2.763c0 3.543 2.444 5.816 6.238 5.816 3.817 0 6.308-2.295 6.308-5.794 0-3.476-2.468-5.794-6.238-5.794-3.795 0-6.308 2.318-6.308 5.772m8.752.022c0 1.449-1.048 2.518-2.468 2.518-1.466 0-2.49-1.025-2.49-2.54 0-1.493 1.024-2.518 2.49-2.518 1.444 0 2.468 1.047 2.468 2.54m4.515-.022c0 3.543 2.444 5.816 6.238 5.816 3.817 0 6.308-2.295 6.308-5.794 0-3.476-2.468-5.794-6.239-5.794-3.794 0-6.307 2.318-6.307 5.772m8.752.022c0 1.449-1.048 2.518-2.468 2.518-1.466 0-2.49-1.025-2.49-2.54 0-1.493 1.024-2.518 2.49-2.518 1.443 0 2.468 1.047 2.468 2.54M94.988 16c1.56 0 2.793-.802 3.399-2.028.023.223.07.446.116.646.256.892.954 1.181 1.885 1.181h.443c1.164 0 1.978-.534 1.978-2.072V3.253c0-2.607-1.466-3.253-2.746-3.253-.908 0-1.723.334-1.723.49v5.438c-.675-.914-1.885-1.516-3.328-1.516-3.19 0-5.26 2.229-5.26 5.772 0 3.432 2.094 5.816 5.236 5.816m3.352-5.26c0 1.204-.884 1.94-2.118 1.94-1.327 0-2.235-1.003-2.235-2.474 0-1.537.908-2.473 2.305-2.473.977 0 1.676.49 2.048 1.225zm6.656 4.458c.838.468 2.165.735 4.004.735 3.538 0 5.4-1.36 5.4-3.677 0-2.63-2.747-3.12-4.213-3.431-1.187-.268-1.978-.357-1.978-.87 0-.468.488-.735 1.35-.735 1.187 0 2.537.624 3.375 1.404.069.067 1.187-.669 1.187-1.671 0-.38-.094-.713-.303-1.025-.582-.959-2.118-1.493-4.586-1.493-3.235 0-5.097 1.426-5.097 3.654 0 2.697 2.63 3.165 4.074 3.454 1.117.245 1.838.379 1.838.914 0 .445-.488.69-1.396.69-1.537 0-2.933-.601-3.725-1.292-.093-.089-1.07.602-1.07 1.56 0 .758.349 1.36 1.14 1.783"/></svg>