<svg xmlns="http://www.w3.org/2000/svg" width="89" height="30" fill="none" viewBox="0 0 89 30"><g fill="#0c181c" clip-path="url(#a)"><path d="M14.617 24.191c-.407-.202-.84-.248-1.213-.275-.5-.037-1.005-.025-1.494-.012l-.218.005-1.448.03-.238.006-.003.239s-.003.358-.002.537v2.792q0 .673.003 1.345l.006.88.237.007q.216.006.442.007.172 0 .345-.007l.23-.01.004-.233c.002-.17 0-.4-.002-.612-.002-.161-.004-.311-.003-.413l-.002-.325-.001-.326v-.142a.5.5 0 0 1 .016-.123q.03-.11.133-.129c.064-.01.117-.016.191-.016l.286.01c.396.015.813.031 1.21.028.51-.004 1.056-.032 1.577-.216.274-.096.552-.217.724-.446.187-.249.296-.578.292-.88-.005-.305-.012-.724-.274-1.066a2.3 2.3 0 0 0-.798-.655m-2.263 2.004-.345-.002a9 9 0 0 1-.396-.017l-.1-.006a.5.5 0 0 1-.09-.016q-.16-.041-.164-.193c-.004-.141-.002-.285 0-.441l.003-.136c0-.01.004-.025.013-.064.024-.107.103-.133.157-.143l.046-.005q.264-.003.528-.013c.337-.011.687-.022 1.03-.008q.38.015.711.096.154.037.28.114a.56.56 0 0 1 .261.307.354.354 0 0 1-.15.415.9.9 0 0 1-.44.111q-.22.005-.44.005h-.362v-.005zm10.534-1.782a2.85 2.85 0 0 0-1.047-.474c-.317-.07-.636-.064-.946-.062l-1.693.003c-.129.005-.255 0-.383-.003a14 14 0 0 0-.764.005l-.07.009-.166.127.006.135c.022.492.02.997.017 1.485l-.001.758a96 96 0 0 0 .017 2.154c.004.328.006.983.006.983l.001.25 1.307-.023.005-.237c0-.025.015-.635-.005-.955a12 12 0 0 1-.016-.677q0-.054.017-.127.03-.123.145-.152a2 2 0 0 1 .232-.044c.147-.016.305-.029.52-.042a.3.3 0 0 1 .235.095q.07.075.146.15.089.09.174.182c.159.174.696.77.697.772l.2.218c.268.297.832.856.856.88l.18.177.879-.941-.167-.17s-.44-.444-.664-.666q-.23-.225-.442-.487c-.11-.136-.122-.167-.108-.208q.005-.016.038-.027l.041-.01.219-.027c.222-.031.39-.075.53-.137a1.3 1.3 0 0 0 .465-.374c.267-.316.267-.813.266-1.176v-.102q0-.168-.06-.357c-.124-.386-.397-.666-.668-.905zm-.757 1.467a.3.3 0 0 1-.143.175.7.7 0 0 1-.28.09c-.142.018-.29.025-.467.025l-.618.003c-.2 0-.403-.008-.644-.017q-.257-.012-.516-.014c-.209-.002-.3-.093-.303-.305a7 7 0 0 1 .002-.344c.001-.048.01-.097.018-.146q.014-.1.115-.127a.5.5 0 0 1 .137-.018c.066-.002.471-.006.476-.006l.303-.009q.216-.009.436-.01l.101.002c.316.004.574.034.813.092q.09.022.202.062.169.061.276.194c.129.16.118.27.092.353m9.399.342a3 3 0 0 0-.1-.751 4 4 0 0 0-.197-.483 1.6 1.6 0 0 0-.772-.773 2.36 2.36 0 0 0-1.034-.26c-.024 0-.048-.002-.1-.006a20 20 0 0 0-1.232-.018l-.523.033-.043.008a2.6 2.6 0 0 0-.882.32 1.55 1.55 0 0 0-.49.44c-.077.103-.132.221-.185.334l-.016.036a2.1 2.1 0 0 0-.195.628 7 7 0 0 0-.058.803c0 .03-.01.208-.01.21q-.006.11-.003.226.015.375.044.771c.007.1.021.207.045.337.045.249.14.497.29.758.169.296.383.5.656.623.18.08.343.148.5.205q.127.048.275.062.24.024.483.04l.28.021q.155.02.308.02a14 14 0 0 0 .931-.052q.201-.018.36-.05c.215-.044.432-.126.683-.26a1.53 1.53 0 0 0 .65-.646c.051-.097.091-.179.126-.258.081-.186.155-.37.169-.58l.041-.55q.016-.2.025-.401a4 4 0 0 0-.014-.508 4 4 0 0 1-.012-.28m-1.26 1.075a4 4 0 0 1-.055.504.8.8 0 0 1-.211.426.8.8 0 0 1-.16.122 1.2 1.2 0 0 1-.454.138c-.194.025-.39.028-.542.028l-.18-.002h-.36a4 4 0 0 1-.591-.054 1 1 0 0 1-.45-.203.5.5 0 0 1-.128-.163 1.2 1.2 0 0 1-.143-.515l-.01-.182-.002-.04a9 9 0 0 1-.01-.88q.01-.229.049-.518a.86.86 0 0 1 .236-.494.65.65 0 0 1 .274-.163q.149-.05.275-.07.161-.021.338-.03l.134-.01q.145-.012.287-.014h.05c.12.003.245.014.365.023l.386.026q.274.018.51.155a.6.6 0 0 1 .22.224q.125.223.148.478c.034.394.043.802.025 1.214m7.883-3.396-.239-.06-.059.24q-.028.112-.05.22c-.026.107-.05.212-.08.323-.082.292-.165.6-.255.944l-.593 2.263q-.052.204-.111.409-.061.206-.266.214a6 6 0 0 1-.534 0 .28.28 0 0 1-.246-.182 1 1 0 0 1-.038-.104l-.068-.245-.158-.625a334 334 0 0 0-.611-2.298 21 21 0 0 0-.15-.505 21 21 0 0 1-.13-.43l-.062-.227-.23.053c-.053.013-.719.198-.719.198l-.238.066.068.239s.225.794.329 1.192l.703 2.698.204.774q.04.161.075.32l.094.406.659.002q.309 0 .617.003a75 75 0 0 0 .93.002c.154-.002.312-.004.46-.013l.163-.01.054-.155c.052-.15.1-.325.14-.48l.05-.179q.187-.665.366-1.334.177-.666.35-1.336l.239-.92.086-.344.035-.142.13-.492.066-.245-.246-.059c-.292-.07-.734-.18-.734-.18zm4.259 4.946-.004-.357c-.002-.324 0-1.63 0-1.634l-.004-.665c0-.414-.003-.883-.008-1.331l-.003-.123-.003-.164c0-.136-.003-.404-.003-.404l-.002-.245-1.254.005.003.248s.009.815.008 1.224v.104c-.002.715-.003 1.455.02 2.188.005.192.005.389.005.608q-.001.223.001.445c.004.246.005.5.002.75l-.003.24.311.014c.075.004.135.003.234.003l.46-.001.243-.002v-.245s0-.305-.002-.579zm7.796-1.983a2.1 2.1 0 0 0-.573-.445 1.2 1.2 0 0 0-.405-.14 7.5 7.5 0 0 0-1.067-.079l-1.525-.005q-.19 0-.352-.049a.63.63 0 0 1-.319-.192c-.074-.089-.087-.176-.04-.276a.6.6 0 0 1 .363-.331l.108-.035c.336-.089.646-.134.947-.14l.823-.003c.35 0 .867.064 1.284.115l.491.06.007-.271c0-.044.024-.522.045-.71l.026-.248-.246-.025c-.156-.016-.34-.042-.535-.07-.37-.052-.788-.112-1.11-.112h-.351q-.229 0-.458.003a5 5 0 0 0-.463.029 5 5 0 0 0-.813.166q-.315.09-.544.222a1.7 1.7 0 0 0-.384.303 1.7 1.7 0 0 0-.287.397c-.1.194-.213.455-.203.743v.093q-.001.067.004.135c.063.75.856 1.46 1.632 1.46l1.374.004c.32.002.683.003 1.032.024a.9.9 0 0 1 .34.077 1 1 0 0 1 .2.132c.12.103.098.224.059.308a.57.57 0 0 1-.27.282q-.12.06-.23.087c-.35.087-.705.133-1.052.137a28 28 0 0 1-2.44-.08l-.248-.02-.085 1.253.24.021c.077.007.214.015.284.02l.409.025c.136.008.253.01.376.013l.298.01q.405.014.814.016.098 0 .195-.002a7 7 0 0 0 1.086-.091c.285-.047.513-.102.718-.174q.596-.207.935-.74c.24-.38.327-.756.267-1.15a1.45 1.45 0 0 0-.357-.747m3.77.295v-.302q-.004-.33-.003-.668c0-.415-.001-.886-.023-1.34q-.005-.125-.004-.25l-.002-.664-1.267.012.007.25.008.3c.018.348.02.7.018 1-.001.718-.003 1.46.02 2.196.006.194.006.392.006.609q-.002.223 0 .445l.002.153c0 .082 0 .165.002.24 0 .13-.004.39-.004.39l-.005.255 1.261-.019-.013-1.213q-.005-.703-.003-1.394m16.303 1.392a152 152 0 0 1-.003-1.492v-.203q-.004-.33-.003-.667c0-.415 0-.886-.023-1.339a6 6 0 0 1-.004-.252l-.002-.663-1.267.012.007.25.008.3c.017.342.02.682.019 1-.002.403.007 1.338.014 2.082a.14.14 0 0 1-.09.134.14.14 0 0 1-.156-.04l-.854-.976q-.292-.332-.59-.674c-.361-.413-.769-.88-1.18-1.328-.08-.086-.154-.172-.231-.26l-.362-.413-.074-.085-.296.003-.003-.003-1.135.01.006.25.008.3c.008.156.012.736.017 1.35.004.694.01 1.463.022 1.846.005.183.005.368.005.609q-.001.223.001.445v.152c.001.083.001.166.004.24 0 .13-.005.39-.005.391l-.004.255 1.26-.019-.013-1.213c-.004-.504-.003-.997-.003-1.493v-.203q-.003-.331-.003-.664v-.186c0-.09.065-.123.093-.133a.14.14 0 0 1 .153.038 191 191 0 0 0 1.704 1.94c.16.176.317.355.486.55l.055.063q.191.222.387.443l.141.16.206.234.34.394.075.087h.047v.002l.235-.004 1.022-.003-.003-.25s-.01-.69-.011-.975zm-8.146-2.339a3 3 0 0 0-.101-.74 4 4 0 0 0-.195-.483 1.62 1.62 0 0 0-.773-.773 2.4 2.4 0 0 0-1.034-.26c-.025 0-.049-.002-.1-.006a20 20 0 0 0-1.233-.018l-.522.033-.044.008a2.6 2.6 0 0 0-.88.32 1.55 1.55 0 0 0-.675.772l-.017.039c-.105.225-.17.43-.195.627-.036.27-.055.54-.057.8l-.01.212q-.007.111-.004.228c.01.248.025.508.044.77a2.4 2.4 0 0 0 .335 1.095c.17.297.384.5.655.623q.268.12.5.205.128.048.276.062.24.024.483.04l.28.021q.155.02.308.02a14 14 0 0 0 .932-.052q.2-.018.359-.05c.214-.044.431-.126.683-.26q.428-.227.65-.646a4 4 0 0 0 .126-.258c.081-.186.155-.37.169-.58l.038-.5q.017-.223.028-.45a4 4 0 0 0-.014-.509 4 4 0 0 1-.012-.29m-2.549-1.01.386.025q.276.018.511.155a.6.6 0 0 1 .22.224q.124.222.148.478c.035.39.043.8.024 1.214a4 4 0 0 1-.055.503.8.8 0 0 1-.211.427.7.7 0 0 1-.16.122 1.2 1.2 0 0 1-.454.138 4 4 0 0 1-.542.028l-.18-.002h-.36a4 4 0 0 1-.59-.054 1 1 0 0 1-.451-.203.5.5 0 0 1-.127-.164 1.2 1.2 0 0 1-.145-.517l-.01-.211a7 7 0 0 1-.011-.887c.007-.155.023-.325.049-.519a.86.86 0 0 1 .235-.494.66.66 0 0 1 .274-.163q.15-.05.276-.069c.108-.016.22-.023.338-.031l.134-.01q.145-.011.286-.013h.05c.121.003.246.013.366.023m18.517 2.409a1.55 1.55 0 0 0-.659-1.05c-.55-.352-1.239-.357-1.743-.36l-1.525-.006q-.189 0-.352-.05a.63.63 0 0 1-.32-.191c-.073-.089-.086-.177-.04-.276a.6.6 0 0 1 .364-.331q.055-.021.108-.036c.336-.088.646-.133.947-.139l.823-.003c.429 0 1.102.073 1.465.116l.27.033.023-1.211-.296-.043c-.429-.062-1.076-.156-1.499-.156h-.352q-.229 0-.458.003a5 5 0 0 0-.463.029c-.253.028-.52.083-.812.166a2.4 2.4 0 0 0-.545.222 1.7 1.7 0 0 0-.384.303 1.7 1.7 0 0 0-.287.397c-.1.194-.213.455-.203.743v.093q-.001.067.004.135c.038.452.31.85.832 1.218.216.152.507.24.8.242l1.374.004c.32.002.683.003 1.032.024a.9.9 0 0 1 .34.077 1 1 0 0 1 .2.132c.12.102.098.224.059.308a.57.57 0 0 1-.27.282q-.12.059-.23.087c-.35.087-.705.133-1.052.136q-.517.005-1.035.005h-.004c-.467 0-1.411-.076-1.421-.077l-.261-.021-.02 1.253.234.015c.045.002 1.116.07 1.702.07q.32 0 .64.003l.08.001q.512 0 1.013-.083c.285-.047.513-.102.718-.174q.596-.207.935-.74c.24-.38.328-.756.267-1.15M16.59.04c-.52 0-1.07.008-1.69.025-.27 3.514-.33 17.487-.09 20.932.598.012 1.286.049 1.984.049.602 0 1.157-.034 1.682-.05.224-3.562.19-17.543-.05-20.917A41 41 0 0 0 16.59.04m30.34.039S41.986 0 41.55 0c-1.064 0-5.702.08-5.702.08v20.926c1.056.05 2.917.08 5.124.08 2.534 0 4.606-.01 5.905-.083v-5.892l-6.676-.046a.81.81 0 0 1-.806-.818q.005-.764.006-1.555c0-.45.363-.815.811-.814 1.288.003 3.61.006 3.856-.012.019-.64.015-2.143-.016-2.751-.263-.021-2.57-.023-3.852-.024a.81.81 0 0 1-.81-.81l-.013-1.75a.81.81 0 0 1 .808-.822l6.696-.018c.091-1.76.079-3.05.062-4.78 0 0-.012-.612-.014-.832m41.162 0S83.15 0 82.712 0c-1.064 0-5.702.08-5.702.08v20.926c1.056.05 2.917.08 5.124.08 2.534 0 4.606-.01 5.905-.083v-5.892l-6.675-.046a.81.81 0 0 1-.807-.818q.004-.764.006-1.555a.81.81 0 0 1 .811-.814c1.288.003 3.61.006 3.857-.012.018-.64.014-2.143-.017-2.751-.263-.021-2.57-.023-3.852-.024a.81.81 0 0 1-.81-.81l-.013-1.75a.81.81 0 0 1 .808-.822l6.696-.018c.091-1.76.08-3.05.062-4.78 0 0-.012-.612-.014-.832M52.638.056s-3.233 17.458-3.597 20.947c0 0 .785.029 1.434.029.59 0 1.606-.022 1.606-.022l.537-3.244a.81.81 0 0 1 .801-.686h3.846c.399 0 .739.29.802.686l.532 3.224s.9.04 1.751.042c.824.002 1.608-.026 1.64-.029C61.669 19.34 58.18.093 58.175.056c0 0-1.655-.056-2.705-.056s-2.83.056-2.83.056m3.784 11.662h-1.948a.77.77 0 0 1-.758-.892l.452-3.427a.7.7 0 0 1 .694-.611h1.172a.7.7 0 0 1 .694.61l.452 3.428a.77.77 0 0 1-.758.892M33.48.07c-.032-.002-.899-.04-1.484-.04-.463 0-1.198.007-1.75.024l-.098 6.79c-.01.701-.955.909-1.256.277L25.523.067s-1.046-.04-2.12-.04c-1.12-.001-2.27.037-2.287.037 0 1.123-.123 16.324-.003 19.917 0 .115.035 1.024.035 1.024.017 0 2.82.014 3.286-.001.033-.587.047-1.402.067-2.466l.072-5.057c.01-.701.957-.908 1.257-.275l3.644 7.8h3.981l.024-1.255c.113-3.916.107-12.287 0-17.02zm41.017 9.46c-.355-.01-6.426 0-6.432 0-.004.315-.002 2.282.022 2.557h3.011c.448 0 .812.365.812.815v1.443c0 .44-.346.798-.77.86-1.088.158-2.61.184-3.667-.02-.35-.068-.778-.273-.955-.603-.175-.326-.203-.907-.239-1.267-.085-.858-.06-4.966.036-6.163.034-.428.123-.983.483-1.263.7-.544 1.463-.53 3.45-.557 1.49-.02 2.743.017 3.896.017l.054-5.257c-.145.003-3.332-.065-4.028-.065-1.504 0-2.886.052-3.553.228-.434.115-.892.25-1.393.588-1.22.821-1.784 1.999-1.969 4.008-.056.613-.054 1.26-.053 1.888.01 3.112-.097 6.226.087 9.338.056.958.215 2.09.772 2.898a5.3 5.3 0 0 0 1.3 1.311c.599.425 1.2.672 1.922.747 1.099.115 1.98.156 3.064-.062.612-.123 1.442-.694 1.863-1.132l.02 1.165s.479.033 1.17.037c.468.003 1.205-.039 1.205-.039s.06-3.502.073-5.257c.012-1.42-.003-2.84-.06-4.26-.027-.65-.046-1.307-.121-1.955m-63.402 5.547-4.618-.084-1.579.004a1.066 1.066 0 0 1-1.068-1.072C3.856 8.621 3.79 2.233 3.642.096a38 38 0 0 0-1.77-.038C1.369.058.84.066.24.082-.02 3.597-.078 17.57.154 21.014l.19.005c1.482.072 5.435.091 5.435.091 2.32 0 5.498-.058 6.529-.115v-5.878z"/></g><defs><clipPath id="a"><path fill="#fff" d="M0 0h88.125v30H0z"/></clipPath></defs></svg>