<svg xmlns="http://www.w3.org/2000/svg" width="105" height="28" fill="none" viewBox="0 0 105 28"><path fill="#0c181c" d="M19.268 9.499c1.638 0 2.867-.692 3.43-2.83l-1.165-.255c-.384 1.42-1.151 1.997-2.252 1.997-1.6 0-2.354-1.268-2.354-3.713 0-2.266.908-3.623 2.393-3.623 1.023 0 1.702.538 2.098 1.895l1.14-.23C22.07.794 21.021 0 19.331 0c-2.239 0-3.621 1.715-3.621 4.698 0 2.996 1.126 4.8 3.557 4.8m5.982-.154.82-2.74h3.288l.819 2.74h1.305L28.616.154h-1.728l-2.866 9.191zm3.788-3.802H26.39l1.318-4.365h.026zm5.726 3.802V5.39h2.112l1.945 3.956h1.382L38.04 5.07c1.088-.358 1.766-1.113 1.766-2.368 0-1.664-1.05-2.547-3.43-2.547h-2.84v9.191zm1.65-5.018h-1.65V1.229h1.715c.985 0 2.099.166 2.099 1.536 0 1.434-1.37 1.562-2.163 1.562m7.198 5.018v-7.72h.026l4.517 7.72h1.203V.154h-1.164v6.964h-.026L44.188.154h-1.74v9.191zm9.911 0V.154h-1.229v9.191zm6.135 0L62.691.154H61.4l-2.406 7.54h-.026L56.702.154h-1.318l2.93 9.191zm7.876.154c2.355 0 3.75-1.818 3.75-4.75 0-2.74-1.28-4.749-3.75-4.749s-3.762 2.01-3.762 4.75c0 2.93 1.395 4.749 3.762 4.749m0-1.05c-1.574 0-2.546-1.37-2.546-3.7 0-2.342.972-3.712 2.546-3.712 1.561 0 2.534 1.37 2.534 3.712 0 2.33-.96 3.7-2.534 3.7m7.326.896V5.39h2.11l1.946 3.956h1.382L78.135 5.07c1.089-.358 1.767-1.113 1.767-2.368 0-1.664-1.05-2.547-3.43-2.547h-2.84v9.191zm1.65-5.018h-1.65V1.229h1.715c.985 0 2.099.166 2.099 1.536 0 1.434-1.37 1.562-2.163 1.562m11.78 5.018V8.27h-4.518V5.108h3.097v-1.05h-3.097v-2.83h4.312V.155h-5.54v9.191zM21.88 27.82l.82-2.74h3.289l.819 2.74h1.305l-2.867-9.192H23.52l-2.867 9.192zm3.789-3.802h-2.65l1.319-4.366h.025zm7.658 3.955c2.495 0 3.532-1.408 3.532-3.75v-5.595h-1.216v5.812c0 1.677-.793 2.445-2.303 2.445-1.523 0-2.137-.768-2.137-2.445v-5.812h-1.229v5.594c0 2.343.87 3.751 3.353 3.751m7.633-.153v-3.956h2.111l1.945 3.956h1.382l-2.162-4.276c1.087-.358 1.766-1.114 1.766-2.368 0-1.664-1.05-2.548-3.43-2.548h-2.84v9.192zm1.65-5.018h-1.65v-3.099h1.714c.986 0 2.1.167 2.1 1.537 0 1.434-1.37 1.562-2.164 1.562m11.78 5.018v-1.076h-4.518v-3.162h3.097v-1.05h-3.097v-2.829h4.313v-1.075h-5.541v9.192zm7.338 0v-1.076h-4.006v-8.116h-1.228v9.192zm3.179 0v-9.192h-1.228v9.192zm6.225.153c2.495 0 3.532-1.408 3.532-3.75v-5.595h-1.216v5.812c0 1.677-.793 2.445-2.303 2.445-1.523 0-2.137-.768-2.137-2.445v-5.812h-1.229v5.594c0 2.343.87 3.751 3.353 3.751m8.912 0c1.83 0 3.11-.909 3.11-2.675 0-3.303-4.94-2.304-4.94-4.391 0-.883.704-1.383 1.715-1.383s1.549.448 1.945 1.396l1.037-.384c-.41-1.332-1.382-2.061-2.982-2.061-1.65 0-2.853.909-2.853 2.457 0 3.252 4.9 2.138 4.9 4.443 0 .998-.767 1.536-1.88 1.536-1.229 0-1.817-.55-2.188-1.703l-1.14.384c.564 1.664 1.536 2.381 3.276 2.381m24.657-14.537H0v1.163h104.701z"/></svg>