<svg xmlns="http://www.w3.org/2000/svg" width="91" height="21" fill="none" viewBox="0 0 91 21"><g fill="#0c181c" clip-path="url(#a)"><path d="M40.383.728V.49h3.702l.787 6.246h.25L45.91.49h3.703v.24l-2.71 12.99v5.997h-3.8V13.72zM4.535.435v7.93h1.65V.435h3.975v19.238H6.195v-8.17h-1.66v8.17H.57V.435zm30.704 0h-3.583v19.238h3.626v-5.508c1.377-.25 5.45-.999 5.45-6.474V6.453c0-4.487-3.069-6.018-5.493-6.018m-.066 9.222V5.236c1.125 0 2.032.435 2.032 2.205s-1.245 2.216-2.032 2.216M25.438.435h-3.582v19.238h3.637v-5.508c1.376-.25 5.45-.999 5.45-6.474V6.453c0-4.487-3.07-6.018-5.505-6.018m-.054 9.222V5.236c1.125 0 2.031.435 2.031 2.205s-1.245 2.216-2.031 2.216M19.107.435h-6.105l-2.12 18.999v.239h3.627l.415-4.573h2.283l.415 4.573h3.626v-.24zm-3.047 10.96a1.606 1.606 0 0 1-1.617-1.597c0-.88.721-1.596 1.617-1.596s1.616.717 1.616 1.596-.731 1.597-1.616 1.597M83.632.435h6.597v5.768h-2.938v3.704h2.446v3.129h-2.446v6.659h-3.67V.435zm5.121 19.228h.109v-.728h.338v-.109h-.786v.109h.339zm.547 0h.11v-.685l.294.685h.12l.295-.685v.685h.11v-.837h-.175l-.295.706-.295-.706h-.175v.837zM79.893.435v13.1h3.058v6.149h-6.717V.434zm-9.477-.24c-3.179 0-5.014 2.531-5.014 9.147v1.445c0 6.615 1.835 9.146 5.014 9.146 3.178 0 5.013-2.53 5.013-9.146V9.342c0-6.616-1.835-9.147-5.013-9.147m0 11.884a2.025 2.025 0 0 1-2.043-2.02c0-1.119.918-2.02 2.043-2.02 1.136 0 2.053.901 2.053 2.02s-.917 2.02-2.053 2.02M56.359.435l.491 7.854h.24l.732-7.854h2.447L61 8.289h.24l.491-7.854h3.058v.239l-1.103 19.01h-3.79l-.731-6.149h-.24l-.733 6.149h-3.79L53.3.684v-.25z"/></g><defs><clipPath id="a"><path fill="#fff" d="M0 0h90.795v20.262H0z"/></clipPath></defs></svg>