<svg width="130" height="26" viewBox="0 0 130 26" fill="none" xmlns="http://www.w3.org/2000/svg">
<path fill-rule="evenodd" clip-rule="evenodd" d="M30.1596 6.00551C30.0796 5.01672 29.7923 4.11517 29.3466 3.31218C29.2094 3.06983 29.0788 2.87433 28.9335 2.6853C28.7899 2.49788 28.6364 2.32016 28.4764 2.15374C28.1531 1.82091 27.807 1.52686 27.4381 1.26674C26.6969 0.756184 25.8773 0.381347 25.0169 0.168078C24.1549 -0.0387281 23.2439 -0.0661946 22.3982 0.150306C21.9754 0.260172 21.5754 0.428202 21.2146 0.647934C20.8554 0.867666 20.5354 1.1391 20.2611 1.43961C20.9468 0.993688 21.7223 0.743259 22.4864 0.719024C23.2521 0.68671 23.9998 0.862819 24.6773 1.1698C25.3581 1.47031 25.9753 1.90331 26.4912 2.41064C26.7507 2.66107 26.9858 2.9325 27.1866 3.21524C27.2862 3.35742 27.376 3.50445 27.456 3.65147C27.5377 3.7985 27.6062 3.95199 27.6503 4.07155C27.8838 4.7259 28.0078 5.41902 27.9654 6.03944C27.9229 6.66632 27.7107 7.21404 27.3793 7.69228C27.0397 8.1689 26.5581 8.57444 25.985 8.90403C25.7042 9.06722 25.3794 9.21909 25.0839 9.34188C24.9663 9.39358 24.7051 9.49376 24.5712 9.54061L23.9998 9.75226C23.2341 10.0366 22.4668 10.3129 21.6962 10.6183C20.9272 10.9236 20.1501 11.2338 19.3469 11.62C18.5551 11.9981 17.6816 12.5151 16.9437 13.1678C16.7674 13.3148 16.5568 13.5184 16.4066 13.6638L16.1927 13.8787L15.938 14.1566C15.636 14.4797 15.3568 14.8368 15.0874 15.2052C14.8164 14.8368 14.5356 14.4797 14.2336 14.1566L13.9805 13.8787L13.765 13.6638C13.6148 13.5184 13.4058 13.3148 13.2279 13.1678C12.49 12.5151 11.6181 11.9981 10.8263 11.62C10.0231 11.2338 9.24597 10.9236 8.47701 10.6183C7.70642 10.3129 6.93747 10.0366 6.17504 9.75226L5.602 9.54061C5.46813 9.49376 5.20691 9.39358 5.09099 9.34188C4.79386 9.21909 4.46897 9.06722 4.18817 8.90403C3.61512 8.57444 3.1335 8.1689 2.79392 7.69228C2.4625 7.21404 2.25027 6.66632 2.20782 6.03944C2.167 5.41902 2.28945 4.7259 2.52291 4.07155C2.56862 3.95199 2.63556 3.7985 2.71719 3.65147C2.79719 3.50445 2.88698 3.35742 2.98657 3.21524C3.18738 2.9325 3.42247 2.66107 3.68206 2.41064C4.19959 1.90331 4.81672 1.47031 5.49751 1.1698C6.17504 0.862819 6.92277 0.68671 7.68683 0.719024C8.45089 0.743259 9.22638 0.993688 9.9137 1.43961C9.63779 1.1391 9.3178 0.867666 8.95863 0.647934C8.59619 0.428202 8.19621 0.260172 7.77499 0.150306C6.92931 -0.0661946 6.01831 -0.0387281 5.15793 0.168078C4.29592 0.381347 3.47635 0.756184 2.73515 1.26674C2.36781 1.52686 2.01844 1.82091 1.69681 2.15374C1.53682 2.32016 1.38335 2.49788 1.23968 2.6853C1.09438 2.87433 0.963774 3.06983 0.826636 3.31218C0.380935 4.11517 0.0935971 5.01672 0.011967 6.00551C-0.0190525 6.49829 0.0087018 7.00723 0.113188 7.51294C0.217675 8.01541 0.405424 8.50658 0.655213 8.95897C1.15479 9.86536 1.8813 10.5956 2.65515 11.1579C3.05187 11.4439 3.4388 11.6862 3.87307 11.9076C4.12286 12.0368 4.23714 12.0918 4.47714 12.2016L5.02732 12.4569L7.21501 13.4812C7.93336 13.8221 8.64191 14.1679 9.28025 14.5266C9.93003 14.8901 10.4459 15.2423 10.8998 15.6866C11.0255 15.8046 11.1006 15.8902 11.2345 16.0324L11.4402 16.257L11.5871 16.4331C11.8124 16.6916 12.0034 16.963 12.1847 17.2312C12.5275 17.7757 12.7952 18.3315 12.921 18.8679C13.0516 19.4043 13.0548 19.9181 12.9275 20.3834C12.8148 20.8148 12.5879 21.2058 12.2842 21.5386C12.2418 21.0507 12.1879 20.5191 12.0769 19.9682C11.9871 19.5287 11.8614 19.0731 11.6704 18.6175C11.481 18.1619 11.2296 17.7014 10.8998 17.2862C10.5749 16.8693 10.1749 16.4961 9.73902 16.202C9.52351 16.0502 9.29331 15.9274 9.06475 15.8143L8.89333 15.7335L8.69741 15.6511L8.60272 15.6107C8.57823 15.6042 8.56028 15.5945 8.53415 15.5929C8.47701 15.6042 8.36926 15.7157 8.14233 16.0728L7.30644 17.766C7.16114 18.1651 7.13665 18.3153 7.16277 18.367C7.17909 18.3864 7.20032 18.3961 7.21991 18.4107L7.24603 18.4349L7.36031 18.5464C7.44521 18.6272 7.52031 18.7128 7.58888 18.7968C7.72765 18.9632 7.82887 19.1377 7.92683 19.3203C8.11294 19.6887 8.25824 20.1362 8.37089 20.6968C8.42477 20.9764 8.47048 21.2785 8.50477 21.6049L8.60272 22.6744C8.62068 22.8715 8.64191 23.0816 8.67782 23.3207C8.71374 23.5582 8.75619 23.8183 8.87047 24.1705C8.93088 24.3499 9.00761 24.5502 9.14965 24.7894C9.29168 25.0252 9.51535 25.3177 9.8582 25.56C10.1978 25.804 10.6337 25.9494 10.9814 25.9833C11.3341 26.0221 11.61 25.9866 11.8402 25.9446L11.9071 25.9316L11.9789 25.9106C13.0989 25.5956 14.0899 24.9865 14.8768 24.1786C14.9503 24.1043 15.0189 24.0268 15.0874 23.9476C15.156 24.0268 15.2246 24.1043 15.2964 24.1786C16.0833 24.9865 17.0743 25.5956 18.1943 25.9106L18.2661 25.9316L18.333 25.9446C18.5632 25.9866 18.8391 26.0221 19.1918 25.9833C19.5379 25.9494 19.9754 25.804 20.315 25.56C20.6579 25.3177 20.8815 25.0252 21.0236 24.7894C21.1656 24.5502 21.2423 24.3499 21.3027 24.1705C21.4187 23.8183 21.4595 23.5582 21.4954 23.3207C21.5313 23.0816 21.5525 22.8715 21.5705 22.6744L21.6684 21.6049C21.7027 21.2785 21.7484 20.9764 21.8023 20.6968C21.915 20.1362 22.0603 19.6887 22.2464 19.3203C22.3443 19.1377 22.4439 18.9632 22.5843 18.7968C22.6529 18.7128 22.7264 18.6272 22.8129 18.5464L22.9272 18.4349L22.9533 18.4107C22.9729 18.3961 22.9925 18.3864 23.0104 18.367C23.0349 18.3153 23.0121 18.1651 22.8668 17.766L22.0309 16.0728C21.8023 15.7157 21.6962 15.6042 21.6391 15.5929C21.6146 15.5945 21.595 15.6042 21.5705 15.6107L21.4758 15.6511L21.2815 15.7335L21.1085 15.8143C20.8799 15.9274 20.6497 16.0502 20.4342 16.202C19.9983 16.4961 19.5967 16.8693 19.2734 17.2862C18.9436 17.7014 18.6922 18.1619 18.5012 18.6175C18.3118 19.0731 18.1861 19.5287 18.0963 19.9682C17.9853 20.5191 17.9298 21.0507 17.889 21.5386C17.5853 21.2058 17.3584 20.8148 17.2457 20.3834C17.1184 19.9181 17.1216 19.4043 17.2523 18.8679C17.378 18.3315 17.6441 17.7757 17.9886 17.2312C18.1698 16.963 18.3608 16.6916 18.5861 16.4331L18.733 16.257L18.9371 16.0324C19.0726 15.8902 19.1477 15.8046 19.2734 15.6866C19.7273 15.2423 20.2432 14.8901 20.8913 14.5266C21.5297 14.1679 22.2399 13.8221 22.9582 13.4812L25.1459 12.4569L25.6977 12.2016C25.9361 12.0918 26.0504 12.0368 26.3001 11.9076C26.7344 11.6862 27.123 11.4439 27.5164 11.1579C28.2919 10.5956 29.0168 9.86536 29.518 8.95897C29.7662 8.50658 29.9555 8.01541 30.06 7.51294C30.1645 7.00723 30.1939 6.49829 30.1596 6.00551Z" fill="#0C181C"/>
<path fill-rule="evenodd" clip-rule="evenodd" d="M100.363 5.49219C101.664 5.49219 102.67 5.88771 103.379 6.67876C104.086 7.47143 104.441 8.67745 104.441 10.2936V10.8804C104.441 11.0279 104.387 11.1543 104.283 11.2597C104.179 11.3667 104.053 11.4202 103.909 11.4202H102.22C102.108 11.4202 102.003 11.3715 101.907 11.2727C101.81 11.1754 101.762 11.0684 101.762 10.955V10.4395C101.762 9.57386 101.645 8.95302 101.412 8.57857C101.179 8.20412 100.829 8.01446 100.363 8.01446C99.895 8.01446 99.5453 8.16521 99.3122 8.46834C99.079 8.76985 98.9625 9.16537 98.9625 9.65653C98.9625 10.0958 99.0822 10.5416 99.3249 10.9906C99.5661 11.4413 99.8263 11.8206 100.109 12.1302C100.39 12.4414 100.853 12.9147 101.497 13.5502C102.574 14.6281 103.371 15.5797 103.885 16.4048C104.399 17.2298 104.657 18.1895 104.657 19.282C104.657 20.6388 104.259 21.7249 103.462 22.5419C102.665 23.3588 101.632 23.7657 100.363 23.7657C99.0599 23.7657 98.0172 23.3459 97.238 22.5046C96.4572 21.6633 96.0676 20.5804 96.0676 19.2593V18.0339C96.0676 17.8701 96.1234 17.7275 96.2352 17.6043C96.347 17.4827 96.4923 17.4211 96.6695 17.4211H98.1417C98.303 17.4211 98.4435 17.4827 98.5649 17.6043C98.6846 17.7275 98.7453 17.8701 98.7453 18.0339V19.0389C98.7453 20.4767 99.2754 21.1932 100.337 21.1932C101.367 21.1932 101.883 20.6307 101.883 19.5041C101.883 19.1118 101.825 18.7439 101.714 18.4018C101.6 18.0598 101.385 17.6902 101.061 17.2995C100.74 16.9073 100.478 16.609 100.277 16.4048C100.075 16.2005 99.7194 15.8455 99.2036 15.3398C98.5761 14.7189 98.0859 14.2002 97.7314 13.7836C97.3785 13.367 97.032 12.7915 96.6935 12.0556C96.3566 11.3213 96.1873 10.5627 96.1873 9.77811C96.1873 8.55263 96.537 7.53303 97.238 6.71766C97.9358 5.90068 98.9785 5.49219 100.363 5.49219ZM110.884 5.49219C112.262 5.49219 113.358 5.8893 114.171 6.68027C114.986 7.47287 115.393 8.53129 115.393 9.85229V19.4056C115.393 20.7282 114.986 21.785 114.171 22.5776C113.358 23.3702 112.262 23.7657 110.884 23.7657C109.504 23.7657 108.407 23.3702 107.594 22.5776C106.78 21.785 106.374 20.7282 106.374 19.4056V9.85229C106.374 8.53129 106.78 7.47287 107.594 6.68027C108.407 5.8893 109.504 5.49219 110.884 5.49219ZM36.9791 5.91715C37.1442 5.91715 37.2881 5.97304 37.4123 6.08642C37.5349 6.1982 37.597 6.34352 37.597 6.52077V13.0105C37.597 13.1734 37.6787 13.2532 37.8455 13.2532H40.4871C40.6522 13.2532 40.7339 13.1734 40.7339 13.0105V6.52077C40.7339 6.34352 40.7911 6.1982 40.9088 6.08642C41.0233 5.97304 41.172 5.91715 41.3518 5.91715H43.0568C43.2219 5.91715 43.3657 5.97304 43.49 6.08642C43.6126 6.1982 43.6747 6.34352 43.6747 6.52077V22.7371C43.6747 22.9144 43.6126 23.0581 43.49 23.1715C43.3657 23.2848 43.2219 23.3407 43.0568 23.3407H41.3518C41.172 23.3407 41.0233 23.2848 40.9088 23.1715C40.7911 23.0581 40.7339 22.9144 40.7339 22.7371V16.0526C40.7339 15.8913 40.6522 15.8098 40.4871 15.8098H37.8455C37.6787 15.8098 37.597 15.8913 37.597 16.0526V22.7371C37.597 22.9144 37.5349 23.0581 37.4123 23.1715C37.2881 23.2848 37.1442 23.3407 36.9791 23.3407H35.2742C35.0943 23.3407 34.9456 23.2848 34.8312 23.1715C34.7151 23.0581 34.6562 22.9144 34.6562 22.7371V6.52077C34.6562 6.34352 34.7151 6.1982 34.8312 6.08642C34.9456 5.97304 35.0943 5.91715 35.2742 5.91715H36.9791ZM53.1764 5.91715C53.3393 5.91715 53.4813 5.97304 53.6039 6.08642C53.7249 6.1982 53.7863 6.34352 53.7863 6.52077V7.84778C53.7863 8.00907 53.7249 8.1496 53.6039 8.26936C53.4813 8.39072 53.3393 8.44981 53.1764 8.44981H49.396C49.2347 8.44981 49.154 8.53125 49.154 8.69094V12.8668C49.154 13.0281 49.2347 13.1079 49.396 13.1079H51.9566C52.1196 13.1079 52.2631 13.1638 52.3842 13.2772C52.5068 13.3906 52.5665 13.5359 52.5665 13.7115V14.9411C52.5665 15.1024 52.5068 15.2445 52.3842 15.3643C52.2631 15.4841 52.1196 15.5448 51.9566 15.5448H49.396C49.2347 15.5448 49.154 15.6262 49.154 15.7875V20.5175C49.154 20.6771 49.2347 20.7586 49.396 20.7586H53.3716C53.5346 20.7586 53.6765 20.8177 53.7992 20.939C53.9202 21.0588 53.9815 21.2009 53.9815 21.3622V22.7371C53.9815 22.9144 53.9202 23.0581 53.7992 23.1715C53.6765 23.2848 53.5346 23.3407 53.3716 23.3407H46.8613C46.6822 23.3407 46.537 23.2848 46.4224 23.1715C46.3079 23.0581 46.2514 22.9144 46.2514 22.7371V6.52077C46.2514 6.34352 46.3079 6.1982 46.4224 6.08642C46.537 5.97304 46.6822 5.91715 46.8613 5.91715H53.1764ZM61.1075 5.91715C61.2873 5.91715 61.4461 5.97783 61.5854 6.09918C61.7231 6.21894 61.8008 6.36105 61.8187 6.52072L64.7071 22.7372C64.7378 22.8968 64.7022 23.0374 64.5969 23.1587C64.49 23.2801 64.3555 23.3407 64.1935 23.3407H62.6011C62.4213 23.3407 62.2625 23.2801 62.1232 23.1587C61.9839 23.0374 61.9061 22.8968 61.8916 22.7372L61.4979 19.9604C61.4979 19.8008 61.4104 19.7193 61.229 19.7193H58.7569C58.5787 19.7193 58.488 19.8008 58.488 19.9604L58.0716 22.7372C58.0392 22.9128 57.9583 23.0581 57.827 23.1699C57.6958 23.2833 57.55 23.3407 57.3864 23.3407H55.7956C55.632 23.3407 55.4959 23.2801 55.3906 23.1587C55.2853 23.0374 55.248 22.8968 55.2821 22.7372L58.1705 6.52072C58.1867 6.36105 58.2628 6.21894 58.4021 6.09918C58.5398 5.97783 58.7002 5.91715 58.88 5.91715H61.1075ZM70.9526 5.91715C72.5142 5.91715 73.5803 6.36747 74.1541 7.26812C74.7247 8.16876 75.0109 9.45584 75.0109 11.1294C75.0109 12.4644 74.8702 13.4544 74.5873 14.098C74.3044 14.7399 73.8185 15.2398 73.1264 15.5927C72.9809 15.6565 72.933 15.7715 72.9809 15.9312L75.0109 22.7611C75.0428 22.9064 75.0188 23.0389 74.9373 23.1603C74.8574 23.2801 74.7359 23.3407 74.5745 23.3407H72.9585C72.5557 23.3407 72.2968 23.1475 72.1833 22.7611L70.4443 16.3416C70.3963 16.1819 70.2924 16.1005 70.131 16.1005H69.5747C69.4149 16.1005 69.3334 16.1819 69.3334 16.3416V22.7371C69.3334 22.9128 69.2775 23.0581 69.1656 23.1715C69.0521 23.2848 68.9066 23.3407 68.7292 23.3407H67.0381C66.8623 23.3407 66.7168 23.2848 66.605 23.1715C66.4915 23.0581 66.4355 22.9128 66.4355 22.7371V6.52077C66.4355 6.34192 66.4915 6.1982 66.605 6.08483C66.7168 5.97304 66.8623 5.91715 67.0381 5.91715H70.9526ZM84.2938 5.91715C84.4562 5.91715 84.5994 5.97304 84.7201 6.08642C84.8423 6.1982 84.9019 6.34352 84.9019 6.52077V7.89569C84.9019 8.05698 84.8423 8.1975 84.7201 8.31727C84.5994 8.43863 84.4562 8.49772 84.2938 8.49772H82.1075C81.9434 8.49772 81.863 8.57916 81.863 8.74044V22.7371C81.863 22.9144 81.8067 23.0581 81.6941 23.1715C81.5799 23.2848 81.4335 23.3407 81.2549 23.3407H79.577C79.4161 23.3407 79.2746 23.2848 79.1523 23.1715C79.0317 23.0581 78.9689 22.9144 78.9689 22.7371V8.74044C78.9689 8.57916 78.8901 8.49772 78.7276 8.49772H76.4899C76.3113 8.49772 76.1649 8.43863 76.0523 8.31727C75.9397 8.1975 75.8834 8.05698 75.8834 7.89569V6.52077C75.8834 6.34352 75.9397 6.1982 76.0523 6.08642C76.1649 5.97304 76.3113 5.91715 76.4899 5.91715H84.2938ZM119.485 5.91715C119.654 5.91715 119.799 5.97304 119.928 6.08483C120.053 6.1982 120.117 6.34352 120.117 6.52077V22.7371C120.117 22.9144 120.053 23.0581 119.928 23.1715C119.799 23.2848 119.654 23.3407 119.485 23.3407H117.742C117.557 23.3407 117.405 23.2848 117.288 23.1715C117.169 23.0581 117.111 22.9144 117.111 22.7371V6.52077C117.111 6.34352 117.169 6.1982 117.288 6.08483C117.405 5.97304 117.557 5.91715 117.742 5.91715H119.485ZM94.6007 20.7909C94.7631 20.7909 94.9047 20.8461 95.0269 20.9565C95.1491 21.0685 95.2086 21.2104 95.2086 21.387V22.7447C95.2086 22.9039 95.1491 23.0427 95.0269 23.161C94.9047 23.2808 94.7631 23.3407 94.6007 23.3407H86.7982C86.6197 23.3407 86.4733 23.2808 86.3607 23.161C86.2481 23.0427 86.1902 22.9039 86.1902 22.7447V21.387C86.1902 21.2104 86.2481 21.0685 86.3607 20.9565C86.4733 20.8461 86.6197 20.7909 86.7982 20.7909H94.6007ZM124.68 5.89968C124.846 5.89968 124.989 5.95545 125.116 6.06701C125.239 6.18015 125.302 6.32517 125.302 6.50206V20.4925C125.302 20.655 125.384 20.7347 125.549 20.7347H129.182C129.365 20.7347 129.513 20.7905 129.63 20.9036C129.745 21.0152 129.804 21.1602 129.804 21.3371V22.6853C129.804 22.8622 129.745 23.0056 129.63 23.1187C129.513 23.2319 129.365 23.2877 129.182 23.2877H122.963C122.78 23.2877 122.63 23.2319 122.515 23.1187C122.398 23.0056 122.34 22.8622 122.34 22.6853V6.50206C122.34 6.32517 122.398 6.18015 122.515 6.06701C122.63 5.95545 122.78 5.89968 122.963 5.89968H124.68ZM110.884 8.06448C109.87 8.06448 109.363 8.63665 109.363 9.77935V19.4785C109.363 20.6212 109.87 21.1934 110.884 21.1934C111.896 21.1934 112.404 20.6212 112.404 19.4785V9.77935C112.404 8.63665 111.896 8.06448 110.884 8.06448ZM89.9615 5.49219C90.7454 5.49219 91.3503 5.73624 91.7761 6.22755C92.2036 6.71565 92.4181 7.35147 92.4181 8.13019C92.4181 8.83665 92.2391 9.4821 91.8842 10.0601C91.5277 10.6397 91.0051 11.245 90.3179 11.8841C90.2341 11.966 90.2163 12.0607 90.2647 12.1667C90.6906 13.2424 91.0841 14.103 91.4374 14.7517C91.4616 14.7886 91.4906 14.8047 91.5277 14.8047C91.5616 14.8047 91.5858 14.7886 91.5987 14.7517C91.8939 14.0436 92.0665 13.2697 92.1132 12.4332C92.1391 12.1378 92.2971 11.99 92.5939 11.99H93.323C93.4424 11.99 93.544 12.035 93.6263 12.1217C93.7085 12.2116 93.7456 12.316 93.7327 12.4332C93.6618 13.8381 93.3004 15.1242 92.6472 16.293C92.5875 16.3878 92.5939 16.4809 92.6665 16.5756C92.9149 16.8486 93.1585 16.9835 93.3956 16.9835C93.715 16.9835 93.8747 16.7651 93.8747 16.3284V15.9029C93.8747 15.8082 93.9134 15.7247 93.9908 15.646C94.0682 15.5705 94.1602 15.5304 94.2666 15.5304H94.7651C94.8957 15.5304 95.0022 15.5753 95.0844 15.6637C95.1683 15.752 95.2086 15.8563 95.2086 15.9735V16.5949C95.2086 17.2436 95.0231 17.7509 94.6489 18.117C94.2763 18.4815 93.8344 18.6661 93.323 18.6661C92.7181 18.6661 92.1326 18.4108 91.5616 17.9035C91.4906 17.8328 91.4035 17.8264 91.2954 17.8858C90.6567 18.4044 89.9486 18.6661 89.1791 18.6661C88.2646 18.6661 87.5387 18.3787 86.9999 17.8055C86.4596 17.2339 86.1902 16.4937 86.1902 15.585C86.1902 14.2507 86.779 13.0224 87.9516 11.9017C88.0355 11.8182 88.0532 11.7235 88.0049 11.6175C87.508 10.3668 87.258 9.33438 87.258 8.51874C87.258 7.62282 87.4984 6.89388 87.9791 6.33192C88.4597 5.77156 89.1195 5.49219 89.9615 5.49219ZM59.9816 10.2858L58.9529 16.9937C58.9205 17.155 58.9869 17.2332 59.1489 17.2332H60.8386C60.9034 17.2332 60.9601 17.2109 61.0103 17.1614C61.0589 17.1135 61.0751 17.0576 61.0589 16.9937L60.0545 10.2858C60.0221 10.2683 59.9978 10.2683 59.9816 10.2858ZM88.7178 13.6711C88.3371 14.2026 88.1468 14.7452 88.1468 15.3008C88.1468 15.7857 88.2629 16.163 88.4936 16.4343C88.7259 16.7057 89.0485 16.8422 89.4647 16.8422C89.7485 16.8422 89.9921 16.7587 90.1937 16.5949C90.2873 16.5226 90.3002 16.4343 90.2276 16.3284C89.7421 15.5721 89.2969 14.6939 88.8953 13.6904C88.8469 13.5844 88.7888 13.578 88.7178 13.6711ZM70.4698 8.33004H69.5747C69.4149 8.33004 69.3334 8.40989 69.3334 8.57117V13.5423C69.3334 13.7036 69.4149 13.7834 69.5747 13.7834H70.4698C71.13 13.7834 71.5759 13.595 71.8109 13.2165C72.0427 12.8396 72.1609 12.1194 72.1609 11.0575C72.1609 9.99559 72.0427 9.2738 71.8109 8.89694C71.5759 8.52007 71.13 8.33004 70.4698 8.33004ZM89.9082 6.99663C89.6356 6.99663 89.4243 7.11063 89.2759 7.34184C89.1291 7.57144 89.0549 7.88774 89.0549 8.28914C89.0549 8.82059 89.1969 9.511 89.4808 10.362C89.4937 10.3957 89.5211 10.4166 89.5614 10.423C89.6034 10.4294 89.6356 10.4198 89.6598 10.3957C90.3244 9.63945 90.6567 8.88642 90.6567 8.13019C90.6567 7.37395 90.4067 6.99663 89.9082 6.99663Z" fill="#0C181C"/>
</svg>
