<svg xmlns="http://www.w3.org/2000/svg" width="180" height="28" fill="none" viewBox="0 0 180 28"><g clip-path="url(#a)"><path fill="#fc6b57" d="M2.352 23.023c0 2.585 1.063 4.108 3.01 4.108h1.133c2.054 0 3.116-1.133 3.116-3.293v-4.603h5.029c2.301 0 3.293-.886 3.293-2.727v-.142c0-1.735-.956-2.62-3.293-2.62H9.328V9.851h7.755c2.266 0 3.293-.885 3.293-2.833v-.212c0-1.842-1.027-2.727-3.293-2.727H6c-2.337 0-3.648 1.381-3.648 3.966zm159.549 3.187c1.275.744 3.294 1.169 6.091 1.169 5.382 0 8.215-2.16 8.215-5.843 0-4.178-4.178-4.957-6.409-5.453-1.806-.425-3.01-.566-3.01-1.38 0-.744.744-1.17 2.054-1.17 1.805 0 3.859.992 5.134 2.231.106.107 1.806-1.062 1.806-2.655 0-.602-.141-1.133-.46-1.63-.886-1.522-3.223-2.372-6.976-2.372-4.922 0-7.755 2.267-7.755 5.808 0 4.284 4.002 5.028 6.197 5.488 1.699.39 2.797.602 2.797 1.452 0 .708-.743 1.098-2.124 1.098-2.337 0-4.462-.956-5.666-2.054-.142-.142-1.629.956-1.629 2.479 0 1.203.532 2.16 1.735 2.832"/><path fill="#ff8daf" d="M19.433 18.42c0 5.666 3.753 9.066 9.738 9.066 2.478 0 4.355-.425 5.665-1.169 1.275-.744 1.983-1.77 1.983-2.939 0-2.585-3.187-2.691-3.222-2.62-.638 1.239-2.09 2.124-4.178 2.124-2.019 0-3.541-.956-4.037-2.62-.071-.142-.106-.319-.142-.496h11.19c1.062 0 1.345-.602 1.38-1.629v-.318c0-5.064-3.717-8.747-9.064-8.747-5.418 0-9.313 3.966-9.313 9.349m12.323-1.805H25.31c.177-1.842 1.523-3.187 3.329-3.187 1.876 0 3.01 1.168 3.116 3.187m114.922 10.87c2.373 0 4.249-1.274 5.17-3.222.035.354.106.708.177 1.027.389 1.416 1.451 1.877 2.868 1.877h.673c1.771 0 3.01-.85 3.01-3.293V7.23c0-4.143-2.231-5.17-4.179-5.17-1.38 0-2.62.531-2.62.78v8.64c-1.027-1.453-2.868-2.409-5.063-2.409-4.852 0-8.003 3.541-8.003 9.172 0 5.453 3.187 9.242 7.967 9.242m5.099-8.356c0 1.912-1.346 3.08-3.222 3.08-2.018 0-3.4-1.593-3.4-3.93 0-2.443 1.382-3.93 3.506-3.93 1.487 0 2.55.778 3.116 1.947z"/><path fill="#ffa336" d="M38.609 18.421c0 5.666 3.753 9.065 9.737 9.065 2.479 0 4.356-.425 5.666-1.169 1.275-.743 1.983-1.77 1.983-2.939 0-2.585-3.187-2.69-3.222-2.62-.638 1.24-2.09 2.125-4.179 2.125-2.018 0-3.54-.956-4.037-2.62a2 2 0 0 1-.141-.497h11.19c1.061 0 1.345-.601 1.38-1.628v-.319c0-5.064-3.718-8.746-9.065-8.746-5.417 0-9.312 3.966-9.312 9.348m12.322-1.806h-6.444c.177-1.841 1.522-3.187 3.328-3.187 1.877 0 3.01 1.169 3.116 3.187"/><path fill="#ffdc4c" d="M61.855 27.167h.709c1.734 0 3.01-.85 3.01-3.293V7.23c0-4.143-2.231-5.17-4.214-5.17-1.382 0-2.585.531-2.585.78v21.033c0 2.514 1.274 3.293 3.08 3.293"/><path fill="#9fd357" d="M94.224 13.853h-6.196c-2.232 0-3.329.425-3.329 2.443v.319c0 1.947 1.097 2.443 3.329 2.443h2.124a4.3 4.3 0 0 1-.177.779c-.531 1.345-2.054 2.23-4.072 2.23-3.152 0-5.418-2.407-5.418-6.196 0-3.754 2.514-6.232 5.737-6.232 1.983 0 3.824.885 5.028 2.479.212.212 3.576-.638 3.576-3.258 0-1.487-.814-2.833-2.373-3.754-1.557-.956-3.788-1.522-6.657-1.522-7.506 0-12.464 4.993-12.464 11.968 0 6.834 4.391 11.827 10.73 11.827 3.328 0 5.594-1.31 6.727-3.293l.213.602c.602 1.948 1.983 2.479 3.257 2.479 1.31 0 2.409-.496 2.409-.709v-9.596c0-2.053-.39-3.01-2.444-3.01"/><path fill="#7fd6f6" d="M98.38 18.244c0 5.63 3.718 9.242 9.49 9.242 5.807 0 9.596-3.647 9.596-9.207 0-5.524-3.753-9.206-9.49-9.206-5.771 0-9.596 3.682-9.596 9.17m13.314.035c0 2.302-1.593 4.002-3.753 4.002-2.231 0-3.789-1.63-3.789-4.037 0-2.373 1.558-4.001 3.789-4.001 2.195 0 3.753 1.664 3.753 4.036"/><path fill="#c69bef" d="M118.564 18.244c0 5.63 3.718 9.242 9.49 9.242 5.807 0 9.596-3.647 9.596-9.207 0-5.524-3.753-9.206-9.489-9.206-5.772 0-9.597 3.682-9.597 9.17m13.314.035c0 2.302-1.593 4.002-3.753 4.002-2.231 0-3.789-1.63-3.789-4.037 0-2.373 1.558-4.001 3.789-4.001 2.196 0 3.753 1.664 3.753 4.036"/><path fill="#054300" d="M9.613 19.235v-.296h-.295v.296zm-.283-5.49h-.295v.296h.295zm0-3.894v-.295h-.295v.295zM2.06 23.023c0 1.327.27 2.424.83 3.196.568.787 1.413 1.207 2.474 1.207v-.59c-.886 0-1.547-.341-1.996-.962-.46-.635-.719-1.592-.719-2.85zm3.304 4.403h1.133v-.59H5.364zm1.133 0c1.08 0 1.948-.3 2.543-.93.592-.626.868-1.534.868-2.658h-.59c0 1.035-.255 1.774-.707 2.254-.45.476-1.14.744-2.114.744zm3.411-3.588v-4.603h-.59v4.603zm-.295-4.308h5.028v-.59H9.613zm5.028 0c1.18 0 2.087-.226 2.7-.743.625-.526.889-1.306.889-2.28h-.59c0 .87-.233 1.453-.68 1.83-.457.385-1.196.602-2.319.602zm3.589-3.022v-.142h-.59v.142zm0-.142c0-.921-.256-1.675-.878-2.188-.609-.502-1.514-.727-2.71-.727v.59c1.14 0 1.881.218 2.335.592.44.364.663.92.663 1.733zm-3.589-2.915H9.33v.59h5.311zm-5.016.295V9.85h-.59v3.895zm-.295-3.6h7.755v-.59H9.33zm7.755 0c1.162 0 2.07-.225 2.689-.758.628-.54.899-1.346.899-2.37h-.59c0 .924-.242 1.534-.694 1.923-.462.398-1.2.615-2.304.615zm3.588-3.128v-.212h-.59v.212zm0-.212c0-.976-.274-1.755-.903-2.28-.617-.517-1.523-.742-2.685-.742v.59c1.103 0 1.844.217 2.307.604.451.378.69.962.69 1.828zm-3.588-3.022H6v.59h11.084zM6 3.784c-1.227 0-2.226.364-2.916 1.108-.686.74-1.026 1.814-1.026 3.153h.59c0-1.246.316-2.155.869-2.752.55-.593 1.374-.919 2.483-.919zM2.06 8.045v14.978h.59V8.045zm32.778 18.271.146.257.003-.002zm-1.24-5.559.263.135.002-.003zm-8.215-.496.283-.084-.007-.025-.012-.023zm-.141-.495v-.295h-.36l.07.352zm12.57-1.63.295.01v-.009zm-6.055-1.522v.295h.311l-.016-.31zm-6.444 0-.294-.028-.031.323h.325zM19.14 18.42c0 2.9.962 5.25 2.72 6.874 1.753 1.62 4.266 2.486 7.312 2.486v-.59c-2.937 0-5.293-.834-6.912-2.33-1.616-1.493-2.53-3.675-2.53-6.44zm10.032 9.36c2.508 0 4.441-.429 5.812-1.207l-.292-.513c-1.25.71-3.07 1.13-5.52 1.13zm5.815-1.209c1.334-.778 2.129-1.888 2.129-3.194h-.59c0 1.032-.621 1.976-1.837 2.685zm2.129-3.194c0-1.451-.91-2.208-1.778-2.577a4.7 4.7 0 0 0-1.182-.32 4 4 0 0 0-.405-.032q-.077-.001-.14.005l-.073.012a.3.3 0 0 0-.065.024c-.016.008-.093.045-.138.136l.527.264c-.044.09-.118.124-.13.13-.023.012-.042.016-.048.018l-.015.003.074-.002a4 4 0 0 1 1.364.305c.736.313 1.419.9 1.419 2.034zm-3.78-2.755c-.575 1.119-1.91 1.965-3.916 1.965v.59c2.172 0 3.742-.925 4.441-2.285zm-3.916 1.965c-1.923 0-3.304-.902-3.754-2.41l-.565.169c.542 1.82 2.206 2.83 4.32 2.83zm-3.773-2.458c-.05-.099-.078-.234-.116-.421l-.579.116c.034.166.076.385.168.57zm-.405-.068h11.19v-.59H25.24zm11.19 0c.588 0 1.03-.17 1.312-.548.264-.356.345-.842.363-1.366l-.59-.02c-.017.502-.096.83-.247 1.033-.134.18-.365.31-.839.31zm1.675-1.924v-.319h-.59v.319zm0-.319c0-5.234-3.858-9.041-9.36-9.041v.59c5.192 0 8.77 3.558 8.77 8.451zm-9.36-9.041c-5.582 0-9.607 4.1-9.607 9.643h.59c0-5.222 3.765-9.053 9.017-9.053zm3.01 7.542h-6.444v.59h6.444zm-6.15.323c.164-1.707 1.397-2.92 3.034-2.92v-.59c-1.975 0-3.432 1.479-3.622 3.454zm3.034-2.92c.875 0 1.546.271 2.011.748.468.48.76 1.2.81 2.16l.59-.031c-.056-1.06-.383-1.932-.978-2.541-.597-.612-1.431-.926-2.433-.926zm25.372 12.594.146.257.003-.002zm-1.239-5.559.262.135.002-.003zm-8.215-.496.283-.084-.008-.025-.011-.023zm-.142-.495v-.295h-.36l.07.352zm12.57-1.63.295.01v-.009zm-6.054-1.522v.295h.31l-.016-.31zm-6.445 0-.294-.028-.03.323h.324zm-6.173 1.806c0 2.9.963 5.25 2.72 6.874 1.753 1.62 4.266 2.486 7.313 2.486v-.59c-2.938 0-5.294-.834-6.913-2.33-1.616-1.493-2.53-3.675-2.53-6.44zm10.033 9.36c2.507 0 4.44-.429 5.81-1.207l-.29-.513c-1.25.71-3.07 1.13-5.52 1.13zm5.814-1.209c1.334-.778 2.13-1.888 2.13-3.194H55.7c0 1.032-.621 1.976-1.837 2.685zm2.13-3.194c0-1.451-.911-2.208-1.778-2.577a4.7 4.7 0 0 0-1.183-.32 4 4 0 0 0-.405-.032q-.077-.001-.14.005a.5.5 0 0 0-.138.036c-.016.008-.093.045-.138.136l.528.264c-.045.09-.119.124-.13.13q-.038.017-.049.018l-.014.003.073-.002a4 4 0 0 1 1.364.305c.736.313 1.419.9 1.419 2.034zm-3.78-2.755c-.576 1.119-1.91 1.965-3.917 1.965v.59c2.173 0 3.742-.925 4.441-2.285zm-3.917 1.965c-1.923 0-3.304-.902-3.753-2.41l-.566.169c.542 1.82 2.206 2.83 4.32 2.83zm-3.772-2.458c-.05-.099-.079-.234-.117-.421l-.578.116c.033.166.075.385.167.57zm-.406-.068h11.19v-.59h-11.19zm11.19 0c.588 0 1.03-.17 1.312-.548.265-.356.346-.842.363-1.366l-.59-.02c-.017.502-.096.83-.246 1.033-.134.18-.366.31-.84.31zm1.676-1.924v-.319h-.59v.319zm0-.319c0-5.234-3.858-9.041-9.36-9.041v.59c5.192 0 8.77 3.558 8.77 8.451zm-9.36-9.041c-5.583 0-9.608 4.1-9.608 9.643h.59c0-5.222 3.765-9.053 9.018-9.053zm3.01 7.542h-6.445v.59h6.444zm-6.151.323c.164-1.707 1.398-2.92 3.035-2.92v-.59c-1.976 0-3.433 1.479-3.623 3.454zm3.035-2.92c.874 0 1.545.271 2.01.748.468.48.76 1.2.81 2.16l.59-.031c-.056-1.06-.383-1.932-.977-2.541-.597-.612-1.432-.926-2.434-.926zm14.04 13.74h.709v-.59h-.709zm.709 0c.911 0 1.75-.224 2.36-.814.612-.592.945-1.504.945-2.775h-.59c0 1.173-.306 1.907-.765 2.35-.46.447-1.127.648-1.95.648zm3.305-3.589V7.231h-.59v16.642zm0-16.642c0-2.124-.573-3.504-1.454-4.352-.88-.844-2.017-1.113-3.055-1.113v.59c.944 0 1.913.244 2.646.949.73.702 1.272 1.906 1.272 3.926zm-4.51-5.465a6 6 0 0 0-1.906.312c-.25.087-.467.185-.626.286a1 1 0 0 0-.214.17.46.46 0 0 0-.133.306h.59c0 .082-.044.117-.025.096a.5.5 0 0 1 .097-.073c.109-.069.28-.15.504-.227a5.4 5.4 0 0 1 1.714-.28zM58.48 2.84v21.033h.59V2.84zm0 21.033c0 1.303.331 2.22.958 2.805.622.582 1.48.783 2.418.783v-.59c-.867 0-1.55-.188-2.016-.624-.463-.433-.77-1.163-.77-2.374zm31.673-4.816.293.037.041-.332h-.334zm-.177.78.275.108.003-.008.002-.007zm1.275-7.72-.235.178.012.016.014.015zm1.204-7.011-.155.252.005.002zm-1.664 18.98.278-.099-.215-.607-.32.56zm.212.602.282-.088-.002-.005-.002-.006zm3.222-11.13H88.03v.59h6.196zm-6.196 0c-1.115 0-2.028.1-2.662.511-.67.434-.962 1.164-.962 2.226h.59c0-.955.257-1.448.693-1.73.474-.307 1.224-.418 2.34-.418zm-3.624 2.738v.318h.59v-.319zm0 .318c0 1.031.294 1.756.96 2.198.632.42 1.544.54 2.664.54v-.59c-1.111 0-1.864-.127-2.338-.442-.441-.293-.696-.79-.696-1.706zm3.624 2.738h2.124v-.59H88.03zm1.831-.331a4 4 0 0 1-.164.722l.56.187a4.5 4.5 0 0 0 .19-.836zm-.158.707c-.473 1.196-1.856 2.044-3.798 2.044v.59c2.094 0 3.757-.922 4.347-2.417zm-3.798 2.044c-1.496 0-2.77-.57-3.67-1.579-.904-1.012-1.453-2.486-1.453-4.323h-.59c0 1.953.585 3.577 1.602 4.716 1.02 1.142 2.456 1.776 4.11 1.776zm-5.123-5.901c0-3.606 2.397-5.937 5.442-5.937v-.59c-3.4 0-6.032 2.625-6.032 6.527zm5.442-5.937c1.893 0 3.646.844 4.793 2.361l.47-.356c-1.261-1.67-3.19-2.596-5.263-2.596zm4.82 2.392a.42.42 0 0 0 .245.11 1 1 0 0 0 .198.004c.136-.01.304-.04.488-.088.37-.098.836-.276 1.295-.547.913-.541 1.853-1.489 1.853-2.946h-.59c0 1.164-.742 1.951-1.564 2.438-.408.241-.823.4-1.144.484-.16.042-.29.064-.38.07a.4.4 0 0 1-.08 0c-.025-.003.035-.003.096.057zm4.08-3.467c0-1.609-.886-3.043-2.518-4.007l-.3.508c1.484.877 2.227 2.134 2.227 3.5zm-2.514-4.005c-1.619-.993-3.908-1.566-6.811-1.566v.59c2.833 0 5.005.56 6.502 1.48zm-6.811-1.566c-3.82 0-7.014 1.272-9.253 3.452-2.24 2.181-3.507 5.252-3.507 8.812h.59c0-3.416 1.213-6.33 3.328-8.389 2.116-2.06 5.155-3.285 8.842-3.285zm-12.76 12.264c0 6.967 4.494 12.122 11.025 12.122v-.59c-6.147 0-10.434-4.83-10.434-11.532zm11.025 12.122c3.409 0 5.787-1.347 6.984-3.442l-.513-.293c-1.069 1.871-3.224 3.145-6.471 3.145zm6.45-3.49.212.602.556-.197-.212-.602zm.208.59c.319 1.032.853 1.712 1.498 2.13.64.416 1.365.557 2.042.557v-.59c-.598 0-1.202-.125-1.72-.461-.515-.334-.972-.893-1.256-1.81zm3.54 2.687c.69 0 1.324-.13 1.79-.29a3 3 0 0 0 .58-.262 1 1 0 0 0 .2-.155.43.43 0 0 0 .132-.296h-.59c0-.092.052-.133.033-.113a.5.5 0 0 1-.085.063 2.4 2.4 0 0 1-.46.205c-.41.14-.98.258-1.6.258zm2.703-1.003v-9.596h-.59v9.596zm0-9.596c0-1.023-.092-1.866-.507-2.447-.436-.61-1.167-.858-2.232-.858v.59c.99 0 1.48.23 1.752.611.293.411.397 1.074.397 2.104zm1.124 1.381c0 2.882.952 5.273 2.669 6.944 1.716 1.67 4.167 2.593 7.115 2.593v-.59c-2.824 0-5.117-.883-6.703-2.426s-2.492-3.773-2.492-6.521zm9.784 9.537c2.966 0 5.443-.932 7.181-2.6 1.738-1.67 2.71-4.053 2.71-6.902h-.59c0 2.71-.922 4.932-2.529 6.476-1.609 1.545-3.93 2.436-6.772 2.436zm9.891-9.502c0-2.83-.963-5.212-2.683-6.886-1.719-1.673-4.169-2.615-7.101-2.615v.59c2.803 0 5.098.899 6.69 2.448 1.591 1.549 2.504 3.77 2.504 6.463zm-9.784-9.501c-2.95 0-5.426.942-7.167 2.61-1.742 1.668-2.724 4.04-2.724 6.856h.59c0-2.673.93-4.886 2.542-6.43 1.614-1.547 3.936-2.446 6.759-2.446zm3.423 9.501c0 2.157-1.479 3.707-3.459 3.707v.59c2.341 0 4.049-1.85 4.049-4.297zm-3.459 3.707c-1.04 0-1.908-.379-2.517-1.023-.609-.646-.977-1.58-.977-2.719h-.59c0 1.268.411 2.353 1.138 3.124.729.772 1.756 1.208 2.946 1.208zm-3.494-3.742c0-1.12.367-2.045.977-2.687.609-.64 1.477-1.02 2.517-1.02v-.59c-1.19 0-2.217.437-2.945 1.204-.727.765-1.139 1.841-1.139 3.093zm3.494-3.706c1.02 0 1.879.385 2.484 1.034.607.652.975 1.586.975 2.707h.59c0-1.25-.412-2.335-1.133-3.109-.722-.775-1.74-1.222-2.916-1.222zm10.326 3.706c0 2.882.954 5.273 2.67 6.944 1.716 1.67 4.167 2.593 7.116 2.593v-.59c-2.825 0-5.118-.883-6.704-2.426s-2.491-3.773-2.491-6.521zm9.786 9.537c2.965 0 5.442-.932 7.18-2.6 1.738-1.67 2.711-4.053 2.711-6.902h-.591c0 2.71-.922 4.932-2.529 6.476-1.609 1.545-3.93 2.436-6.771 2.436zm9.891-9.502c0-2.83-.964-5.212-2.684-6.886-1.718-1.673-4.169-2.615-7.101-2.615v.59c2.804 0 5.098.899 6.69 2.448 1.591 1.549 2.504 3.77 2.504 6.463zm-9.785-9.501c-2.949 0-5.426.942-7.167 2.61-1.742 1.668-2.725 4.04-2.725 6.856h.591c0-2.673.929-4.886 2.542-6.43 1.615-1.547 3.936-2.446 6.759-2.446zm3.423 9.501c0 2.157-1.479 3.707-3.459 3.707v.59c2.341 0 4.049-1.85 4.049-4.297zm-3.459 3.707c-1.04 0-1.908-.379-2.516-1.023-.609-.646-.977-1.58-.977-2.719h-.591c0 1.268.412 2.353 1.139 3.124.728.772 1.755 1.208 2.945 1.208zm-3.493-3.742c0-1.12.367-2.045.976-2.687.609-.64 1.477-1.02 2.517-1.02v-.59c-1.19 0-2.217.437-2.945 1.204-.727.765-1.139 1.841-1.139 3.093zm3.493-3.706c1.02 0 1.879.385 2.484 1.034.607.652.975 1.586.975 2.707h.59c0-1.25-.412-2.335-1.133-3.109-.722-.775-1.74-1.222-2.916-1.222zm23.724 9.726.293-.03-.106-1.058-.454.962zm.177 1.027-.289.064.002.007.002.007zm-.249-13.81-.24.17.536.758v-.928zm0 4.816h.296v-.068l-.03-.061zm-5.098 11.484c2.488 0 4.467-1.342 5.436-3.391l-.533-.252c-.873 1.845-2.646 3.053-4.903 3.053zm4.876-3.488c.037.372.111.74.182 1.062l.577-.128a9 9 0 0 1-.172-.993zm.186 1.076c.213.772.618 1.309 1.183 1.645.555.33 1.234.448 1.97.448v-.59c-.681 0-1.241-.111-1.669-.366-.417-.248-.738-.65-.915-1.294zm3.153 2.093h.672v-.59h-.672zm.672 0c.929 0 1.769-.222 2.375-.814.608-.593.931-1.506.931-2.774h-.591c0 1.175-.297 1.909-.751 2.352-.456.444-1.121.646-1.964.646zm3.306-3.588V7.231h-.591v16.642zm0-16.642c0-2.124-.573-3.504-1.449-4.351-.874-.845-2.003-1.114-3.025-1.114v.59c.926 0 1.886.244 2.614.948.726.702 1.269 1.907 1.269 3.927zm-4.474-5.465c-.726 0-1.413.139-1.923.312a3.3 3.3 0 0 0-.637.284c-.08.05-.157.106-.218.17a.45.45 0 0 0-.137.308h.59c0 .085-.047.121-.026.1a.5.5 0 0 1 .1-.075c.113-.07.29-.15.518-.228a5.6 5.6 0 0 1 1.733-.281zm-2.915 1.074v8.64h.59V2.84zm.536 8.47c-1.089-1.54-3.025-2.533-5.305-2.533v.59c2.111 0 3.857.918 4.823 2.283zm-5.305-2.533c-2.502 0-4.586.915-6.042 2.575-1.452 1.655-2.256 4.022-2.256 6.891h.59c0-2.762.773-4.98 2.109-6.502 1.333-1.52 3.25-2.374 5.599-2.374zm-8.298 9.466c0 2.783.814 5.166 2.262 6.858 1.452 1.696 3.527 2.68 6.001 2.68v-.591c-2.307 0-4.216-.912-5.552-2.473-1.34-1.565-2.121-3.803-2.121-6.474zm13.067.885c0 .884-.309 1.572-.814 2.042-.507.471-1.236.744-2.114.744v.59c1 0 1.881-.312 2.516-.902.638-.593 1.002-1.445 1.002-2.474zm-2.928 2.786c-.926 0-1.693-.363-2.233-.987-.543-.627-.871-1.537-.871-2.649h-.59c0 1.226.362 2.281 1.015 3.035.655.757 1.587 1.191 2.679 1.191zm-3.104-3.636c0-1.167.33-2.073.88-2.683.548-.608 1.341-.952 2.331-.952v-.59c-1.135 0-2.095.4-2.769 1.146-.671.744-1.032 1.804-1.032 3.08zm3.211-3.635c1.365 0 2.329.707 2.85 1.781l.531-.257c-.612-1.263-1.773-2.114-3.381-2.114zm2.821 1.652v2.833h.59v-2.832zm10.42 9.915.149-.255-.005-.002zm7.897-10.127-.068.287.003.001zm4.178-.319.208-.208-.002-.003zm1.345-4.284-.255.148.004.006.003.005zm-8.533 8.923.065-.288h-.005zm-4.993.496-.209.208.005.005.005.005zm-.042 5.566c1.341.782 3.421 1.209 6.239 1.209v-.59c-2.778 0-4.734-.424-5.942-1.129zm6.239 1.209c2.724 0 4.848-.546 6.299-1.597 1.465-1.06 2.211-2.614 2.211-4.54h-.59c0 1.755-.67 3.123-1.967 4.062-1.312.95-3.295 1.485-5.953 1.485zm8.51-6.138c0-2.215-1.12-3.541-2.513-4.362-1.373-.807-3.026-1.134-4.127-1.38l-.129.577c1.13.251 2.681.561 3.956 1.312 1.253.738 2.223 1.89 2.223 3.853zm-6.637-5.74c-.926-.218-1.644-.352-2.149-.535-.249-.09-.411-.18-.508-.273a.36.36 0 0 1-.125-.286h-.591a.95.95 0 0 0 .309.713c.184.177.437.3.714.401.548.198 1.335.347 2.215.554zm-2.782-1.094c0-.252.116-.453.387-.607.286-.163.741-.266 1.371-.266v-.59c-.679 0-1.251.108-1.664.343-.428.245-.685.628-.685 1.12zm1.758-.873c1.715 0 3.698.95 4.929 2.147l.412-.423c-1.319-1.282-3.443-2.315-5.341-2.315zm4.926 2.144a.32.32 0 0 0 .184.09.4.4 0 0 0 .112-.003.6.6 0 0 0 .14-.044c.079-.035.171-.089.267-.154.193-.133.432-.334.666-.589.463-.505.941-1.263.941-2.164h-.59c0 .692-.372 1.314-.786 1.765-.204.223-.41.394-.565.5a1 1 0 0 1-.171.102c-.018.008-.017.005-.001.003a.2.2 0 0 1 .066 0c.033.004.098.02.154.077zm2.31-2.864c0-.653-.155-1.24-.507-1.789l-.497.32c.285.443.414.917.414 1.469zm-.5-1.778c-.49-.841-1.365-1.47-2.571-1.887s-2.764-.632-4.66-.632v.59c1.857 0 3.344.211 4.467.6 1.122.388 1.858.945 2.253 1.626zm-7.231-2.519c-2.502 0-4.511.576-5.902 1.636-1.401 1.068-2.148 2.609-2.148 4.467h.59c0-1.684.669-3.047 1.915-3.997 1.256-.958 3.125-1.516 5.545-1.516zm-8.05 6.103c0 2.258 1.066 3.605 2.416 4.43 1.327.81 2.929 1.12 4.015 1.347l.121-.578c-1.109-.233-2.605-.526-3.828-1.273-1.2-.733-2.134-1.9-2.134-3.927zm6.426 5.776c.865.198 1.53.342 1.986.537.224.095.37.193.459.292a.47.47 0 0 1 .123.335h.59a1.06 1.06 0 0 0-.273-.727c-.17-.191-.405-.33-.667-.443-.518-.221-1.252-.378-2.087-.57zm2.568 1.164c0 .224-.105.407-.385.552-.298.154-.774.25-1.444.25v.59c.71 0 1.296-.098 1.716-.316.437-.227.703-.592.703-1.076zm-1.829.802c-2.264 0-4.318-.928-5.467-1.976l-.398.436c1.259 1.147 3.454 2.13 5.865 2.13zm-5.457-1.967a.35.35 0 0 0-.261-.098.5.5 0 0 0-.158.032 1.3 1.3 0 0 0-.269.143 3.3 3.3 0 0 0-.611.553c-.417.479-.834 1.2-.834 2.057h.59c0-.665.327-1.254.689-1.67.18-.206.36-.359.495-.45a1 1 0 0 1 .139-.077c.012-.005.003 0-.021.001a.24.24 0 0 1-.177-.074zm-2.133 2.687c0 .647.143 1.241.458 1.768q.471.788 1.428 1.323l.288-.515c-.565-.316-.957-.69-1.21-1.111q-.375-.63-.374-1.465z"/><path fill="#fff" d="M1.634 21.253c0 2.585 1.062 4.107 3.01 4.107h1.133c2.054 0 3.116-1.133 3.116-3.293v-4.603h5.028c2.302 0 3.294-.885 3.294-2.727v-.141c0-1.735-.957-2.62-3.294-2.62H8.61V8.08h7.755c2.266 0 3.293-.885 3.293-2.833v-.212c0-1.841-1.027-2.727-3.293-2.727H5.28c-2.337 0-3.647 1.381-3.647 3.966zm17.08-4.604c0 5.666 3.753 9.065 9.737 9.065 2.479 0 4.356-.425 5.666-1.168 1.275-.744 1.983-1.77 1.983-2.94 0-2.584-3.187-2.69-3.223-2.62-.637 1.24-2.089 2.125-4.178 2.125-2.018 0-3.54-.956-4.037-2.62a2 2 0 0 1-.141-.496h11.19c1.062 0 1.345-.602 1.38-1.629v-.319c0-5.063-3.718-8.746-9.065-8.746-5.417 0-9.312 3.966-9.312 9.348m12.322-1.806h-6.444c.177-1.84 1.522-3.186 3.328-3.186 1.877 0 3.01 1.168 3.116 3.187m7.03 1.806c0 5.666 3.753 9.065 9.738 9.065 2.478 0 4.355-.425 5.665-1.168 1.275-.744 1.983-1.77 1.983-2.94 0-2.584-3.187-2.69-3.222-2.62-.638 1.24-2.09 2.125-4.178 2.125-2.019 0-3.541-.956-4.037-2.62a2 2 0 0 1-.142-.496h11.19c1.062 0 1.345-.602 1.38-1.629v-.319c0-5.063-3.718-8.746-9.064-8.746-5.418 0-9.313 3.966-9.313 9.348m12.322-1.806h-6.444c.177-1.84 1.523-3.186 3.328-3.186 1.877 0 3.01 1.168 3.116 3.187m10.925 10.553h.709c1.735 0 3.01-.85 3.01-3.294V5.46c0-4.143-2.232-5.17-4.215-5.17-1.38 0-2.584.531-2.584.78v21.033c0 2.514 1.275 3.293 3.08 3.293m32.37-13.314h-6.197c-2.231 0-3.329.424-3.329 2.443v.319c0 1.947 1.098 2.443 3.329 2.443h2.124a4 4 0 0 1-.177.779c-.531 1.345-2.054 2.23-4.072 2.23-3.151 0-5.418-2.407-5.418-6.196 0-3.754 2.514-6.232 5.737-6.232 1.983 0 3.824.885 5.028 2.478.212.213 3.576-.637 3.576-3.257 0-1.487-.814-2.833-2.372-3.754-1.558-.956-3.789-1.522-6.657-1.522-7.507 0-12.465 4.992-12.465 11.968 0 6.834 4.391 11.827 10.73 11.827 3.328 0 5.595-1.31 6.727-3.293l.213.602c.602 1.947 1.983 2.479 3.258 2.479 1.31 0 2.408-.496 2.408-.709v-9.596c0-2.053-.39-3.01-2.444-3.01m4.157 4.39c0 5.63 3.717 9.242 9.489 9.242 5.808 0 9.596-3.647 9.596-9.206 0-5.524-3.753-9.207-9.49-9.207-5.771 0-9.595 3.683-9.595 9.171m13.314.036c0 2.301-1.594 4.001-3.754 4.001-2.231 0-3.789-1.629-3.789-4.037 0-2.372 1.558-4.001 3.789-4.001 2.195 0 3.754 1.664 3.754 4.037m6.868-.036c0 5.63 3.718 9.242 9.489 9.242 5.808 0 9.596-3.647 9.596-9.206 0-5.524-3.753-9.207-9.489-9.207-5.772 0-9.596 3.683-9.596 9.171m13.314.036c0 2.301-1.594 4.001-3.754 4.001-2.231 0-3.789-1.629-3.789-4.037 0-2.372 1.558-4.001 3.789-4.001 2.196 0 3.754 1.664 3.754 4.037m14.799 9.206c2.373 0 4.25-1.274 5.17-3.222.036.354.107.708.178 1.027.389 1.416 1.451 1.877 2.868 1.877h.673c1.77 0 3.009-.85 3.009-3.294V5.46c0-4.143-2.23-5.17-4.178-5.17-1.381 0-2.62.531-2.62.78v8.639c-1.027-1.452-2.868-2.408-5.064-2.408-4.851 0-8.003 3.541-8.003 9.171 0 5.453 3.187 9.242 7.967 9.242m5.1-8.356c0 1.912-1.346 3.08-3.223 3.08-2.018 0-3.399-1.593-3.399-3.93 0-2.444 1.381-3.93 3.505-3.93 1.488 0 2.55.778 3.117 1.947zm10.125 7.082c1.275.743 3.293 1.168 6.091 1.168 5.382 0 8.215-2.16 8.215-5.843 0-4.178-4.179-4.957-6.409-5.453-1.806-.425-3.01-.566-3.01-1.38 0-.744.743-1.17 2.054-1.17 1.806 0 3.859.992 5.134 2.232.106.106 1.806-1.063 1.806-2.656 0-.602-.142-1.133-.46-1.629-.886-1.523-3.223-2.372-6.976-2.372-4.922 0-7.755 2.266-7.755 5.807 0 4.284 4.001 5.028 6.197 5.488 1.7.39 2.797.602 2.797 1.452 0 .708-.743 1.098-2.124 1.098-2.338 0-4.462-.956-5.666-2.054-.141-.142-1.629.956-1.629 2.479 0 1.204.531 2.16 1.735 2.833"/><path fill="#054300" d="M8.895 17.464v-.295H8.6v.295zm-.283-5.488h-.295v.295h.295zm0-3.895v-.295h-.295v.295zM1.34 21.253c0 1.327.271 2.423.83 3.196.57.786 1.414 1.207 2.475 1.207v-.59c-.887 0-1.547-.341-1.996-.963-.46-.635-.719-1.592-.719-2.85zm3.305 4.403h1.133v-.59H4.646zm1.133 0c1.08 0 1.948-.3 2.543-.93.592-.626.868-1.534.868-2.658H8.6c0 1.035-.255 1.774-.708 2.253-.45.477-1.14.744-2.113.744zm3.411-3.588v-4.604H8.6v4.604zm-.295-4.309h5.028v-.59H8.895zm5.028 0c1.18 0 2.086-.225 2.7-.742.625-.527.888-1.307.888-2.28h-.59c0 .87-.232 1.453-.678 1.829-.458.386-1.197.603-2.32.603zm3.588-3.021v-.142h-.59v.142zm0-.142c0-.922-.256-1.676-.877-2.188-.609-.503-1.515-.727-2.71-.727v.59c1.14 0 1.88.218 2.334.592.441.364.663.92.663 1.733zm-3.588-2.915h-5.31v.59h5.311zm-5.016.295V8.08h-.59v3.895zm-.295-3.6h7.754v-.59H8.612zm7.754 0c1.163 0 2.071-.226 2.69-.758.627-.54.899-1.346.899-2.37h-.59c0 .924-.243 1.534-.695 1.923-.461.397-1.2.615-2.304.615zm3.589-3.128v-.213h-.59v.213zm0-.213c0-.975-.274-1.754-.903-2.28-.617-.516-1.523-.741-2.686-.741v.59c1.104 0 1.845.217 2.308.604.451.377.69.962.69 1.827zm-3.589-3.021H5.283v.59h11.083zm-11.083 0c-1.227 0-2.227.364-2.916 1.108-.687.74-1.026 1.814-1.026 3.153h.59c0-1.246.316-2.156.869-2.752.55-.593 1.373-.92 2.483-.92zM1.34 6.274v14.98h.59V6.273zm32.778 18.272.145.257.003-.002zm-1.24-5.56.263.136.001-.003zm-8.215-.495.283-.084-.007-.025-.012-.023zm-.141-.496V17.7h-.36l.07.353zm12.57-1.629.295.01v-.01zm-6.055-1.522v.295h.311l-.016-.31zm-6.445 0-.293-.028-.031.323h.324zM18.42 16.65c0 2.9.963 5.25 2.72 6.874 1.754 1.62 4.266 2.486 7.313 2.486v-.59c-2.937 0-5.294-.834-6.913-2.33-1.616-1.493-2.53-3.675-2.53-6.44zm10.033 9.36c2.508 0 4.44-.43 5.811-1.207l-.291-.514c-1.25.71-3.07 1.13-5.52 1.13zm5.814-1.209c1.334-.778 2.13-1.889 2.13-3.194h-.59c0 1.032-.622 1.975-1.837 2.684zm2.13-3.194c0-1.451-.91-2.209-1.778-2.577a4.6 4.6 0 0 0-1.182-.32 4 4 0 0 0-.405-.032q-.078-.001-.14.005l-.073.012a.3.3 0 0 0-.065.024.3.3 0 0 0-.139.136l.528.264c-.044.089-.118.124-.13.13a.3.3 0 0 1-.049.018l-.014.003.074-.002c.077.001.193.008.335.027.284.038.659.12 1.03.278.734.312 1.417.9 1.417 2.034zm-3.78-2.755c-.575 1.119-1.91 1.964-3.916 1.964v.59c2.172 0 3.741-.924 4.44-2.284zM28.7 20.816c-1.923 0-3.305-.9-3.754-2.41l-.566.17c.543 1.82 2.206 2.83 4.32 2.83zm-3.773-2.457c-.05-.1-.079-.234-.116-.422l-.579.116c.034.167.075.386.167.57zm-.405-.069h11.19v-.59h-11.19zm11.19 0c.588 0 1.03-.17 1.311-.547.265-.356.346-.842.364-1.366l-.59-.02c-.017.502-.096.83-.247 1.033-.134.18-.365.31-.839.31zm1.675-1.924v-.318h-.59v.319zm0-.318c0-5.234-3.858-9.041-9.36-9.041v.59c5.192 0 8.77 3.558 8.77 8.45zm-9.36-9.041c-5.583 0-9.608 4.1-9.608 9.643h.59c0-5.222 3.766-9.053 9.018-9.053zm3.01 7.542h-6.445v.59h6.445zm-6.15.323c.163-1.707 1.397-2.92 3.034-2.92v-.59c-1.975 0-3.432 1.479-3.622 3.454zm3.034-2.92c.875 0 1.545.27 2.01.748.469.48.76 1.2.811 2.16l.59-.032c-.056-1.06-.384-1.931-.978-2.54-.597-.612-1.431-.926-2.433-.926zM53.47 24.546l.146.257.003-.002zm-1.24-5.56.263.136.002-.003zm-8.215-.495.283-.084-.007-.025-.012-.023zm-.141-.496V17.7h-.36l.07.353zm12.57-1.629.295.01v-.01zm-6.055-1.522v.295h.311l-.016-.31zm-6.444 0-.294-.028-.031.323h.325zm-6.173 1.806c0 2.9.962 5.25 2.72 6.874 1.753 1.62 4.266 2.486 7.312 2.486v-.59c-2.937 0-5.293-.834-6.912-2.33-1.616-1.493-2.53-3.675-2.53-6.44zm10.032 9.36c2.508 0 4.44-.43 5.812-1.207l-.292-.514c-1.25.71-3.07 1.13-5.52 1.13zm5.816-1.21c1.334-.778 2.129-1.889 2.129-3.194h-.59c0 1.032-.621 1.975-1.837 2.684zm2.129-3.194c0-1.451-.91-2.209-1.777-2.577a4.7 4.7 0 0 0-1.183-.32 4 4 0 0 0-.405-.032q-.078-.001-.14.005l-.073.012a.3.3 0 0 0-.204.16l.529.264c-.045.089-.119.124-.13.13q-.038.016-.05.018l-.014.003.075-.002c.077.001.192.008.334.027.285.038.659.12 1.03.278.735.312 1.418.9 1.418 2.034zm-3.78-2.755c-.575 1.119-1.91 1.964-3.916 1.964v.59c2.172 0 3.741-.924 4.441-2.284zm-3.916 1.964c-1.923 0-3.304-.9-3.754-2.41l-.565.17c.542 1.82 2.206 2.83 4.32 2.83zM44.28 18.36c-.05-.1-.078-.234-.116-.422l-.578.116c.033.167.075.386.166.57zm-.405-.069h11.19v-.59h-11.19zm11.19 0c.588 0 1.03-.17 1.312-.547.265-.356.345-.842.363-1.366l-.59-.02c-.017.502-.095.83-.247 1.033-.134.18-.365.31-.838.31zm1.675-1.924v-.318h-.59v.319zm0-.318c0-5.234-3.858-9.041-9.36-9.041v.59c5.192 0 8.77 3.558 8.77 8.45zm-9.36-9.041c-5.583 0-9.607 4.1-9.607 9.643h.59c0-5.222 3.765-9.053 9.017-9.053zm3.01 7.542h-6.444v.59h6.444zm-6.15.323c.164-1.707 1.397-2.92 3.034-2.92v-.59c-1.975 0-3.432 1.479-3.622 3.454zm3.034-2.92c.875 0 1.546.27 2.011.748.468.48.76 1.2.81 2.16l.59-.032c-.056-1.06-.384-1.931-.977-2.54-.598-.612-1.432-.926-2.434-.926zm14.041 13.74h.708V25.1h-.708zm.708 0c.912 0 1.75-.224 2.361-.814.612-.592.944-1.505.944-2.775h-.59c0 1.173-.305 1.907-.764 2.35-.461.446-1.127.648-1.95.648zm3.305-3.59V5.46h-.59v16.643zm0-16.642c0-2.123-.573-3.504-1.454-4.351-.879-.845-2.016-1.114-3.055-1.114v.59c.945 0 1.914.245 2.646.95.73.701 1.273 1.905 1.273 3.925zM60.82-.005c-.726 0-1.404.14-1.907.313-.25.087-.465.185-.625.285-.079.05-.154.107-.214.17a.46.46 0 0 0-.134.306h.59c0 .083-.044.118-.024.097a.5.5 0 0 1 .096-.073c.11-.069.28-.15.504-.227a5.4 5.4 0 0 1 1.714-.28zM57.94 1.07v21.034h.59V1.069zm0 21.034c0 1.303.331 2.22.957 2.805.622.581 1.48.783 2.42.783v-.59c-.868 0-1.55-.188-2.017-.624-.463-.433-.77-1.163-.77-2.374zm31.673-4.816.293.037.041-.332h-.334zm-.177.78.274.107.003-.007.003-.008zm1.275-7.72-.236.178.013.016.014.014zm1.204-7.011-.155.251.004.003zm-1.665 18.98.279-.099-.215-.608-.32.56zm.213.601.282-.087-.002-.005-.002-.006zm3.222-11.13h-6.197v.59h6.197zm-6.197 0c-1.114 0-2.028.101-2.661.512-.67.434-.962 1.163-.962 2.226h.59c0-.955.256-1.448.693-1.73.473-.307 1.224-.418 2.34-.418zm-3.623 2.738v.319h.59v-.319zm0 .319c0 1.031.294 1.756.96 2.198.632.42 1.543.54 2.663.54v-.59c-1.11 0-1.863-.127-2.337-.442-.442-.293-.696-.79-.696-1.706zm3.623 2.738h2.125v-.59h-2.125zm1.832-.331a4 4 0 0 1-.164.722l.56.187c.076-.229.151-.531.19-.836zm-.159.707c-.471 1.196-1.855 2.044-3.797 2.044v.59c2.094 0 3.756-.922 4.346-2.418zm-3.797 2.044c-1.497 0-2.77-.57-3.67-1.58-.904-1.01-1.453-2.486-1.453-4.322h-.59c0 1.953.584 3.577 1.602 4.716 1.02 1.142 2.456 1.776 4.111 1.776zM80.24 14.1c0-3.605 2.397-5.937 5.441-5.937v-.59c-3.4 0-6.031 2.626-6.031 6.527zm5.441-5.937c1.894 0 3.647.844 4.793 2.362l.47-.356c-1.26-1.67-3.19-2.596-5.263-2.596zm4.82 2.393a.42.42 0 0 0 .245.11q.096.012.2.004c.135-.01.303-.04.487-.089.37-.097.836-.275 1.295-.547.913-.54 1.853-1.488 1.853-2.945h-.59c0 1.163-.742 1.951-1.564 2.437-.409.242-.823.4-1.144.485a2 2 0 0 1-.38.07h-.08c-.025-.003.035-.003.095.057zm4.08-3.467c0-1.609-.886-3.043-2.517-4.007l-.3.508c1.484.877 2.227 2.134 2.227 3.5zm-2.513-4.005c-1.619-.993-3.908-1.566-6.811-1.566v.59c2.833 0 5.005.56 6.502 1.48zm-6.811-1.566c-3.82 0-7.014 1.271-9.254 3.452s-3.506 5.252-3.506 8.812h.59c0-3.416 1.213-6.33 3.328-8.39 2.116-2.059 5.155-3.284 8.842-3.284zm-12.76 12.264c0 6.966 4.495 12.122 11.024 12.122v-.59c-6.146 0-10.434-4.83-10.434-11.532zm11.024 12.122c3.41 0 5.788-1.348 6.984-3.442l-.512-.293c-1.07 1.871-3.224 3.144-6.472 3.144zm6.45-3.49.212.602.557-.197-.212-.602zm.209.59c.318 1.031.852 1.712 1.498 2.13.64.416 1.365.557 2.042.557v-.59c-.599 0-1.202-.125-1.721-.461-.515-.334-.972-.893-1.255-1.81zm3.54 2.687c.69 0 1.324-.13 1.79-.29a3 3 0 0 0 .58-.262 1 1 0 0 0 .2-.155.43.43 0 0 0 .133-.296h-.59c0-.092.051-.133.032-.113a.5.5 0 0 1-.085.062 2.4 2.4 0 0 1-.461.206c-.41.14-.98.258-1.6.258zm2.703-1.003v-9.596h-.59v9.596zm0-9.596c0-1.024-.092-1.866-.507-2.447-.436-.61-1.167-.858-2.232-.858v.59c.99 0 1.48.23 1.752.611.293.411.396 1.074.396 2.104zm1.123 1.38c0 2.883.953 5.274 2.67 6.944 1.716 1.67 4.167 2.594 7.115 2.594v-.59c-2.824 0-5.117-.883-6.704-2.427-1.585-1.542-2.491-3.772-2.491-6.52zm9.785 9.538c2.966 0 5.443-.933 7.18-2.601 1.739-1.67 2.711-4.052 2.711-6.9h-.59c0 2.71-.922 4.93-2.53 6.474-1.609 1.545-3.93 2.437-6.771 2.437zm9.891-9.502c0-2.83-.963-5.212-2.683-6.886-1.719-1.673-4.17-2.615-7.102-2.615v.59c2.805 0 5.099.899 6.69 2.448s2.505 3.77 2.505 6.463zm-9.785-9.501c-2.949 0-5.426.941-7.166 2.609-1.742 1.668-2.725 4.041-2.725 6.857h.59c0-2.673.93-4.886 2.543-6.43 1.614-1.547 3.936-2.446 6.758-2.446zm3.423 9.501c0 2.157-1.479 3.706-3.458 3.706v.59c2.34 0 4.048-1.85 4.048-4.296zm-3.458 3.706c-1.041 0-1.908-.378-2.516-1.022-.61-.646-.978-1.58-.978-2.72h-.59c0 1.269.411 2.354 1.138 3.125.729.771 1.755 1.208 2.946 1.208zm-3.494-3.741c0-1.121.367-2.045.977-2.687.608-.641 1.476-1.02 2.517-1.02v-.59c-1.19 0-2.217.436-2.945 1.203-.727.766-1.139 1.842-1.139 3.094zm3.494-3.706c1.019 0 1.878.384 2.484 1.034.607.652.974 1.586.974 2.707h.59c0-1.251-.411-2.335-1.132-3.109-.723-.775-1.74-1.223-2.916-1.223zm10.326 3.706c0 2.882.953 5.273 2.67 6.944 1.716 1.67 4.167 2.593 7.115 2.593v-.59c-2.824 0-5.118-.883-6.703-2.427-1.586-1.542-2.492-3.772-2.492-6.52zm9.785 9.537c2.966 0 5.443-.933 7.18-2.601 1.739-1.67 2.711-4.052 2.711-6.9h-.59c0 2.71-.922 4.93-2.53 6.474s-3.929 2.437-6.771 2.437zm9.891-9.502c0-2.83-.963-5.212-2.683-6.886-1.719-1.673-4.17-2.615-7.102-2.615v.59c2.805 0 5.099.899 6.691 2.448s2.504 3.77 2.504 6.463zm-9.785-9.501c-2.949 0-5.425.941-7.166 2.609s-2.725 4.041-2.725 6.857h.59c0-2.673.93-4.886 2.543-6.43 1.614-1.547 3.936-2.446 6.758-2.446zm3.423 9.501c0 2.157-1.479 3.706-3.458 3.706v.59c2.34 0 4.048-1.85 4.048-4.296zm-3.458 3.706c-1.041 0-1.908-.378-2.516-1.022-.61-.646-.978-1.58-.978-2.72h-.59c0 1.269.411 2.354 1.139 3.125s1.755 1.208 2.945 1.208zm-3.494-3.741c0-1.121.368-2.045.977-2.687s1.476-1.02 2.517-1.02v-.59c-1.19 0-2.217.436-2.945 1.203-.727.766-1.139 1.842-1.139 3.094zm3.494-3.706c1.02 0 1.878.384 2.484 1.034.607.652.974 1.586.974 2.707h.59c0-1.251-.411-2.335-1.132-3.109-.723-.775-1.74-1.223-2.916-1.223zm23.723 9.725.294-.029-.106-1.058-.455.961zm.177 1.027-.288.064.002.008.002.006zm-.247-13.81-.241.17.535.759v-.929zm0 4.816h.294v-.068l-.029-.06zm-5.1 11.485c2.489 0 4.468-1.342 5.437-3.392l-.534-.252c-.872 1.846-2.646 3.054-4.903 3.054zm4.877-3.488c.037.372.111.74.182 1.061l.576-.128a9 9 0 0 1-.171-.992zm.186 1.076c.212.772.618 1.309 1.182 1.645.555.33 1.235.448 1.97.448v-.59c-.681 0-1.24-.111-1.668-.366-.418-.248-.738-.65-.915-1.294zm3.152 2.093h.673v-.59h-.673zm.673 0c.928 0 1.768-.223 2.375-.814.608-.593.93-1.506.93-2.774h-.59c0 1.175-.298 1.909-.752 2.351-.455.445-1.12.647-1.963.647zm3.305-3.588V5.46h-.59v16.643zm0-16.643c0-2.123-.572-3.503-1.449-4.35-.873-.845-2.002-1.115-3.024-1.115v.59c.926 0 1.885.245 2.614.949.726.702 1.269 1.906 1.269 3.926zm-4.473-5.465c-.726 0-1.413.14-1.923.313a3.3 3.3 0 0 0-.637.284 1 1 0 0 0-.218.169.45.45 0 0 0-.138.308h.59c0 .086-.047.122-.025.1a.5.5 0 0 1 .1-.074c.113-.07.289-.151.518-.229a5.6 5.6 0 0 1 1.733-.28zm-2.916 1.074v8.64h.59V1.07zm.536 8.47c-1.088-1.539-3.024-2.532-5.304-2.532v.59c2.11 0 3.857.918 4.823 2.283zm-5.304-2.532c-2.502 0-4.587.915-6.043 2.574-1.452 1.655-2.255 4.023-2.255 6.892h.59c0-2.762.773-4.98 2.109-6.502 1.333-1.52 3.249-2.374 5.599-2.374zm-8.298 9.466c0 2.782.813 5.165 2.262 6.858 1.452 1.696 3.527 2.679 6 2.679v-.59c-2.306 0-4.215-.912-5.552-2.473-1.34-1.566-2.12-3.804-2.12-6.474zm13.066.885c0 .883-.308 1.572-.813 2.041-.507.472-1.236.745-2.114.745v.59c.999 0 1.881-.312 2.516-.903.637-.593 1.001-1.444 1.001-2.473zm-2.927 2.786c-.926 0-1.693-.364-2.233-.987-.543-.628-.871-1.537-.871-2.649h-.59c0 1.226.362 2.281 1.015 3.035.655.757 1.587 1.19 2.679 1.19zm-3.104-3.636c0-1.167.329-2.073.88-2.684.547-.607 1.34-.951 2.33-.951v-.59c-1.134 0-2.095.399-2.768 1.146-.671.744-1.032 1.803-1.032 3.08zm3.21-3.635c1.366 0 2.33.706 2.851 1.781l.531-.258c-.612-1.262-1.773-2.113-3.382-2.113zm2.821 1.652v2.833h.59v-2.833zm10.421 9.915.149-.255-.005-.003zm7.896-10.127-.067.287h.003zm4.179-.319.209-.209-.003-.002zm1.345-4.285-.255.149.004.005.003.006zm-8.533 8.924.065-.288-.005-.001zm-4.993.495-.209.21.005.004.005.005zm-.043 5.567c1.342.782 3.422 1.209 6.239 1.209v-.59c-2.777 0-4.733-.424-5.942-1.129zm6.239 1.209c2.725 0 4.848-.546 6.299-1.597 1.465-1.06 2.212-2.614 2.212-4.541h-.591c0 1.756-.669 3.124-1.967 4.063-1.311.95-3.294 1.484-5.953 1.484zm8.511-6.138c0-2.215-1.12-3.542-2.514-4.362-1.372-.807-3.025-1.134-4.126-1.38l-.129.577c1.129.25 2.681.561 3.956 1.312 1.253.737 2.222 1.89 2.222 3.853zm-6.637-5.74c-.926-.218-1.644-.353-2.15-.535-.249-.09-.411-.18-.507-.273a.37.37 0 0 1-.126-.286h-.589c0 .289.111.526.307.713.185.176.437.3.715.4.548.199 1.335.348 2.215.555zm-2.783-1.094c0-.252.117-.453.387-.607.287-.163.742-.267 1.372-.267v-.59c-.68 0-1.251.11-1.664.344-.429.245-.684.628-.684 1.12zm1.759-.874c1.715 0 3.698.95 4.929 2.148l.412-.423c-1.319-1.282-3.444-2.315-5.341-2.315zm4.926 2.145a.32.32 0 0 0 .184.09.4.4 0 0 0 .112-.003.6.6 0 0 0 .139-.044c.08-.035.172-.09.267-.155a4 4 0 0 0 .667-.588c.463-.505.941-1.264.941-2.165h-.59c0 .693-.372 1.315-.786 1.766-.204.223-.41.394-.565.5a1 1 0 0 1-.171.102c-.018.008-.017.005-.001.002a.2.2 0 0 1 .066 0c.033.004.097.02.155.077zm2.31-2.865c0-.652-.155-1.24-.507-1.788l-.497.319c.285.444.414.918.414 1.47zm-.5-1.777c-.49-.842-1.365-1.47-2.571-1.888s-2.765-.631-4.661-.631v.59c1.858 0 3.345.21 4.467.6 1.122.387 1.858.945 2.254 1.626zm-7.232-2.52c-2.501 0-4.51.576-5.902 1.637-1.4 1.068-2.147 2.608-2.147 4.466h.59c0-1.683.669-3.046 1.916-3.997 1.255-.957 3.123-1.515 5.543-1.515zm-8.049 6.103c0 2.259 1.066 3.605 2.416 4.43 1.326.81 2.929 1.12 4.015 1.348l.121-.578c-1.11-.233-2.605-.526-3.828-1.273-1.2-.733-2.134-1.901-2.134-3.927zm6.425 5.776c.866.199 1.53.343 1.986.537.225.096.371.194.459.293a.47.47 0 0 1 .124.335h.59a1.06 1.06 0 0 0-.273-.727c-.17-.192-.405-.331-.668-.443-.517-.222-1.251-.379-2.086-.57zm2.569 1.165c0 .224-.106.407-.385.552-.298.154-.774.25-1.445.25v.59c.71 0 1.297-.099 1.716-.316.438-.227.704-.592.704-1.076zm-1.83.802c-2.264 0-4.317-.929-5.467-1.977l-.397.436c1.258 1.148 3.454 2.131 5.864 2.131zm-5.457-1.967a.35.35 0 0 0-.26-.099.5.5 0 0 0-.158.033c-.087.03-.179.082-.269.143a3.2 3.2 0 0 0-.611.553c-.418.479-.834 1.2-.834 2.057h.59c0-.665.327-1.254.689-1.67a2.6 2.6 0 0 1 .495-.45.7.7 0 0 1 .139-.077c.012-.005.003 0-.021.001-.019 0-.103 0-.177-.074zm-2.132 2.687c0 .647.143 1.241.458 1.767q.471.789 1.428 1.324l.288-.516c-.566-.316-.958-.69-1.21-1.11q-.376-.631-.374-1.465zm17.504-13.691c.984 0 1.666-.702 1.666-1.671 0-.975-.677-1.667-1.666-1.667-.984 0-1.667.702-1.667 1.672 0 .974.678 1.666 1.667 1.666m.005-.331c-.787 0-1.326-.56-1.326-1.34 0-.777.529-1.336 1.321-1.336.776 0 1.32.56 1.32 1.336 0 .78-.534 1.34-1.315 1.34m.504-.435c.178 0 .361-.159.331-.198l-.356-.51a1 1 0 0 0 .089-.044.51.51 0 0 0 .257-.45c0-.396-.257-.584-.761-.584h-.534c-.188 0-.292.11-.292.317v1.122c0 .203.084.332.242.332h.079c.164 0 .253-.094.253-.267v-.292h.128l.238.356c.098.163.217.218.326.218m-.702-.97V5.8h.212c.159 0 .238.059.238.187 0 .124-.074.193-.228.193z"/></g><defs><clipPath id="a"><path fill="#fff" d="M0 0h180v27.692H0z"/></clipPath></defs></svg>