<svg xmlns="http://www.w3.org/2000/svg" width="62" height="34" fill="none" viewBox="0 0 62 34"><g fill="#fff" clip-path="url(#a)"><path d="M48.19 10.045c-.135-.427-.176-.458-.637-.38q-.735.128-1.445.359a3.37 3.37 0 0 0-1.754 1.178 2.8 2.8 0 0 0-.526 1.867 2.9 2.9 0 0 1-.205 1.516.04.04 0 0 0 .023.056.04.04 0 0 0 .022.001l.5-.14 2.324-.651s2.671-.687 1.699-3.806m-31.149 13.35c-.834-.387-1.804-1.667-2.316-2.405l-3.338-5.302a4.95 4.95 0 0 0-2.575-2.115c8.052-1.901 8.204-11.618-2.553-11.805l-5.653-.03H.06v17.626c0 2.453 1.61 4.108 4.072 4.108h.122v-9.598h1.184l4.59 7.451a4.6 4.6 0 0 0 1.632 1.553 4.6 4.6 0 0 0 2.166.593h3.198a.044.044 0 0 0 .031-.056zM5.408 13.113H4.254V5.846c0-1.442-.578-2.607-1.55-3.343h2.704c6.99 0 6.108 10.61 0 10.61"/><path d="M23.561 7.757c-1.52 0-2.523.736-3.13 1.809V3.895C20.43 1.565 18.88 0 16.57 0h-.275v19.593c0 2.33 1.55 3.893 3.86 3.893h.274v-9.689c0-2.973 1.307-4.905 2.492-4.905.973 0 1.854 1.289 1.854 4.378v6.262c0 2.393 1.58 3.956 3.92 3.956h.212v-8.616c0-2.117-.037-7.115-5.347-7.115"/><path d="M41.283 9.413c-1.123-1.256-2.158-1.748-3.828-1.748-10.028 0-9.998 16.007-.03 16.007 2.795 0 4.766-1.7 4.781-3.654 0-.603-.187-.935-.4-.788a.3.3 0 0 0-.097.182c-.274 1.748-1.669 2.327-3.1 2.327-1.975 0-3.16-1.41-3.738-3.31L37 17.783c4.466-1.319 6.656-5.641 4.284-8.37m-6.351 8.034-.277.12c-.791-3.894.52-9.043 2.77-9.043.82 0 1.215 1.318 1.367 2.883.213 2.36-1.399 4.875-3.86 6.04M57.273 0h-.272v19.593c0 2.33 1.549 3.893 3.859 3.893h.273V3.895c0-2.33-1.555-3.895-3.86-3.895m-1.878 11.408q-.15-.555-.384-1.08l-.033-.075-.055-.113a4 4 0 0 0-.119-.23 5 5 0 0 0-.31-.5l-.022-.03a4 4 0 0 0-.159-.205c-.055-.066-.071-.086-.11-.128l-.028-.034a3.96 3.96 0 0 0-1.94-1.209 8.6 8.6 0 0 0-2.726-.294c-1.78.097-3.374.704-4.576 2.106-.045.054-.179.217-.144.261s.094-.017.272-.121a7.5 7.5 0 0 1 3.894-.958c.834.02 1.785.276 2.353 1.802.037.099.062.202.09.304v.02q.14.463.192.942c.153 3.159-8.63 3.22-8.63 7.971 0 2.33 2.492 3.895 5.045 3.895 1.793 0 3.13-1.165 3.98-2.576.548 1.44 1.855 2.33 3.587 2.33h.274V15.85c0-1.684-.124-3.142-.431-4.336-.008-.037-.008-.065-.02-.107m-3.648 8.461c-.517 1.195-1.369 2.33-2.462 2.33-1.033 0-1.884-.798-1.884-2.357 0-2.911 3.338-3.955 4.376-6.062.03 1.319-.062 2.577-.062 3.434v2.24q-.006.209.032.415M0 32.734c0-.039 0-.063.062-.074l.489-.07c.045 0 .073 0 .073.053 0 .505.402.773.948.773.476 0 .771-.23.771-.55 0-.407-.42-.533-1.168-.779-.686-.234-1.043-.572-1.043-1.179 0-.651.567-1.03 1.277-1.03.776 0 1.36.43 1.36 1.133 0 .04-.01.052-.05.064l-.501.07c-.04 0-.063-.013-.063-.065-.012-.4-.334-.618-.76-.618-.352 0-.619.184-.619.458 0 .315.25.475.915.682.963.291 1.286.692 1.286 1.293 0 .647-.56 1.1-1.407 1.1C.766 34 0 33.657 0 32.734m9.09-2.832h.532a.05.05 0 0 1 .054.034l.003.023v2.266c0 .766-.312 1.775-1.696 1.775s-1.708-1.01-1.708-1.775V29.96a.054.054 0 0 1 .056-.057h.534a.05.05 0 0 1 .054.034l.003.023v2.266c0 .807.38 1.19 1.061 1.19s1.038-.383 1.05-1.19V29.96a.054.054 0 0 1 .057-.057m3.983 4.021V29.96a.06.06 0 0 1 .016-.042.05.05 0 0 1 .041-.016h1.475c.913 0 1.606.561 1.606 1.477s-.693 1.47-1.605 1.47h-.835a.055.055 0 0 0-.057.058v1.018q0 .012-.003.023a.054.054 0 0 1-.053.035h-.528a.05.05 0 0 1-.053-.035l-.004-.023m1.476-1.658c.52 0 1.014-.196 1.014-.888s-.5-.894-1.014-.894h-.773a.055.055 0 0 0-.057.057v1.668q0 .011.004.022a.06.06 0 0 0 .031.03l.022.005zm7.313 1.189v.468a.054.054 0 0 1-.034.054l-.022.003h-2.32a.05.05 0 0 1-.053-.034l-.004-.023V29.96a.06.06 0 0 1 .016-.042.05.05 0 0 1 .041-.016h2.268a.05.05 0 0 1 .053.035l.004.023v.468a.06.06 0 0 1-.016.041.05.05 0 0 1-.041.016h-1.622a.055.055 0 0 0-.057.057v1.095a.06.06 0 0 0 .035.053l.022.004H21.3q.012-.001.022.004a.05.05 0 0 1 .031.031l.004.022v.469a.06.06 0 0 1-.016.041.05.05 0 0 1-.041.016h-1.168a.055.055 0 0 0-.057.057v1.01a.06.06 0 0 0 .035.054l.022.004h1.679a.05.05 0 0 1 .048.034zm3.287.467V29.96a.054.054 0 0 1 .056-.057h1.566c.81 0 1.423.549 1.423 1.379a1.36 1.36 0 0 1-.714 1.207.06.06 0 0 0-.026.037.06.06 0 0 0 .01.044l.697 1.347c.023.039 0 .067-.04.067h-.584a.07.07 0 0 1-.067-.038l-.631-1.248a.08.08 0 0 0-.068-.04h-.92a.05.05 0 0 0-.053.034l-.004.023v1.212a.05.05 0 0 1-.015.041.05.05 0 0 1-.041.016H25.2a.05.05 0 0 1-.05-.037l-.002-.022m1.627-1.852a.77.77 0 0 0 .716-.488.8.8 0 0 0 .056-.302c0-.55-.397-.796-.846-.796h-.85a.055.055 0 0 0-.058.057v1.472a.06.06 0 0 0 .035.053l.022.004zm5.585.387v1.464q.001.012-.004.023a.06.06 0 0 1-.03.031l-.023.003h-.532a.05.05 0 0 1-.054-.034l-.003-.023V29.96a.05.05 0 0 1 .016-.042.05.05 0 0 1 .041-.016h2.258a.05.05 0 0 1 .053.035l.003.023v.468a.06.06 0 0 1-.015.041.05.05 0 0 1-.041.016h-1.613a.055.055 0 0 0-.056.057v1.22a.05.05 0 0 0 .015.041.05.05 0 0 0 .041.016h1.055a.05.05 0 0 1 .041.015.05.05 0 0 1 .016.042v.47a.06.06 0 0 1-.016.041.05.05 0 0 1-.04.016h-1.056a.055.055 0 0 0-.056.057m8.663-.522c0 1.18-.823 2.061-1.993 2.061s-2.002-.882-2.002-2.06c0-1.18.834-2.057 2.002-2.057 1.169 0 1.993.876 1.993 2.056m-3.338 0c0 .921.591 1.477 1.35 1.477s1.346-.556 1.346-1.477c0-.92-.59-1.471-1.346-1.471s-1.355.555-1.355 1.471zm10.505.002c0 1.178-.823 2.06-1.992 2.06-1.168 0-2.002-.882-2.002-2.06 0-1.18.834-2.057 2.002-2.057 1.169 0 1.991.876 1.991 2.056m-3.338 0c0 .92.59 1.476 1.351 1.476s1.344-.556 1.344-1.477c0-.92-.59-1.471-1.344-1.471s-1.357.555-1.357 1.471zm8.089 2.043h-1.402a.05.05 0 0 1-.053-.035l-.004-.023V29.96a.06.06 0 0 1 .016-.042.05.05 0 0 1 .041-.016h1.402c1.168 0 2.104.876 2.104 2.043s-.936 2.037-2.104 2.037m.033-3.498h-.788a.05.05 0 0 0-.053.035l-.003.023v2.798a.054.054 0 0 0 .034.054l.023.003h.787c.375-.013.73-.172.99-.444a1.465 1.465 0 0 0 0-2.027 1.44 1.44 0 0 0-.99-.443zm5.244 2.25c0-.039 0-.063.062-.074l.488-.07c.045 0 .074 0 .074.053 0 .505.402.773.948.773.475 0 .77-.23.77-.55 0-.407-.418-.533-1.167-.779-.686-.234-1.043-.572-1.043-1.179 0-.651.567-1.03 1.276-1.03.776 0 1.362.43 1.362 1.133 0 .04-.012.052-.052.064l-.5.07c-.04 0-.064-.013-.064-.065-.01-.4-.334-.618-.76-.618-.351 0-.618.184-.618.458 0 .315.25.475.914.682.963.291 1.287.692 1.287 1.293 0 .647-.56 1.1-1.407 1.1-.804.005-1.57-.338-1.57-1.261"/></g><defs><clipPath id="a"><path fill="#fff" d="M0 0h61.2v34H0z"/></clipPath></defs></svg>