<svg xmlns="http://www.w3.org/2000/svg" width="203" height="37" fill="none" viewBox="0 0 203 37"><path fill="#fff" d="M199.316 29.21c2.05 0 3.684-1.635 3.684-3.649 0-2.03-1.634-3.648-3.684-3.648-2.034 0-3.685 1.618-3.685 3.648 0 2.014 1.651 3.649 3.685 3.649m.041-.656c-1.696 0-3.064-1.371-3.064-3.034 0-1.696 1.368-3.033 3.064-3.033s3.063 1.337 3.063 3.033c0 1.663-1.367 3.034-3.063 3.034m-.841-.902V26h.684l1.106 1.652h.79l-1.141-1.669c.246 0 1.088-.31 1.088-1.239 0-.774-.72-1.273-1.439-1.273h-1.737v4.181zm1.078-2.213h-1.065v-1.476h1.065c.361 0 .756.28.756.755 0 .44-.395.72-.756.72M73.803 11.421c-5.462 0-9.891 4.137-9.891 9.24s4.43 9.24 9.89 9.24c5.462 0 9.892-4.137 9.892-9.248s-4.427-9.232-9.891-9.232m.014 13.567c-1.736 0-3.144-1.924-3.144-4.3s1.408-4.302 3.144-4.302 3.144 1.925 3.144 4.301-1.408 4.301-3.144 4.301m46.088-13.567c-5.462 0-9.891 4.137-9.891 9.24s4.429 9.24 9.891 9.24 9.891-4.137 9.891-9.248-4.427-9.232-9.891-9.232m.014 13.567c-1.736 0-3.144-1.924-3.144-4.3s1.408-4.302 3.144-4.302 3.144 1.925 3.144 4.301-1.408 4.301-3.144 4.301m19.17-13.46c-4.007.504-7.262 4.009-7.262 8.337 0 5.363 4.343 10.16 11.685 7.805 0 0 .891 1.487-.946 2.496-1.622.892-5.392.608-7.453-.457-.584-.302-.885-.369-1.344.192-.74.902-1.475 2.734 1.233 4.725 3.895 2.868 14.857 1.116 14.968-6.212v-12.32s.042-.934-.278-1.38c-.003 0-2.081-4.259-10.603-3.186m4.59 11.496s-1.432 1.144-3.756.265c-2.373-.894-2.582-5.883.306-6.796 2.059-.73 3.45.318 3.45.318zm16.11-11.496c-4.007.504-7.262 4.009-7.262 8.337 0 5.363 4.343 10.16 11.686 7.805 0 0 .89 1.487-.946 2.496-1.622.892-5.392.608-7.454-.457-.584-.302-.885-.369-1.344.192-.74.902-1.475 2.734 1.233 4.725 3.895 2.868 14.857 1.116 14.968-6.212v-12.32s.042-.934-.278-1.38c-.003 0-2.081-4.259-10.603-3.186m4.59 11.496s-1.432 1.144-3.756.265c-2.373-.894-2.582-5.883.306-6.796 2.059-.73 3.45.318 3.45.318z"/><path fill="#fff" fill-rule="evenodd" d="M188.446 11.7c-2.629.12-3.088.478-3.339 2.47-.25 1.99-1.627 7.566-2.629 9.239l-2.671-8.403s-.751-3.638-3.714-3.31c-1.67.182-2.538.506-2.972.75a.635.635 0 0 0-.331.73c.473 2.318 3.033 13.998 6.639 14.895 0 0-2.104 2.525-4.079 3.932a.57.57 0 0 0-.278.35.54.54 0 0 0 .067.433c.667 1.328 2.918 4.713 7.459 1.259 5.383-4.34 8.18-15.412 8.806-18.16s-.315-4.304-2.958-4.185" clip-rule="evenodd"/><path fill="#fff" d="M94.086 7.221c-6.572.377-7.332 2.015-7.332 2.015v17.79s.751 2.23 4.382 2.468c3.631.24 16.318 1.832 16.652-10.474.29-11.111-9.215-12.117-13.702-11.799m-.557 17.184V12.422c5.718-.677 7.512 2.568 7.512 6.126 0 3.557-2.657 7.17-7.498 5.857z"/><path fill="#fff" fill-rule="evenodd" d="M59.572 16.2c-1.264-.145-5.593-.055-7.21-.015a1.06 1.06 0 0 0-.917.502 3.98 3.98 0 0 0 0 4.003c.197.367.395.43.798.43h2.643v3.367s-5.03 1.235-7.159-2.07c-2.128-3.306-1.438-8.423 2.683-9.678 2.918-.89 5.13-.492 6.621.252.599.297 1.979.775 2.468.14.515-.7.792-1.534.793-2.389l-.02-.117c-.458-2.92-5.196-3.231-8.513-3.231-6.708 0-12.086 4.285-11.964 11.435.123 6.999 5.253 11.088 11.964 11.088 3.82 0 9.46-.656 9.46-4.19v-7.933c-.07-.843-.766-1.515-1.647-1.593" clip-rule="evenodd"/><path fill="#fff" d="M9.845 7.978C7.323 9.14 7.1 12.171 8.168 14.434c.847 1.793 3.937 4.543 6.244 3.48 1.493-.688 2.791-2.52.514-7.346-1.001-2.12-3.424-3.353-5.08-2.59m8.456-3.895c-2.745 1.264-2.955 4.579-2.052 6.49.716 1.519 3.386 5.569 6.153 4.294 2.728-1.257 2.753-5.006 1.392-7.889-1.374-2.911-4.073-3.55-5.493-2.895M7.574 19.163c-1.809.834-2.445 4.218-1.27 6.705.836 1.773 3.439 3.703 5.608 2.703 2.188-1.008 2.2-4.34.957-6.976-.955-2.023-3.58-3.222-5.295-2.432m20.81-9.586c-1.4.68-2.277 2.553-2.468 5.394-.134 1.977.4 3.561 1.488 4.463.762.632 1.74.872 2.744.657.228-.048.448-.128.658-.224 1.697-.782 2.638-3.087 2.442-6.016-.105-1.516-.967-3.104-2.132-3.949-.69-.501-1.41-.685-2.092-.541a2.8 2.8 0 0 0-.64.216m-9.11 9.899c-1.734.8-2.245 2.542-2.776 4.388-.174.61-.348 1.235-.581 1.872-.28.77-.636 1.424-.936 1.995-.714 1.356-1.322 2.533-.532 4.206.714 1.513 2.63 2.491 4.91 1.441 1.258-.58 2.044-1.263 2.804-1.925.674-.588 1.312-1.14 2.25-1.572 1.023-.47 2.023-.736 3-.986.955-.244 1.956-.485 2.924-.93 2.552-1.177 3.367-2.79 2.434-4.766-.713-1.51-2.331-1.458-3.763-1.415-.946.028-1.921.054-2.7-.3a21 21 0 0 1-1.841-.974c-1.685-.984-3.262-1.923-5.192-1.034"/></svg>