<svg xmlns="http://www.w3.org/2000/svg" width="129" height="34" fill="none" viewBox="0 0 129 34"><path fill="#fff" d="M63.778 26.65c-.097 0-.141-.036-.141-.142 0-.08.035-.218.062-.298l.875-3.15h-.097l-1.256.228v.141s.168-.026.307-.026c.262 0 .342.08.342.253 0 .115-.062.29-.183.729l-.457 1.657c-.036.132-.124.466-.124.604 0 .263.124.395.342.395.44 0 .955-.604 1.212-.982l-.115-.08c-.325.431-.57.667-.773.667m10.195-.905-1.492-2.15 2.615-1.745c.605-.413.773-.493 1.203-.578l.036-.142h-1.834l-.045.142c.28.017.413.07.413.236 0 .218-.289.43-.817.772l-2.026 1.36-.008-.01.457-1.621c.15-.546.386-.737 1.017-.737l.035-.142h-2.247l-.035.142c.483 0 .702.123.702.404 0 .183-.089.536-.16.772l-1.017 3.598c-.165.569-.422.755-1.008.755l-.045.141h2.239l.044-.141c-.52 0-.72-.142-.72-.413 0-.16.098-.501.142-.658l.542-1.931 1.316 1.896c.159.227.342.475.342.702 0 .289-.183.395-.631.404l-.036.141h2.457l.026-.141c-.728-.053-.896-.227-1.465-1.053m-18.13-2.87.43-1.878h-.123c-.124.2-.236.29-.431.29-.124 0-.227-.054-.342-.098-.333-.133-.552-.192-.911-.192-1.947 0-3.607 1.782-3.607 3.754 0 1.422.867 2.318 2.247 2.318 1.106 0 1.861-.528 2.421-1.457h-.182c-.493.684-1.133 1.15-1.976 1.15-1.186 0-1.852-.772-1.852-1.913 0-1.666 1.168-3.625 2.922-3.625.675 0 1.422.387 1.274 1.649h.133zm2.904 3.772c-.088 0-.123-.062-.123-.123 0-.124.182-.8.324-1.257.342-1.14.457-1.439.457-1.701 0-.28-.174-.51-.466-.51-.746 0-1.625 1.238-2.114 2.043l-.018-.017 1.239-4.238h-.098l-1.253.227v.142c.089-.018.21-.027.333-.027.236 0 .316.08.316.254 0 .115-.07.315-.183.72l-1.386 4.773h.492l.219-.684c.289-.937 1.563-2.807 2.167-2.807.168 0 .227.088.227.262 0 .16-.115.466-.395 1.413-.289.99-.386 1.342-.386 1.536 0 .263.141.386.35.386.378 0 .88-.586 1.107-.973l-.115-.08c-.254.396-.537.658-.694.658m4.002-3.588c-.507 0-1.43 1.315-1.878 2.06l-.018-.017.596-2.043h-.098l-1.256.227v.141s.15-.026.316-.026c.253 0 .333.088.333.253 0 .115-.062.29-.183.729l-.737 2.553h.492l.15-.457c.431-1.35 1.581-2.834 1.87-2.834.21 0 .071.378.298.378.192 0 .36-.29.36-.658 0-.194-.097-.306-.245-.306m4.872.244c-.21 0-.404-.244-.88-.244-.612 0-1.043.421-1.043.937 0 .835 1.186 1.44 1.186 2.203 0 .413-.316.675-.764.675-.631 0-.973-.492-.973-1.23h-.124l-.263 1.396h.115c.08-.169.174-.228.307-.228.2 0 .422.228.955.228.65 0 1.239-.396 1.239-1.097 0-.826-1.212-1.448-1.212-2.15 0-.29.236-.555.613-.555.56 0 .861.57.853 1.133h.123l.263-1.315h-.106c-.08.183-.142.245-.29.245m11.26.061c0-.194-.098-.306-.245-.306-.507 0-1.43 1.315-1.879 2.06l-.017-.017.595-2.043h-.097l-1.256.227v.141s.15-.026.315-.026c.254 0 .334.088.334.253 0 .115-.062.29-.183.729l-.737 2.553h.492l.15-.457c.43-1.35 1.581-2.834 1.87-2.834.212 0 .07.378.298.378.192 0 .36-.289.36-.658m11.872-.132c.271 0 .457.168.457.448 0 .587-.728 1.28-2.23 1.457.133-.746.92-1.905 1.773-1.905m.964.466c0-.508-.457-.64-.861-.64-1.22 0-2.5 1.412-2.5 2.7 0 .756.483 1.28 1.158 1.28.764 0 1.44-.492 1.95-1.008l-.089-.106c-.492.404-.964.737-1.545.737s-.93-.342-.93-.982c0-.124.027-.253.036-.36 1.35-.132 2.781-.692 2.781-1.624m3.07-.64c-.51 0-1.43 1.315-1.879 2.061l-.017-.018.595-2.043h-.097l-1.256.227v.141s.15-.026.315-.026c.254 0 .334.088.334.253 0 .115-.062.29-.183.729l-.737 2.553h.492l.15-.457c.431-1.35 1.581-2.833 1.87-2.833.21 0 .07.377.298.377.192 0 .36-.289.36-.658 0-.194-.098-.306-.245-.306m-13.736.177c.271 0 .457.168.457.448 0 .587-.728 1.28-2.23 1.457.133-.746.92-1.905 1.773-1.905m-.92 3.43c-.596 0-.929-.343-.929-.983 0-.124.027-.253.035-.36 1.351-.132 2.781-.692 2.781-1.624 0-.508-.457-.64-.86-.64-1.222 0-2.501 1.412-2.501 2.7 0 .756.483 1.28 1.158 1.28.764 0 1.44-.492 1.95-1.008l-.089-.106c-.492.404-.964.737-1.545.737m4.904-3.606c-.08.183-.142.245-.29.245-.208 0-.403-.245-.875-.245-.613 0-1.044.422-1.044.938 0 .834 1.186 1.439 1.186 2.202 0 .413-.316.676-.764.676-.631 0-.973-.493-.973-1.23h-.124l-.263 1.395h.115c.08-.168.174-.227.307-.227.2 0 .422.227.956.227.648 0 1.238-.395 1.238-1.097 0-.826-1.212-1.448-1.212-2.15 0-.289.236-.554.614-.554.56 0 .86.569.852 1.132h.124l.262-1.315h-.106zm2.798.245c-.209 0-.404-.245-.878-.245-.614 0-1.044.422-1.044.938 0 .834 1.185 1.439 1.185 2.202 0 .413-.315.676-.764.676-.63 0-.973-.493-.973-1.23h-.124l-.262 1.395h.115c.08-.168.177-.227.307-.227.2 0 .421.227.955.227.649 0 1.239-.395 1.239-1.097 0-.826-1.212-1.448-1.212-2.15 0-.289.236-.554.613-.554.56 0 .861.569.852 1.132h.124l.263-1.315h-.107c-.08.183-.141.245-.289.245m-39.724-.245a.36.36 0 0 0-.36.369c0 .341.386.36.386.604 0 .386-.799 1.395-1.633 2.474l-.192-2.23c-.044-.524-.097-.843-.298-1.202l-1.176.297.026.124s.16-.026.395-.026c.36 0 .493.28.555.964l.227 2.624c-.342.457-1.035 1.342-1.271 1.342-.133 0-.089-.324-.333-.324-.21 0-.396.218-.396.421 0 .183.115.334.298.334.493 0 1.018-.52 2.088-1.887 1.274-1.622 2.097-2.625 2.097-3.318 0-.298-.142-.57-.413-.57m16.484-.92a.347.347 0 0 0 .009-.692.356.356 0 0 0-.35.35c0 .195.158.343.341.343m-22.405 4.722c-.28 0-.587-.142-.8-.333l.537-1.834c.183-.631.71-1.257 1.377-1.257.475 0 .764.28.764.888 0 1.421-.947 2.536-1.878 2.536m1.403-3.798c-.604 0-1.053.306-1.395.764l-.017-.01.86-2.966h-.097l-1.238.236v.142c.097-.018.227-.027.377-.027.195 0 .272.08.272.218 0 .124-.053.316-.183.755l-1.28 4.38c.404.297.781.492 1.256.492 1.342 0 2.474-1.475 2.474-2.825 0-.764-.421-1.16-1.026-1.16M62.401 12.03v.988c0 .486-.646 1.356-1.988 1.356-.893 0-1.356-.395-1.356-1.026 0-1.091 1.33-1.315 2.934-1.315h.407zm-.395-.935c-2.014 0-2.96.25-3.542.7-.525.394-.775.934-.775 1.565 0 1 .604 2.094 2.368 2.094 1.04 0 1.922-.384 2.382-1.118h.012v.973h1.33v-4.131c0-2.291-1.117-2.976-2.83-2.976-2.304 0-2.897 1.224-2.923 2.212h1.356c.027-.487.369-1.065 1.54-1.065 1.079 0 1.46.54 1.46 1.357v.395h-.381zM109.654 9.7V8.396h-1.315v6.91h1.383v-3.318c0-1.433.92-2.33 2.17-2.33h.263V8.225c-.513 0-.897.053-1.277.224-.513.236-.947.71-1.224 1.25m7.493 3.318c0 .486-.646 1.356-1.987 1.356-.897 0-1.357-.395-1.357-1.026 0-1.091 1.33-1.315 2.934-1.315h.407v.988zM115.699 8.2c-2.303 0-2.895 1.224-2.922 2.212h1.356c.027-.487.369-1.065 1.54-1.065 1.079 0 1.459.54 1.459 1.357v.395h-.38c-2.014 0-2.961.25-3.542.699-.527.395-.775.935-.775 1.566 0 1 .604 2.094 2.368 2.094 1.041 0 1.923-.384 2.383-1.118h.011v.973h1.33v-4.131c0-2.292-1.117-2.976-2.831-2.976m10.366 3.094c-1.33-.316-1.961-.487-1.961-1.118 0-.737.775-.87 1.433-.87.619 0 1.33.236 1.409 1.197h1.357c-.053-1.368-.961-2.317-2.672-2.317-1.527 0-2.869.554-2.842 2.052.026 1.421 1.238 1.775 2.922 2.197.672.17 1.409.395 1.409 1.04 0 .647-.486.92-1.238.92-1.186 0-1.87-.33-2.094-1.356h-1.342c.118 1.38 1.092 2.474 3.368 2.474 1.699 0 2.645-.672 2.645-2.132s-1.303-1.843-2.394-2.093m-52.945 2.132c0 1.315.54 2.014 2.144 2.014.277 0 .525-.012.829-.039v-1.17a7 7 0 0 1-.448.012c-.844 0-1.145-.251-1.145-1.133V9.596h1.501V8.4h-1.5V6.621h-1.316v.749c0 .817-.183 1.159-.973 1.159v1.064h.908zm-19.94-4.055c1.212 0 2 .817 2 2.04v.726c0 1.33-.776 2.197-1.974 2.197s-1.999-1-1.999-2.512.79-2.448 1.973-2.448M52.9 15.52c.893 0 1.855-.433 2.315-1.064v.855h1.341V5.309h-1.383v4.013c-.525-.684-1.368-1.132-2.211-1.132-1.882 0-3.147 1.46-3.147 3.644s1.239 3.686 3.079 3.686m28.822-7.658 4.74 7.449h1.474V5.309h-1.422v7.779l-4.803-7.78H80.31v10.003h1.41V7.862zm12.05 5.158c0 .486-.646 1.356-1.988 1.356-.897 0-1.357-.395-1.357-1.026 0-1.091 1.33-1.315 2.935-1.315h.407v.988zm-1.448-4.816c-2.303 0-2.896 1.224-2.923 2.212h1.357c.026-.487.368-1.065 1.539-1.065 1.08 0 1.46.54 1.46 1.357v.395h-.38c-2.015 0-2.961.25-3.542.699-.528.395-.776.935-.776 1.566 0 1 .605 2.093 2.368 2.093 1.041 0 1.923-.383 2.383-1.117h.015v.973h1.33v-4.131c0-2.292-1.118-2.976-2.829-2.976m-49.1 2.934 1.607-4.158 1.604 4.158zm.843-5.83-3.96 10.003h1.554L42.72 12.5h4.211l1.065 2.816h1.54l-3.95-10.003H44.06zm54.224 7.806V9.605h1.501V8.408h-1.5V6.63H96.97v.749c0 .816-.186 1.159-.973 1.159v1.064h.908v3.83c0 1.316.54 2.015 2.147 2.015.277 0 .528-.012.829-.039v-1.17c-.198.011-.316.011-.449.011-.843 0-1.144-.25-1.144-1.132m7.254-1c0 1.41-.843 2.239-1.987 2.239-.737 0-1.448-.357-1.448-1.908v-4.04h-1.383v4.199c0 1.973.908 2.922 2.462 2.922.947 0 1.802-.342 2.356-1.368v1.159h1.383V8.41h-1.383v3.71zm14.391 3.2h1.383V5.314h-1.383zm-51.352-.973c-1.212 0-2.014-.829-2.014-2.053v-.722c0-1.33.79-2.197 2-2.197 1.208 0 1.972 1 1.972 2.515s-.79 2.463-1.961 2.463m3.344-2.5c0-2.186-1.262-3.646-3.132-3.646-.843 0-1.737.449-2.264 1.133v-.92h-1.342v10.067h1.383v-4.013c.46.63 1.383 1.064 2.265 1.064 1.855 0 3.093-1.474 3.093-3.686"/><g clip-path="url(#a)"><path fill="#fff" d="M25.338 29.315 18.84 18.063h6.13v-2.125H9.03v2.125h6.13l-6.497 11.25C4.72 26.636 2.124 22.118 2.124 17 2.124 8.797 8.797 2.125 17 2.125S31.875 8.797 31.875 17c0 5.114-2.596 9.636-6.54 12.314M17 31.876c-2.33 0-4.533-.538-6.497-1.497L17 19.125l6.496 11.253A14.8 14.8 0 0 1 17 31.875M17 0C7.626 0 0 7.626 0 17s7.626 17 17 17 17-7.626 17-17S26.373 0 17 0"/></g><defs><clipPath id="a"><path fill="#fff" d="M0 0h34.001v34H0z"/></clipPath></defs></svg>