<svg width="154" height="31" viewBox="0 0 154 31" fill="none" xmlns="http://www.w3.org/2000/svg">
<path fill-rule="evenodd" clip-rule="evenodd" d="M35.7764 7.12393C35.6815 5.95099 35.3407 4.88155 34.812 3.92902C34.6493 3.64153 34.4943 3.40963 34.322 3.18539C34.1516 2.96307 33.9695 2.75224 33.7797 2.55484C33.3963 2.16003 32.9857 1.81121 32.548 1.50264C31.6688 0.89701 30.6966 0.452366 29.676 0.19938C28.6534 -0.0459405 27.5728 -0.0785221 26.5696 0.178298C26.068 0.308624 25.5935 0.507947 25.1655 0.7686C24.7394 1.02925 24.3598 1.35124 24.0345 1.70772C24.8479 1.17874 25.7678 0.881677 26.6741 0.852929C27.5824 0.814597 28.4694 1.0235 29.2731 1.38765C30.0807 1.74413 30.8128 2.25777 31.4248 2.85957C31.7327 3.15664 32.0116 3.47862 32.2498 3.81402C32.3679 3.98268 32.4744 4.15709 32.5693 4.33149C32.6661 4.5059 32.7475 4.68798 32.7998 4.8298C33.0767 5.60601 33.2239 6.42822 33.1735 7.16418C33.1232 7.90781 32.8714 8.55752 32.4783 9.12483C32.0755 9.69021 31.5042 10.1713 30.8244 10.5623C30.4913 10.7558 30.1059 10.936 29.7554 11.0816C29.6159 11.143 29.3061 11.2618 29.1472 11.3174L28.4694 11.5684C27.5611 11.9058 26.6509 12.2335 25.7368 12.5957C24.8246 12.958 23.9028 13.3259 22.95 13.784C22.0107 14.2325 20.9746 14.8458 20.0992 15.6201C19.8901 15.7945 19.6402 16.036 19.4621 16.2085L19.2084 16.4634L18.9062 16.793C18.548 17.1763 18.2168 17.5999 17.8972 18.0369C17.5758 17.5999 17.2426 17.1763 16.8844 16.793L16.5842 16.4634L16.3285 16.2085C16.1504 16.036 15.9025 15.7945 15.6914 15.6201C14.816 14.8458 13.7819 14.2325 12.8426 13.784C11.8897 13.3259 10.9679 12.958 10.0557 12.5957C9.14164 12.2335 8.22947 11.9058 7.32506 11.5684L6.64529 11.3174C6.48649 11.2618 6.17662 11.143 6.03912 11.0816C5.68665 10.936 5.30126 10.7558 4.96815 10.5623C4.28839 10.1713 3.71707 9.69021 3.31425 9.12483C2.92111 8.55752 2.66935 7.90781 2.61899 7.16418C2.57058 6.42822 2.71583 5.60601 2.99277 4.8298C3.04699 4.68798 3.1264 4.5059 3.22323 4.33149C3.31812 4.15709 3.42464 3.98268 3.54278 3.81402C3.78098 3.47862 4.05986 3.15664 4.36779 2.85957C4.98171 2.25777 5.71376 1.74413 6.52135 1.38765C7.32506 1.0235 8.21204 0.814597 9.1184 0.852929C10.0247 0.881677 10.9447 1.17874 11.76 1.70772C11.4327 1.35124 11.0531 1.02925 10.627 0.7686C10.1971 0.507947 9.72263 0.308624 9.22297 0.178298C8.21979 -0.0785221 7.13914 -0.0459405 6.11852 0.19938C5.09597 0.452366 4.12377 0.89701 3.24453 1.50264C2.80878 1.81121 2.39434 2.16003 2.01282 2.55484C1.82303 2.75224 1.64098 2.96307 1.47056 3.18539C1.2982 3.40963 1.14326 3.64153 0.980585 3.92902C0.451879 4.88155 0.111028 5.95099 0.0141957 7.12393C-0.0226007 7.70848 0.0103224 8.3122 0.134268 8.91209C0.258214 9.50814 0.480929 10.0908 0.777237 10.6274C1.36985 11.7026 2.23166 12.5689 3.14963 13.2359C3.62024 13.5751 4.07923 13.8626 4.59438 14.1251C4.89069 14.2785 5.02625 14.3436 5.31094 14.474L5.96359 14.7768L8.5587 15.9919C9.41083 16.3963 10.2513 16.8064 11.0086 17.2319C11.7794 17.6631 12.3913 18.0809 12.9297 18.608C13.0788 18.7479 13.1679 18.8495 13.3267 19.0181L13.5708 19.2845L13.7451 19.4934C14.0123 19.8001 14.2389 20.1221 14.4539 20.4402C14.8606 21.0861 15.1782 21.7454 15.3273 22.3817C15.4822 23.018 15.4861 23.6275 15.335 24.1794C15.2014 24.6912 14.9322 25.155 14.572 25.5498C14.5217 24.971 14.4577 24.3404 14.3261 23.6869C14.2195 23.1656 14.0704 22.6251 13.8438 22.0846C13.6192 21.5442 13.3209 20.9979 12.9297 20.5054C12.5443 20.0109 12.0699 19.5682 11.5528 19.2194C11.2971 19.0392 11.0241 18.8936 10.7529 18.7594L10.5496 18.6636L10.3172 18.5658L10.2049 18.5179C10.1758 18.5102 10.1545 18.4987 10.1235 18.4968C10.0557 18.5102 9.92792 18.6425 9.65872 19.066L8.66716 21.0746C8.49479 21.548 8.46574 21.7262 8.49673 21.7876C8.5161 21.8106 8.54127 21.8221 8.56451 21.8393L8.5955 21.8681L8.73107 22.0003C8.83177 22.0961 8.92086 22.1977 9.0022 22.2974C9.16681 22.4948 9.28688 22.7018 9.40308 22.9183C9.62386 23.3553 9.79622 23.8862 9.92985 24.5513C9.99376 24.8828 10.048 25.2412 10.0887 25.6284L10.2049 26.8971C10.2262 27.131 10.2513 27.3801 10.2939 27.6638C10.3366 27.9455 10.3869 28.2541 10.5225 28.6719C10.5941 28.8846 10.6851 29.1223 10.8536 29.4059C11.0221 29.6857 11.2874 30.0326 11.6941 30.3201C12.097 30.6095 12.6141 30.782 13.0266 30.8223C13.4449 30.8683 13.7722 30.8261 14.0452 30.7763L14.1246 30.7609L14.2099 30.736C15.5384 30.3623 16.7139 29.6397 17.6474 28.6815C17.7346 28.5933 17.8159 28.5013 17.8972 28.4074C17.9786 28.5013 18.0599 28.5933 18.1451 28.6815C19.0786 29.6397 20.2541 30.3623 21.5827 30.736L21.6679 30.7609L21.7473 30.7763C22.0204 30.8261 22.3477 30.8683 22.766 30.8223C23.1766 30.782 23.6956 30.6095 24.0984 30.3201C24.5051 30.0326 24.7704 29.6857 24.9389 29.4059C25.1074 29.1223 25.1984 28.8846 25.2701 28.6719C25.4076 28.2541 25.456 27.9455 25.4986 27.6638C25.5412 27.3801 25.5664 27.131 25.5877 26.8971L25.7039 25.6284C25.7446 25.2412 25.7988 24.8828 25.8627 24.5513C25.9963 23.8862 26.1687 23.3553 26.3895 22.9183C26.5057 22.7018 26.6238 22.4948 26.7903 22.2974C26.8717 22.1977 26.9588 22.0961 27.0615 22.0003L27.197 21.8681L27.228 21.8393C27.2513 21.8221 27.2745 21.8106 27.2958 21.7876C27.3249 21.7262 27.2977 21.548 27.1254 21.0746L26.1338 19.066C25.8627 18.6425 25.7368 18.5102 25.669 18.4968C25.64 18.4987 25.6167 18.5102 25.5877 18.5179L25.4754 18.5658L25.2449 18.6636L25.0396 18.7594C24.7685 18.8936 24.4954 19.0392 24.2398 19.2194C23.7227 19.5682 23.2463 20.0109 22.8628 20.5054C22.4716 20.9979 22.1734 21.5442 21.9468 22.0846C21.7221 22.6251 21.573 23.1656 21.4665 23.6869C21.3348 24.3404 21.2689 24.971 21.2205 25.5498C20.8603 25.155 20.5911 24.6912 20.4575 24.1794C20.3064 23.6275 20.3103 23.018 20.4652 22.3817C20.6144 21.7454 20.93 21.0861 21.3387 20.4402C21.5536 20.1221 21.7802 19.8001 22.0475 19.4934L22.2218 19.2845L22.4639 19.0181C22.6246 18.8495 22.7137 18.7479 22.8628 18.608C23.4012 18.0809 24.0132 17.6631 24.782 17.2319C25.5393 16.8064 26.3817 16.3963 27.2338 15.9919L29.829 14.7768L30.4835 14.474C30.7663 14.3436 30.9019 14.2785 31.1982 14.1251C31.7133 13.8626 32.1742 13.5751 32.641 13.2359C33.5609 12.5689 34.4208 11.7026 35.0153 10.6274C35.3097 10.0908 35.5343 9.50814 35.6583 8.91209C35.7822 8.3122 35.8171 7.70848 35.7764 7.12393Z" fill="white"/>
<path fill-rule="evenodd" clip-rule="evenodd" d="M119.053 6.51562C120.597 6.51562 121.79 6.98481 122.631 7.92317C123.47 8.86346 123.89 10.2941 123.89 12.2112V12.9073C123.89 13.0823 123.826 13.2322 123.703 13.3572C123.58 13.4841 123.43 13.5476 123.26 13.5476H121.256C121.123 13.5476 120.998 13.4899 120.884 13.3726C120.769 13.2572 120.712 13.1303 120.712 12.9957V12.3843C120.712 11.3574 120.574 10.621 120.297 10.1768C120.021 9.7326 119.606 9.50763 119.053 9.50763C118.498 9.50763 118.083 9.68646 117.807 10.046C117.53 10.4037 117.392 10.8729 117.392 11.4555C117.392 11.9766 117.534 12.5054 117.822 13.038C118.108 13.5726 118.416 14.0226 118.752 14.3898C119.085 14.759 119.634 15.3205 120.398 16.0743C121.676 17.353 122.621 18.4817 123.231 19.4605C123.841 20.4392 124.146 21.5775 124.146 22.8736C124.146 24.483 123.675 25.7714 122.729 26.7405C121.784 27.7096 120.559 28.1923 119.053 28.1923C117.507 28.1923 116.27 27.6942 115.346 26.6963C114.42 25.6983 113.958 24.4138 113.958 22.8466V21.393C113.958 21.1987 114.024 21.0295 114.157 20.8834C114.289 20.7392 114.461 20.6661 114.672 20.6661H116.418C116.609 20.6661 116.776 20.7392 116.92 20.8834C117.062 21.0295 117.134 21.1987 117.134 21.393V22.5851C117.134 24.2907 117.763 25.1406 119.023 25.1406C120.244 25.1406 120.856 24.4734 120.856 23.137C120.856 22.6717 120.788 22.2352 120.655 21.8294C120.521 21.4237 120.265 20.9853 119.881 20.5219C119.5 20.0566 119.189 19.7027 118.951 19.4605C118.712 19.2182 118.29 18.7971 117.678 18.1971C116.933 17.4607 116.352 16.8453 115.931 16.3512C115.513 15.857 115.102 15.1744 114.7 14.3014C114.3 13.4303 114.1 12.5304 114.1 11.5997C114.1 10.146 114.515 8.93653 115.346 7.96932C116.174 7.00019 117.411 6.51562 119.053 6.51562ZM131.533 6.51562C133.168 6.51562 134.468 6.98669 135.433 7.92497C136.399 8.86518 136.882 10.1207 136.882 11.6877V23.0202C136.882 24.5891 136.399 25.8427 135.433 26.7829C134.468 27.7231 133.168 28.1923 131.533 28.1923C129.896 28.1923 128.595 27.7231 127.631 26.7829C126.665 25.8427 126.184 24.5891 126.184 23.0202V11.6877C126.184 10.1207 126.665 8.86518 127.631 7.92497C128.595 6.98669 129.896 6.51562 131.533 6.51562ZM43.8648 7.01973C44.0607 7.01973 44.2313 7.08603 44.3787 7.22053C44.5241 7.35313 44.5978 7.5255 44.5978 7.73577V15.4341C44.5978 15.6273 44.6948 15.722 44.8926 15.722H48.0261C48.222 15.722 48.3189 15.6273 48.3189 15.4341V7.73577C48.3189 7.5255 48.3868 7.35313 48.5264 7.22053C48.6622 7.08603 48.8386 7.01973 49.0519 7.01973H51.0744C51.2702 7.01973 51.4409 7.08603 51.5883 7.22053C51.7337 7.35313 51.8074 7.5255 51.8074 7.73577V26.9721C51.8074 27.1824 51.7337 27.3529 51.5883 27.4874C51.4409 27.6219 51.2702 27.6882 51.0744 27.6882H49.0519C48.8386 27.6882 48.6622 27.6219 48.5264 27.4874C48.3868 27.3529 48.3189 27.1824 48.3189 26.9721V19.0427C48.3189 18.8514 48.222 18.7548 48.0261 18.7548H44.8926C44.6948 18.7548 44.5978 18.8514 44.5978 19.0427V26.9721C44.5978 27.1824 44.5241 27.3529 44.3787 27.4874C44.2313 27.6219 44.0607 27.6882 43.8648 27.6882H41.8424C41.6291 27.6882 41.4526 27.6219 41.3169 27.4874C41.1792 27.3529 41.1094 27.1824 41.1094 26.9721V7.73577C41.1094 7.5255 41.1792 7.35313 41.3169 7.22053C41.4526 7.08603 41.6291 7.01973 41.8424 7.01973H43.8648ZM63.0786 7.01973C63.2719 7.01973 63.4403 7.08603 63.5858 7.22053C63.7293 7.35313 63.8021 7.5255 63.8021 7.73577V9.30991C63.8021 9.50123 63.7293 9.66793 63.5858 9.81C63.4403 9.95396 63.2719 10.0241 63.0786 10.0241H58.5942C58.4028 10.0241 58.3071 10.1207 58.3071 10.3101V15.2636C58.3071 15.4549 58.4028 15.5496 58.5942 15.5496H61.6317C61.825 15.5496 61.9953 15.6159 62.1388 15.7504C62.2843 15.8849 62.3551 16.0573 62.3551 16.2657V17.7243C62.3551 17.9156 62.2843 18.0842 62.1388 18.2263C61.9953 18.3683 61.825 18.4403 61.6317 18.4403H58.5942C58.4028 18.4403 58.3071 18.5369 58.3071 18.7282V24.3391C58.3071 24.5285 58.4028 24.6251 58.5942 24.6251H63.3102C63.5035 24.6251 63.6719 24.6952 63.8174 24.8392C63.9609 24.9812 64.0336 25.1498 64.0336 25.3411V26.9721C64.0336 27.1824 63.9609 27.3529 63.8174 27.4874C63.6719 27.6219 63.5035 27.6882 63.3102 27.6882H55.5874C55.375 27.6882 55.2027 27.6219 55.0668 27.4874C54.9309 27.3529 54.8639 27.1824 54.8639 26.9721V7.73577C54.8639 7.5255 54.9309 7.35313 55.0668 7.22053C55.2027 7.08603 55.375 7.01973 55.5874 7.01973H63.0786ZM72.4868 7.01973C72.7001 7.01973 72.8884 7.09171 73.0537 7.23566C73.217 7.37772 73.3092 7.54629 73.3304 7.7357L76.7567 26.9722C76.7932 27.1616 76.751 27.3283 76.626 27.4722C76.4992 27.6162 76.3397 27.6882 76.1475 27.6882H74.2585C74.0452 27.6882 73.8569 27.6162 73.6917 27.4722C73.5264 27.3283 73.4342 27.1616 73.4169 26.9722L72.9499 23.6783C72.9499 23.4889 72.8461 23.3923 72.6309 23.3923H69.6984C69.487 23.3923 69.3794 23.4889 69.3794 23.6783L68.8856 26.9722C68.8471 27.1805 68.751 27.3529 68.5954 27.4855C68.4397 27.62 68.2668 27.6882 68.0727 27.6882H66.1856C65.9915 27.6882 65.8301 27.6162 65.7052 27.4722C65.5803 27.3283 65.5361 27.1616 65.5764 26.9722L69.0028 7.7357C69.022 7.54629 69.1123 7.37772 69.2776 7.23566C69.4409 7.09171 69.6312 7.01973 69.8445 7.01973H72.4868ZM84.1653 7.01973C86.0178 7.01973 87.2825 7.55392 87.9631 8.62229C88.64 9.69066 88.9794 11.2174 88.9794 13.2026C88.9794 14.7863 88.8126 15.9607 88.477 16.7241C88.1414 17.4856 87.565 18.0785 86.744 18.4971C86.5714 18.5729 86.5146 18.7093 86.5714 18.8987L88.9794 27.0005C89.0174 27.1729 88.9889 27.3301 88.8922 27.4741C88.7974 27.6162 88.6533 27.6882 88.4618 27.6882H86.5449C86.0671 27.6882 85.7599 27.4589 85.6253 27.0005L83.5624 19.3855C83.5055 19.1961 83.3823 19.0995 83.1908 19.0995H82.5309C82.3413 19.0995 82.2446 19.1961 82.2446 19.3855V26.9721C82.2446 27.1805 82.1783 27.3529 82.0455 27.4874C81.9109 27.6219 81.7384 27.6882 81.5279 27.6882H79.5219C79.3133 27.6882 79.1408 27.6219 79.0081 27.4874C78.8734 27.3529 78.8071 27.1805 78.8071 26.9721V7.73577C78.8071 7.52361 78.8734 7.35312 79.0081 7.21863C79.1408 7.08603 79.3133 7.01973 79.5219 7.01973H84.1653ZM99.9911 7.01973C100.184 7.01973 100.354 7.08603 100.497 7.22053C100.642 7.35313 100.712 7.5255 100.712 7.73577V9.36674C100.712 9.55806 100.642 9.72476 100.497 9.86683C100.354 10.0108 100.184 10.0809 99.9911 10.0809H97.3978C97.2031 10.0809 97.1077 10.1775 97.1077 10.3688V26.9721C97.1077 27.1824 97.0409 27.3529 96.9073 27.4874C96.7718 27.6219 96.5982 27.6882 96.3863 27.6882H94.396C94.2052 27.6882 94.0372 27.6219 93.8922 27.4874C93.7491 27.3529 93.6746 27.1824 93.6746 26.9721V10.3688C93.6746 10.1775 93.5811 10.0809 93.3884 10.0809H90.7339C90.5221 10.0809 90.3485 10.0108 90.2149 9.86683C90.0813 9.72476 90.0145 9.55806 90.0145 9.36674V7.73577C90.0145 7.5255 90.0813 7.35313 90.2149 7.22053C90.3485 7.08603 90.5221 7.01973 90.7339 7.01973H99.9911ZM141.736 7.01973C141.937 7.01973 142.109 7.08603 142.262 7.21863C142.41 7.35312 142.486 7.5255 142.486 7.73577V26.9721C142.486 27.1824 142.41 27.3529 142.262 27.4874C142.109 27.6219 141.937 27.6882 141.736 27.6882H139.669C139.449 27.6882 139.268 27.6219 139.13 27.4874C138.989 27.3529 138.92 27.1824 138.92 26.9721V7.73577C138.92 7.5255 138.989 7.35312 139.13 7.21863C139.268 7.08603 139.449 7.01973 139.669 7.01973H141.736ZM112.218 24.6635C112.41 24.6635 112.578 24.729 112.723 24.8599C112.868 24.9927 112.939 25.1611 112.939 25.3706V26.9811C112.939 27.17 112.868 27.3346 112.723 27.4749C112.578 27.6171 112.41 27.6882 112.218 27.6882H102.962C102.75 27.6882 102.577 27.6171 102.443 27.4749C102.309 27.3346 102.241 27.17 102.241 26.9811V25.3706C102.241 25.1611 102.309 24.9927 102.443 24.8599C102.577 24.729 102.75 24.6635 102.962 24.6635H112.218ZM147.898 6.999C148.095 6.999 148.265 7.06517 148.416 7.19749C148.562 7.33171 148.636 7.50374 148.636 7.71357V24.3094C148.636 24.5023 148.734 24.5968 148.929 24.5968H153.239C153.456 24.5968 153.632 24.6629 153.77 24.7972C153.907 24.9295 153.977 25.1015 153.977 25.3113V26.9106C153.977 27.1205 153.907 27.2906 153.77 27.4248C153.632 27.559 153.456 27.6252 153.239 27.6252H145.861C145.645 27.6252 145.467 27.559 145.33 27.4248C145.192 27.2906 145.123 27.1205 145.123 26.9106V7.71357C145.123 7.50374 145.192 7.33171 145.33 7.19749C145.467 7.06517 145.645 6.999 145.861 6.999H147.898ZM131.533 9.56697C130.33 9.56697 129.73 10.2457 129.73 11.6012V23.1067C129.73 24.4622 130.33 25.1409 131.533 25.1409C132.734 25.1409 133.336 24.4622 133.336 23.1067V11.6012C133.336 10.2457 132.734 9.56697 131.533 9.56697ZM106.714 6.51562C107.644 6.51562 108.362 6.80513 108.867 7.38794C109.374 7.96694 109.629 8.72117 109.629 9.6449C109.629 10.4829 109.416 11.2486 108.995 11.9342C108.572 12.6218 107.952 13.3398 107.137 14.0979C107.038 14.195 107.017 14.3074 107.074 14.4331C107.579 15.7092 108.046 16.7301 108.465 17.4995C108.494 17.5433 108.528 17.5624 108.572 17.5624C108.613 17.5624 108.641 17.5433 108.657 17.4995C109.007 16.6596 109.211 15.7416 109.267 14.7493C109.298 14.3988 109.485 14.2236 109.837 14.2236H110.702C110.844 14.2236 110.964 14.2769 111.062 14.3798C111.159 14.4864 111.203 14.6102 111.188 14.7493C111.104 16.4158 110.675 17.9414 109.9 19.3279C109.829 19.4403 109.837 19.5508 109.923 19.6632C110.218 19.9869 110.507 20.1469 110.788 20.1469C111.167 20.1469 111.356 19.8879 111.356 19.3699V18.8651C111.356 18.7528 111.402 18.6537 111.494 18.5604C111.586 18.4709 111.695 18.4233 111.821 18.4233H112.413C112.568 18.4233 112.694 18.4766 112.791 18.5813C112.891 18.6861 112.939 18.8099 112.939 18.9489V19.686C112.939 20.4555 112.719 21.0573 112.275 21.4916C111.833 21.9239 111.309 22.143 110.702 22.143C109.984 22.143 109.29 21.8401 108.613 21.2383C108.528 21.1545 108.425 21.1469 108.297 21.2173C107.539 21.8325 106.699 22.143 105.786 22.143C104.701 22.143 103.84 21.802 103.201 21.1221C102.56 20.4441 102.241 19.566 102.241 18.488C102.241 16.9053 102.939 15.4483 104.33 14.1188C104.43 14.0198 104.451 13.9074 104.393 13.7817C103.804 12.298 103.507 11.0734 103.507 10.1058C103.507 9.04305 103.793 8.17835 104.363 7.51174C104.933 6.84703 105.716 6.51562 106.714 6.51562ZM71.1512 12.202L69.9309 20.1591C69.8925 20.3504 69.9713 20.4432 70.1635 20.4432H72.1678C72.2446 20.4432 72.3119 20.4167 72.3715 20.358C72.4291 20.3012 72.4483 20.2349 72.4291 20.1591L71.2377 12.202C71.1992 12.1812 71.1704 12.1812 71.1512 12.202ZM105.239 16.2177C104.788 16.8481 104.562 17.4919 104.562 18.1509C104.562 18.7261 104.7 19.1737 104.973 19.4956C105.249 19.8174 105.631 19.9793 106.125 19.9793C106.462 19.9793 106.751 19.8803 106.99 19.686C107.101 19.6003 107.116 19.4956 107.03 19.3699C106.454 18.4728 105.926 17.431 105.45 16.2406C105.392 16.1149 105.323 16.1073 105.239 16.2177ZM83.5927 9.88198H82.5309C82.3413 9.88198 82.2446 9.97669 82.2446 10.168V16.0649C82.2446 16.2562 82.3413 16.3509 82.5309 16.3509H83.5927C84.3758 16.3509 84.9048 16.1274 85.1835 15.6785C85.4585 15.2314 85.5988 14.3771 85.5988 13.1174C85.5988 11.8577 85.4585 11.0015 85.1835 10.5544C84.9048 10.1074 84.3758 9.88198 83.5927 9.88198ZM106.651 8.30025C106.328 8.30025 106.077 8.43547 105.901 8.70974C105.727 8.9821 105.639 9.35731 105.639 9.83346C105.639 10.4639 105.807 11.2829 106.144 12.2923C106.159 12.3323 106.192 12.3571 106.24 12.3647C106.29 12.3723 106.328 12.3609 106.357 12.3323C107.145 11.4352 107.539 10.542 107.539 9.6449C107.539 8.74783 107.242 8.30025 106.651 8.30025Z" fill="white"/>
</svg>
