<svg xmlns="http://www.w3.org/2000/svg" width="135" height="19" fill="none" viewBox="0 0 135 19"><g clip-path="url(#a)"><mask id="b" width="135" height="19" x="0" y="0" maskUnits="userSpaceOnUse" style="mask-type:luminance"><path fill="#fff" d="M134.921.001H0v18.173h134.921z"/></mask><g fill="#fff" mask="url(#b)"><path d="M1.663 10.025h8.527V8.537H1.663V2.938h9.477V1.403H0v16.535h11.353v-1.535h-9.69zm21.376 5.905V9.647c0-2.646-1.924-4.488-5.035-4.488-2.898 0-5.083 1.7-5.32 4.11h1.662c.214-1.607 1.734-2.67 3.634-2.67 2.066 0 3.42 1.205 3.444 2.906-.024 1.04-1.781 1.016-3.92 1.252-2.35.26-5.106.78-5.082 3.661 0 2.244 1.758 3.685 4.537 3.685 2.28 0 3.8-.968 4.536-2.598v.756c0 1.086.665 1.677 1.9 1.677h1.022v-1.37h-.737c-.404 0-.641-.236-.641-.638m-1.615-3.354c0 2.504-1.663 4.086-4.228 4.086-1.924 0-3.111-.897-3.111-2.29 0-1.796 1.829-2.08 3.681-2.269 1.615-.165 3.135-.307 3.658-.992zM34.76 1.143h-1.663V5.42h-1.544c-2.161 0-3.788.85-4.548 2.598L26.79 5.42h-1.33v12.52h1.663V11.3c0-2.67 1.71-4.465 4.394-4.465h1.58v7.583c0 2.291 1.258 3.52 3.586 3.52h1.377V16.52h-1.377c-1.235 0-1.924-.732-1.924-2.102V6.836h3.515V5.42H34.76zm10.784 4.016c-1.83 0-3.42.85-4.3 2.15V.221h-1.662v17.716h1.663V10.45c.023-2.173 1.567-3.803 3.99-3.803 1.971 0 3.135 1.204 3.135 3.023v8.268h1.639V9.599c0-2.692-1.71-4.44-4.465-4.44m15.749 6.047-1.804-.638c-1.188-.402-2.495-.756-2.495-2.079 0-1.157.974-1.89 2.542-1.89 1.9 0 3.135.898 3.396 2.74h1.64c-.334-2.716-2.186-4.18-4.941-4.18-2.613 0-4.252 1.322-4.252 3.377 0 2.22 1.877 2.811 3.587 3.402l1.9.661c1.377.496 2.351.827 2.351 2.08 0 1.251-.878 2.054-2.802 2.054-2.043 0-3.563-.945-3.73-2.693H55.07c.143 2.599 2.304 4.134 5.297 4.134s4.49-1.3 4.49-3.425-1.402-2.811-3.564-3.543m17.029-2.103-2.78-.85c-1.377-.449-3.396-.85-3.396-2.835 0-1.63 1.449-2.716 3.73-2.716 2.73 0 4.393 1.37 4.607 3.803h1.734c-.237-3.402-2.541-5.339-6.247-5.339-3.42 0-5.534 1.772-5.534 4.347 0 3.165 3.207 3.85 4.56 4.275l2.946.922c1.663.496 3.159 1.133 3.159 2.952 0 1.82-1.45 2.977-4.11 2.977-3.016 0-5.106-1.394-5.296-3.662h-1.757c.142 3.095 2.945 5.197 7.03 5.197 3.658 0 5.867-1.724 5.867-4.582 0-2.859-2.328-3.804-4.513-4.489m11.306-3.944c-3.064 0-5.843 2.29-5.843 6.566 0 3.756 2.47 6.426 6.08 6.426 2.78 0 4.822-1.583 5.392-4.158h-1.615c-.499 1.63-1.805 2.717-3.777 2.717-2.66 0-4.346-1.89-4.417-4.89h9.857v-.425C95.233 7.45 93 5.159 89.628 5.159m-4.085 5.267c.404-2.386 1.947-3.803 4.085-3.803s3.61 1.583 3.943 3.803zm16.67-3.803c2.185 0 3.729 1.394 4.109 3.614h1.615c-.404-3.189-2.613-5.078-5.677-5.078-3.349 0-6.08 2.267-6.08 6.448 0 3.59 2.137 6.567 6.152 6.567 3.159 0 5.248-1.937 5.605-5.126h-1.615c-.356 2.292-1.806 3.662-3.967 3.662-2.446 0-4.489-1.772-4.489-5.103 0-2.952 1.663-4.984 4.347-4.984m13.495-1.275h-.356c-2.162 0-3.634.921-4.394 2.67l-.214-2.6h-1.33v12.52h1.663v-6.637c0-2.67 1.591-4.276 4.275-4.276h.356zm5.772-.189c-3.064 0-5.843 2.29-5.843 6.566 0 3.756 2.47 6.426 6.08 6.426 2.779 0 4.821-1.583 5.392-4.158h-1.616c-.498 1.63-1.805 2.717-3.776 2.717-2.66 0-4.347-1.89-4.418-4.89h9.857v-.425c-.071-3.945-2.304-6.236-5.676-6.236m-4.086 5.267c.404-2.386 1.948-3.803 4.086-3.803 2.137 0 3.61 1.583 3.942 3.803zm14.016-9.283h-1.663V5.42h-2.399v1.417h2.399v7.583c0 2.291 1.259 3.52 3.586 3.52h1.378v-1.42h-1.378c-1.235 0-1.923-.732-1.923-2.102V6.836h3.515V5.42h-3.515zM56.781.03c-.942.98-3.939 1.924-4.545 5.279-.158.878-.126 1.484-.086 1.79.012.087.102.115.15.04.309-.464.736-.563 1.845-1.41 1.247-.952 2.189-2.842 2.45-4.086l.32-1.516c.02-.098-.07-.169-.138-.098zm-5.039 5.672c-.147-.24-.084-.46-.206-1.15-.143-.775-.824-1.606-1.366-1.988l-.661-.464c-.044-.032-.103 0-.083.043.233.642-.091 2.232 1.401 3.209.392.255.697.366.86.413.047.012.082-.024.059-.063z"/></g></g><defs><clipPath id="a"><path fill="#fff" d="M0 0h135v18.173H0z"/></clipPath></defs></svg>