<svg xmlns="http://www.w3.org/2000/svg" width="129" height="22" fill="none" viewBox="0 0 129 22"><path fill="#fff" d="M48.67 11.324h-7.68a1.35 1.35 0 0 1-1.345-1.345V8.284c0-.737.608-1.345 1.345-1.345h9.022a.884.884 0 0 0 0-1.767H40.99a3.12 3.12 0 0 0-3.112 3.112v1.695a3.12 3.12 0 0 0 3.112 3.112h7.679c.737 0 1.345.608 1.345 1.345v1.694c0 .737-.608 1.345-1.345 1.345h-9.593a.884.884 0 0 0 0 1.767h9.593a3.12 3.12 0 0 0 3.112-3.112v-1.694a3.12 3.12 0 0 0-3.112-3.112m7.679-4.179v10.108c0 1.087.883 1.989 1.988 1.989h10.33a.884.884 0 0 0 0-1.768h-9.888a.66.66 0 0 1-.663-.662v-3.738h8.36a.884.884 0 0 0 0-1.767h-8.36V7.569a.66.66 0 0 1 .663-.663h9.887a.884.884 0 0 0 0-1.767h-10.33c-1.086.017-1.987.92-1.987 2.007zm30.16 9.722c0 .166-.203.258-.313.13L75.92 5.432l-.017-.018a1.4 1.4 0 0 0-1.621-.275c-.516.238-.829.774-.829 1.344v12.412a.884.884 0 0 0 1.767 0V7.752c0-.166.204-.258.313-.13l10.275 11.564.018.018a1.44 1.44 0 0 0 1.013.424c.22 0 .441-.055.645-.147.496-.239.791-.774.791-1.325V5.635a.884.884 0 0 0-1.767 0zm35.87-10.716v10.956a.49.49 0 0 1-.479.478h-9.336a.49.49 0 0 1-.479-.479V6.152a.963.963 0 0 0-.958-.958.963.963 0 0 0-.958.958v11.196a1.98 1.98 0 0 0 1.988 1.988h10.109a1.98 1.98 0 0 0 1.988-1.988V6.15a.963.963 0 0 0-.958-.958c-.479 0-.92.424-.92.958zM94.923 17.568a.172.172 0 0 1-.13-.295l11.012-9.778.018-.018c.405-.405.534-1.013.258-1.547-.221-.496-.737-.791-1.271-.791H93.192a.844.844 0 0 0-.846.846c0 .46.367.847.846.847h10.422c.166 0 .238.184.129.295l-11.012 9.778-.018.018a1.37 1.37 0 0 0-.404.958c0 .203.054.424.146.608.221.479.737.754 1.271.754h11.729c.46 0 .847-.367.847-.846a.845.845 0 0 0-.847-.847zM15.91 7.034c1.344-.074 1.307-2.025-.055-2.025-1.289.074-1.289 1.97.017 2.025zm0 7.346c1.307-.054 1.325-1.95.017-2.024-1.345-.018-1.4 1.97-.055 2.025z"/><path fill="#fff" d="M31.322 14.142c-.7-.608-1.51-.995-2.301-1.454-.571-.313-.46-.976-.258-1.492.479-1.437.754-2.964.663-4.492-.037-1.216-.81-1.822-1.989-1.822-2.044-.075-4.013.46-5.855 1.27-.957.35-1.196-.81-1.491-1.454-.682-1.492-1.584-2.837-2.743-3.959-.995-1.013-2.045-.975-3.02.055a12.7 12.7 0 0 0-2.964 4.621c-.239.682-.718.903-1.38.626-1.566-.682-5.525-1.879-7.053-.755a.9.9 0 0 0-.258.276c-.81 1.326-.075 4.383.387 5.745.238.608.183 1.142-.442 1.455-1.16.645-3.187 1.529-2.467 3.186 2.743 5.1 9.52 7.218 14.767 4.862.682-.313 1.4-.258 2.062.055 3.885 1.657 8.6.975 11.859-1.676a11.7 11.7 0 0 0 2.338-2.522c.479-.682.92-1.675.258-2.412-.018-.018-.037-.055-.074-.074-.018 0-.038-.018-.038-.037zm-10.809-.553c.092-.295.166-.588.239-.883.184-.755.276-1.53.313-2.32.074-1.805.645-3.002 2.615-3.592 1.087-.332 2.229-.57 3.37-.534.737.037 1.087.553 1.05 1.271-.074 5.12-4.254 9.778-9.207 10.662-.589.111-.903 0-.497-.571.92-1.197 1.695-2.596 2.117-3.996zM13.902 3.406c1.197-1.786 2.283-2.43 3.683-.367 1.658 2.228 2.45 5.137 2.21 7.917-.075.774-.333.884-.81.22a5.7 5.7 0 0 0-1.18-1.123c-1.123-.829-2.54-1.105-3.645-1.988-1.675-1.289-1.4-3.075-.258-4.622zm-10.2 3.665c.091-.645.717-.866 1.307-.828.884.037 1.787.166 2.651.424 2.191.553 3.075 1.712 3.038 3.958.147 2.505 1.087 4.862 2.578 6.868.239.313.571.81-.146.755-5.193-.792-9.685-5.746-9.429-11.141V7.07zm6.703 13.313c-3.572.037-7.292-1.896-9.042-4.824-.129-.313.074-.571.368-.7a3.32 3.32 0 0 1 3.48.424c2.062 2.08 4.603 3.738 7.53 4.234 2.191.48-1.86.939-2.301.866h-.037zm6.941-3.352c-.588.682-1.675.866-2.449.35-.7-.48-1.105-1.289-1.529-2.008a11.9 11.9 0 0 1-1.4-6.279c.038-.663.276-.829.775-.295 1.067 1.253 2.799 1.492 4.087 2.375 2.045 1.455 2.172 4.033.516 5.855zm6.058 3.167a11.2 11.2 0 0 1-4.492-.092c-.7-.166-.737-.442.111-.589 2.43-.46 4.696-1.62 6.518-3.313 1.253-1.326 2.67-2.137 4.493-1.345.441.184.515.553.275.903a9.2 9.2 0 0 1-1.528 1.767 10.84 10.84 0 0 1-5.322 2.67h-.055zM125.812 6.68c0-.93.66-1.605 1.597-1.605s1.588.676 1.588 1.605-.661 1.612-1.588 1.612-1.597-.684-1.597-1.612m.338 0c0 .762.486 1.298 1.257 1.298s1.266-.536 1.266-1.298c0-.763-.503-1.298-1.266-1.298-.762 0-1.257.535-1.257 1.298m1.596.172.44.653-.495.008-.377-.629h-.134v.63h-.41V5.821h.755c.355 0 .59.205.59.527a.5.5 0 0 1-.369.503m-.566-.66v.354h.322c.11 0 .205-.055.205-.18 0-.127-.093-.173-.205-.173z"/></svg>