<svg xmlns="http://www.w3.org/2000/svg" width="193" height="24" fill="none" viewBox="0 0 193 24"><g fill="#fff" clip-path="url(#a)"><path d="M0 0h9.157c3.228 0 5.708.78 7.455 2.324q2.61 2.295 2.612 6.588c0 2.809-.851 4.97-2.554 6.5-1.702 1.515-4.123 2.264-7.249 2.264H6.134v5.265H0zm6.134 12.47h3.258c1.247 0 2.208-.3 2.876-.911q1.025-.904 1.027-2.647c0-1.177-.367-2.074-1.086-2.706q-1.089-.94-3.081-.941H6.134zm30.849 4.5 1.673 3.383c-1.373 1.022-2.73 1.765-4.08 2.235-1.335.471-2.759.706-4.285.706-2.78 0-5.004-.772-6.662-2.323q-2.497-2.35-2.495-6.97 0-4.766 2.465-7.148c1.659-1.603 3.904-2.412 6.721-2.412q3.843 0 6.135 2.206c1.526 1.456 2.296 3.618 2.318 6.5 0 .397-.015.787-.03 1.177a21 21 0 0 1-.117 1.294h-11.71q.614 3 3.64 3 1.846.002 3.286-.383c.954-.25 2.004-.676 3.14-1.264m-10.096-4.94h6.75c-.08-1.177-.411-2.037-.998-2.589-.572-.544-1.343-.823-2.319-.823-1.98 0-3.125 1.14-3.433 3.412m26.634 6.322.559 3.618c-.646.375-1.453.676-2.407.912q-1.44.321-2.847.323-3.17 0-4.578-1.588c-.94-1.074-1.41-2.853-1.41-5.324V9.706h-2.553V4.765h2.554V.735h5.987v4.03h4.432v4.941h-4.432v6.324c0 .808.154 1.411.47 1.823.308.397.91.588 1.79.588.426 0 .822-.007 1.174-.029zM64.354 0h9.157c3.229 0 5.709.78 7.455 2.324q2.61 2.295 2.612 6.588c0 2.809-.851 4.97-2.553 6.5-1.703 1.515-4.124 2.264-7.25 2.264h-3.287v5.265h-6.134zm6.134 12.47h3.258c1.248 0 2.209-.3 2.876-.911q1.026-.904 1.028-2.647c0-1.177-.367-2.074-1.086-2.706q-1.09-.94-3.082-.941h-2.994zm17.495-2.617-.91-4.059a73 73 0 0 1 3.493-.853c.94-.19 1.746-.323 2.436-.382a19 19 0 0 1 1.996-.118c2.641 0 4.534.589 5.694 1.765 1.151 1.177 1.731 3.081 1.731 5.706v11.03h-5.87v-2.148a10 10 0 0 1-2.377 1.824c-.844.448-1.812.676-2.906.676q-2.85.002-4.402-1.264c-1.042-.839-1.555-2.331-1.555-4.47 0-1.92.63-3.34 1.907-4.266q1.903-1.38 5.753-1.382h3.58c0-1.015-.19-1.743-.557-2.176-.353-.449-1.072-.677-2.143-.677-.668 0-1.49.074-2.465.206-.983.118-2.113.316-3.405.588m8.57 5.265h-2.817c-.94 0-1.673.103-2.201.294-.514.176-.764.662-.764 1.441 0 .647.213 1.17.646 1.559.448.397 1.057.588 1.82.588q1.078 0 1.849-.44a6.3 6.3 0 0 0 1.467-1.148zM111.98 4.765v3.353q.936-1.787 2.113-2.735c.778-.625 1.688-.942 2.729-.942.331 0 .661.015.998.03q.495 0 1.262.088l-.411 6.03a15 15 0 0 0-1.174-.06h-.968c-1.101 0-2.04.229-2.818.677q-1.179.682-1.731 2.677v9.059h-5.987V4.765zm24.411 12.205 1.673 3.383q-2.056 1.532-4.08 2.235c-1.335.471-2.759.706-4.285.706q-4.173.002-6.662-2.323-2.496-2.35-2.495-6.97 0-4.766 2.466-7.148c1.658-1.603 3.903-2.412 6.721-2.412 2.56 0 4.608.736 6.134 2.206 1.526 1.456 2.296 3.618 2.318 6.5 0 .397-.014.787-.029 1.177a22 22 0 0 1-.117 1.294h-11.711q.615 3 3.64 3 1.846.002 3.287-.383c.953-.25 2.003-.676 3.14-1.264m-10.096-4.94h6.75c-.081-1.177-.411-2.037-.998-2.589-.572-.544-1.342-.823-2.318-.823-1.981 0-3.126 1.14-3.434 3.412m20.854-7.266v2.382c.954-.882 1.915-1.544 2.877-2a6.95 6.95 0 0 1 3.11-.706c1.915 0 3.346.552 4.286 1.647q1.408 1.622 1.409 5.295v11.559h-6.017v-9.853c0-1.096-.133-1.883-.382-2.354q-.382-.705-1.702-.705c-.704 0-1.351.19-1.937.559-.587.352-1.138.867-1.644 1.529v10.824h-5.987V4.765zm27.027 13.588.558 3.618c-.645.375-1.452.676-2.406.912a13 13 0 0 1-2.847.323q-3.17 0-4.579-1.588c-.939-1.074-1.408-2.853-1.408-5.324V9.706h-2.555V4.765h2.555V.735h5.987v4.03h4.432v4.941h-4.432v6.324c0 .808.153 1.411.469 1.823.308.397.91.588 1.79.588.426 0 .822-.007 1.174-.029zm17.538-12.53-1.467 4.147a37 37 0 0 0-3.698-.794c-1.138-.191-2.011-.294-2.613-.294-.844 0-1.261.338-1.261 1q0 .828 1.144 1.147 1.167.33 3.346.97c1.775.471 3.03 1.082 3.757 1.824q1.113 1.125 1.114 3.441 0 2.946-1.937 4.5c-1.276 1.023-3.154 1.53-5.635 1.53-1.606 0-3.067-.22-4.372-.647a29 29 0 0 1-3.728-1.5l1.409-4.03c1.189.412 2.407.794 3.64 1.147q1.872.53 3.14.53 1.496 0 1.496-.883c0-.485-.337-.83-.997-1.029q-1.004-.288-3.053-.941c-3.309-1.015-4.959-2.802-4.959-5.353 0-1.92.557-3.427 1.672-4.53 1.13-1.117 2.738-1.676 4.814-1.676q1.608.002 3.668.324c1.366.198 2.877.573 4.52 1.117"/></g><defs><clipPath id="a"><path fill="#fff" d="M0 0h193v24H0z"/></clipPath></defs></svg>