<svg xmlns="http://www.w3.org/2000/svg" width="94" height="26" fill="none" viewBox="0 0 94 26"><path fill="#fff" fill-rule="evenodd" d="M50.05 5.417c4.381 0 7.822 3.43 7.822 7.693 0 2.77-1.58 5.284-3.988 6.712l1.94 2.83c.175.299 0 .64-.351.64h-2.957c-.176 0-.285-.107-.35-.213l-1.437-2.34c-.263.02-.526.02-.68.02-4.38 0-7.815-3.388-7.815-7.65 0-4.261 3.435-7.692 7.816-7.692m13.213.213a.41.41 0 0 1 .416.405v8.63c0 1.492.98 2.685 2.535 2.685 1.578 0 2.579-1.193 2.579-2.685v-8.63a.41.41 0 0 1 .416-.405h2.694c.219 0 .416.192.416.405v8.8c0 3.24-2.644 5.924-6.105 5.924-3.44 0-6.061-2.684-6.061-5.923v-8.8c0-.214.197-.406.416-.406zm-23.032 0a.41.41 0 0 1 .416.405v2.323a.41.41 0 0 1-.416.404h-7.428v2.643h6.355c.219 0 .416.192.416.405v2.323a.41.41 0 0 1-.416.404h-6.355v2.877h7.428a.41.41 0 0 1 .416.404v2.323a.41.41 0 0 1-.416.405H29.802a.41.41 0 0 1-.416-.405V6.035a.41.41 0 0 1 .416-.405zm38.38 0c.218 0 .416.192.416.405v14.106a.426.426 0 0 1-.417.405h-2.628a.425.425 0 0 1-.416-.405V6.035c0-.213.197-.405.416-.405zm10.082 0c2.695 0 4.907 2.131 4.907 4.71 0 2.642-2.212 4.794-4.885 4.794h-2.942v5.007a.425.425 0 0 1-.416.405h-2.585a.41.41 0 0 1-.417-.405V6.035a.41.41 0 0 1 .417-.405zM50.05 8.827c-2.388 0-4.311 1.939-4.311 4.283 0 2.322 1.923 4.24 4.31 4.24 2.41 0 4.319-1.918 4.319-4.24 0-2.344-1.908-4.283-4.318-4.283m38.446-.065h-2.723v3.26h2.723c.942 0 1.73-.724 1.73-1.682 0-.895-.788-1.578-1.73-1.578M23.226 0c.397 0 .718.32.718.716v24.568a.717.717 0 0 1-.718.716H.718A.717.717 0 0 1 0 25.284V.716C0 .321.322 0 .718 0zm-4.821 17.908H5.665c-.215 0-.39.155-.39.346v3.298c0 .192.175.346.39.346h12.74c.216 0 .391-.154.391-.346v-3.298c0-.19-.175-.346-.391-.346m-1.286-6.75a.26.26 0 0 0-.29-.117H5.562c-.16 0-.288.156-.288.347v3.298c0 .191.129.346.288.346h11.332q.03 0 .06-.008.008-.001.015-.005l.043-.018.017-.011.018-.012.017-.014.017-.017.028-.033.009-.01 1.104-1.657a.4.4 0 0 0 0-.433zm1.286-7.104H5.665c-.215 0-.39.155-.39.347v3.297c0 .192.175.347.39.347h12.74c.216 0 .391-.155.391-.347V4.401c0-.192-.175-.347-.391-.347" clip-rule="evenodd"/></svg>