<svg xmlns="http://www.w3.org/2000/svg" fill="none" viewBox="0 0 24 24"><path fill="#534cb6" d="m5.036 9.706 3.368-4.558C10.581 2.203 11.67.73 12.686 1.041 13.7 1.352 13.7 3.159 13.7 6.77v.341c0 1.304 0 1.955.417 2.364l.022.021c.425.4 1.103.4 2.46.4 2.44 0 3.66 0 4.073.74l.02.037c.39.752-.317 1.708-1.73 3.62l-3.369 4.558c-2.177 2.945-3.266 4.418-4.281 4.107-1.016-.311-1.016-2.118-1.016-5.73v-.341c0-1.304 0-1.955-.416-2.364l-.022-.021c-.426-.4-1.104-.4-2.46-.4-2.441 0-3.661 0-4.074-.74l-.02-.037c-.39-.752.317-1.708 1.73-3.62"/></svg>