<svg xmlns="http://www.w3.org/2000/svg" width="26" height="26" fill="none" viewBox="0 0 26 26"><g stroke="#534cb6" stroke-linecap="round" stroke-linejoin="round" stroke-width="1.857" clip-path="url(#a)"><path d="M22.623 13.93H7.43L5.574 4.643h18.572a.93.93 0 0 1 .91 1.095l-1.523 7.429a.91.91 0 0 1-.91.761M5.57 4.643l-.78-2.97a.93.93 0 0 0-.91-.744H.929M7.428 13.93l.78 3.9a.93.93 0 0 0 .91.742h11.31m-.925 6.5a.929.929 0 1 1 0-1.857.929.929 0 0 1 0 1.857m-9.289 0a.929.929 0 1 1 0-1.857.929.929 0 0 1 0 1.857"/></g><defs><clipPath id="a"><path fill="#fff" d="M0 0h26v26H0z"/></clipPath></defs></svg>