<svg xmlns="http://www.w3.org/2000/svg" fill="none" viewBox="0 0 27 20"><g clip-path="url(#a)"><path fill="#3a8095" d="M7.03 11.814c.124.136.389.25.578.268l5.792-.064c.173-.161.403-.316.45-.567.25-1.326-.157-3.437.002-4.878.063-.576.236-.896.841-.967 1.464-.17 3.268.18 4.727.005.274-.032.668-.202.782-.459.288-.646-.085-3.288.066-4.246a.97.97 0 0 1 .53-.713c.49-.222 3.578-.22 4.243-.143s1.01.372 1.073 1.074c.058.642.079 3.917-.09 4.344a.79.79 0 0 1-.639.49c-.913.12-3.71-.23-4.283.102-.333.19-.472.604-.506.965-.135 1.466.173 3.218.007 4.66-.057.496-.234.678-.731.737-1.47.172-3.407-.222-4.83.005-.553.088-.807.542-.855 1.066-.162 1.768.234 3.974.011 5.686-.083.64-.64.694-1.18.737-1.405.111-4.014.13-5.406 0-.443-.04-.924-.131-1.061-.63-.155-1.839.198-3.986-.002-5.786-.059-.517-.295-.983-.85-1.071-1.424-.227-3.36.168-4.83-.005-1.302-.152-.722-2.517-.724-3.47-.003-.901-.612-3.187.724-3.343 1.097-.13 4.079-.13 5.176 0 .492.057.672.236.73.737.172 1.478-.168 3.291-.004 4.771.023.209.126.547.263.7z"/></g><defs><clipPath id="a"><path fill="#fff" d="M0 0h26.154v20H0z"/></clipPath></defs></svg>