<svg xmlns="http://www.w3.org/2000/svg" fill="none" viewBox="0 0 26 26"><g stroke="#534cb6" stroke-linecap="round" stroke-linejoin="round" stroke-width="1.857" clip-path="url(#a)"><path d="m10.51 2.118-.798 2.061-2.748 1.56-2.192-.334a1.86 1.86 0 0 0-1.857.91l-.743 1.3a1.86 1.86 0 0 0 .149 2.098l1.393 1.728v3.12L2.32 16.288a1.86 1.86 0 0 0-.149 2.098l.743 1.3a1.86 1.86 0 0 0 1.857.91l2.192-.334 2.748 1.56.799 2.062a1.86 1.86 0 0 0 1.727 1.188h1.523a1.86 1.86 0 0 0 1.727-1.188l.799-2.062 2.748-1.56 2.192.334a1.86 1.86 0 0 0 1.857-.91l.743-1.3a1.86 1.86 0 0 0-.149-2.098l-1.393-1.727v-3.12l1.393-1.728a1.86 1.86 0 0 0 .149-2.098l-.743-1.3a1.86 1.86 0 0 0-1.857-.91l-2.192.334-2.748-1.56-.799-2.061A1.86 1.86 0 0 0 13.761.929h-1.523a1.86 1.86 0 0 0-1.727 1.189"/><path d="m17.644 10.215-5.726 6.5-3.096-2.693"/></g><defs><clipPath id="a"><path fill="#fff" d="M0 0h26v26H0z"/></clipPath></defs></svg>