<svg xmlns="http://www.w3.org/2000/svg" fill="none" viewBox="0 0 24 24"><g clip-path="url(#a)"><path fill="#c27d34" fill-rule="evenodd" d="M9.734 2.405A9.87 9.87 0 0 0 2.2 10.93h4.606a19.94 19.94 0 0 1 2.928-8.525m4.536 0a19.94 19.94 0 0 1 2.927 8.525h4.606a9.87 9.87 0 0 0-7.533-8.525m.771 8.525a17.8 17.8 0 0 0-3.04-8.075 17.8 17.8 0 0 0-3.04 8.075zm-6.079 2.143h6.08a17.8 17.8 0 0 1-3.04 8.075 17.8 17.8 0 0 1-3.04-8.075m-2.156 0H2.2A9.87 9.87 0 0 0 9.734 21.6a19.94 19.94 0 0 1-2.928-8.526M14.27 21.6a19.94 19.94 0 0 0 2.927-8.526h4.606A9.87 9.87 0 0 1 14.27 21.6m-2.268 2.404c6.628 0 12.001-5.373 12.001-12.001C24.003 5.373 18.63 0 12.002 0 5.373 0 0 5.373 0 12.002c0 6.628 5.373 12.001 12.002 12.001" clip-rule="evenodd"/></g><defs><clipPath id="a"><path fill="#fff" d="M0 0h24v24H0z"/></clipPath></defs></svg>