<svg xmlns="http://www.w3.org/2000/svg" width="32" height="32" fill="none" viewBox="0 0 32 32"><path stroke="#000" stroke-linecap="round" stroke-linejoin="round" stroke-width="2" d="M27.186 5.212C24.66 2.461 20.826 1 15.857 1 6.35 1 1 6.349 1 15.857c0 9.509 5.349 14.857 14.857 14.857 9.509 0 14.857-5.348 14.857-14.857a21 21 0 0 0-.377-4.1"/><path stroke="#000" stroke-linecap="round" stroke-linejoin="round" stroke-width="2" d="M22.442 5.686c1.404.468 3.277.468 4.682 0 .468-1.404.468-3.277 0-4.682M19.503 11.88s-1.37-1.527-3.594-1.336-3.296 1.557-3.296 2.927c0 3.995 6.89 1.226 6.89 5.323 0 2.113-4.57 3.604-7.293 1.119m3.97-12.056v2.67m0 10.66v2.67"/></svg>