<svg xmlns="http://www.w3.org/2000/svg" width="22" height="22" fill="none" viewBox="0 0 22 22"><path stroke="#534cb6" stroke-linecap="round" stroke-linejoin="round" stroke-width="1.571" d="M10.996 21.215c5.641 0 10.214-4.573 10.214-10.215C21.21 5.36 16.637.786 10.996.786S.782 5.36.782 11c0 5.642 4.573 10.215 10.214 10.215"/><path stroke="#534cb6" stroke-linecap="round" stroke-linejoin="round" stroke-width="1.571" d="M13.673 8.205a2.09 2.09 0 0 0-1.976-1.396h-1.621a1.87 1.87 0 0 0-.4 3.697l2.469.54a2.096 2.096 0 0 1-.448 4.144h-1.396a2.1 2.1 0 0 1-1.977-1.397m2.674-6.983V4.713m0 12.575v-2.096"/></svg>