<svg xmlns="http://www.w3.org/2000/svg" width="32" height="32" fill="none" viewBox="0 0 32 32"><path stroke="#000" stroke-linecap="round" stroke-linejoin="round" stroke-width="2" d="M12.036 7.156V5.938m0 12.177v-1.213m3.189-7.437c0-1.25-1.027-2.313-3.186-2.313-2.16 0-3.186 1-3.186 2.313 0 1.023 1.027 2.005 3.186 2.314 2.16.308 3.673 1.02 3.673 2.561 0 1.388-1.514 2.552-3.673 2.552-2.16 0-3.673-.991-3.673-2.313"/><path stroke="#000" stroke-linecap="round" stroke-linejoin="round" stroke-width="2" d="M22.724 15.284q.324-1.498.325-3.26C23.05 4.97 19.08 1 12.025 1 4.969 1 1 4.969 1 12.025c0 5.34 2.273 8.911 6.437 10.333m1.688 8.356s5.391-7.125 7.782-6.931c1.92.156 2.092 4.239 3.872 3.502 1.19-.492 7.963-6.638 9.63-8.16"/><path stroke="#000" stroke-linecap="round" stroke-linejoin="round" stroke-width="2" d="M24.714 18.616c1.773-.443 4.077-.264 5.761.445.442 1.773.264 4.078-.446 5.761"/></svg>