<svg xmlns="http://www.w3.org/2000/svg" width="26" height="26" fill="none" viewBox="0 0 26 26"><g stroke="#534cb6" stroke-linecap="round" stroke-linejoin="round" stroke-width="1.857" clip-path="url(#a)"><path d="M9.285 1.857H3.713a1.857 1.857 0 0 0-1.857 1.857v5.572c0 1.025.832 1.857 1.857 1.857h5.572a1.857 1.857 0 0 0 1.857-1.857V3.714a1.857 1.857 0 0 0-1.857-1.857m13 0h-5.572a1.857 1.857 0 0 0-1.857 1.857v5.572c0 1.025.832 1.857 1.857 1.857h5.572a1.857 1.857 0 0 0 1.857-1.857V3.714a1.857 1.857 0 0 0-1.857-1.857m-13 13H3.713a1.857 1.857 0 0 0-1.857 1.857v5.572c0 1.025.832 1.857 1.857 1.857h5.572a1.857 1.857 0 0 0 1.857-1.858v-5.57a1.857 1.857 0 0 0-1.857-1.858m13 0h-5.572a1.857 1.857 0 0 0-1.857 1.857v5.572c0 1.025.832 1.857 1.857 1.857h5.572a1.857 1.857 0 0 0 1.857-1.858v-5.57a1.857 1.857 0 0 0-1.857-1.858"/></g><defs><clipPath id="a"><path fill="#fff" d="M0 0h26v26H0z"/></clipPath></defs></svg>