<svg xmlns="http://www.w3.org/2000/svg" width="26" height="26" fill="none" viewBox="0 0 26 26"><path stroke="#534cb6" stroke-linecap="round" stroke-linejoin="round" stroke-width="1.857" d="M22.594 5.106a2.78 2.78 0 0 0-2.627-1.857h-2.156a2.487 2.487 0 0 0-.532 4.916l3.283.718a2.786 2.786 0 0 1-.595 5.51H18.11a2.79 2.79 0 0 1-2.627-1.858m3.553-9.285V.928m0 15.785v-2.321M.928 20.428l4.538 3.782a3.7 3.7 0 0 0 2.378.861h11.965c.854 0 1.547-.693 1.547-1.548a3.095 3.095 0 0 0-3.095-3.095H9.943"/><path stroke="#534cb6" stroke-linecap="round" stroke-linejoin="round" stroke-width="1.857" d="m6.5 18.571 1.392 1.393a1.97 1.97 0 1 0 2.786-2.786l-2.162-2.162a3.7 3.7 0 0 0-2.627-1.088H.928"/></svg>