<svg xmlns="http://www.w3.org/2000/svg" fill="none" viewBox="0 0 24 24"><g clip-path="url(#a)"><path fill="#8c3c92" fill-rule="evenodd" d="M21.761 3.905c1.289.885 2.238 2.178 2.238 3.891 0 2.564-1.538 4.749-3.724 6.244-2.193 1.501-5.142 2.395-8.277 2.395h-.02a4.436 4.436 0 0 1-4.112-6.105 11.1 11.1 0 0 0-2.935 1.398c-1.808 1.237-2.792 2.836-2.792 4.476 0 .81.417 1.513 1.309 2.125.913.627 2.24 1.088 3.78 1.337 1.528.246 3.187.27 4.706.085 1.533-.186 2.841-.578 3.716-1.103a1.071 1.071 0 1 1 1.103 1.838c-1.227.736-2.861 1.186-4.56 1.393a19.3 19.3 0 0 1-5.305-.098c-1.718-.277-3.386-.815-4.653-1.685-1.29-.886-2.239-2.179-2.239-3.892 0-2.564 1.538-4.748 3.725-6.244 2.182-1.493 5.112-2.386 8.23-2.394h.068a4.435 4.435 0 0 1 4.06 6.12c1.121-.347 2.134-.83 2.986-1.414 1.807-1.237 2.791-2.836 2.791-4.476 0-.809-.416-1.512-1.308-2.125-.913-.627-2.241-1.088-3.781-1.336a17.2 17.2 0 0 0-4.705-.086c-1.534.187-2.842.578-3.717 1.103a1.071 1.071 0 1 1-1.102-1.838c1.227-.736 2.86-1.185 4.56-1.392a19.3 19.3 0 0 1 5.305.097c1.718.277 3.385.815 4.653 1.686" clip-rule="evenodd"/></g><defs><clipPath id="a"><path fill="#fff" d="M0 0h24v24H0z"/></clipPath></defs></svg>