<svg xmlns="http://www.w3.org/2000/svg" fill="none" viewBox="0 0 26 26"><g stroke="#534cb6" stroke-linecap="round" stroke-linejoin="round" stroke-width="1.857" clip-path="url(#a)"><path d="M5.107 9.284a.464.464 0 0 1 0-.928m.001.928a.464.464 0 1 0 0-.928m15.782.928a.464.464 0 1 1 0-.928m.002.928a.464.464 0 1 0 0-.928m-5.916-1.599a1.55 1.55 0 0 0-1.46-1.032H12.32a1.381 1.381 0 0 0-.295 2.73l1.824.4a1.548 1.548 0 0 1-.331 3.06h-1.032c-.674 0-1.247-.43-1.46-1.031m1.972 13.259v-3.715m4.642 1.857V18.57m-9.284 3.715V18.57"/><path d="M22.285 15.785H3.713a1.857 1.857 0 0 1-1.857-1.858V3.713c0-1.026.832-1.857 1.857-1.857h18.572c1.025 0 1.857.831 1.857 1.857v10.214a1.857 1.857 0 0 1-1.857 1.858"/></g><defs><clipPath id="a"><path fill="#fff" d="M0 0h26v26H0z"/></clipPath></defs></svg>