<svg xmlns="http://www.w3.org/2000/svg" fill="none" viewBox="0 0 50 50"><path fill="#fff" d="M24.67 1.974c-12.511 0-22.693 10.182-22.693 22.693 0 12.515 10.182 22.692 22.692 22.692 12.516 0 22.693-10.177 22.693-22.692 0-12.51-10.177-22.693-22.693-22.693m12.536 23.39-7.89 7.891a.982.982 0 0 1-1.396 0 .98.98 0 0 1 0-1.39l6.208-6.214H12.83a.985.985 0 1 1 0-1.968h21.297l-6.209-6.214a.98.98 0 0 1 0-1.39.98.98 0 0 1 1.396 0l7.89 7.89a.9.9 0 0 1 .214.323c.1.24.1.51 0 .75a.9.9 0 0 1-.213.323" opacity=".6"/></svg>