<svg xmlns="http://www.w3.org/2000/svg" width="32" height="32" fill="none" viewBox="0 0 32 32"><g stroke="#000" stroke-linejoin="round" stroke-width="2" clip-path="url(#a)"><path stroke-linecap="round" d="M2.193 23.47c.353 3.294 3.001 5.942 6.293 6.309 2.444.272 4.954.506 7.513.506s5.07-.234 7.514-.506c3.292-.367 5.94-3.015 6.292-6.309.26-2.43.48-4.926.48-7.47 0-2.545-.22-5.04-.48-7.471-.352-3.293-3-5.942-6.292-6.309-2.444-.272-4.954-.506-7.514-.506-2.559 0-5.069.234-7.513.506-3.292.367-5.94 3.016-6.293 6.309-.26 2.43-.48 4.926-.48 7.47 0 2.545.22 5.04.48 7.471"/><path d="M18.885 12.048c-.4-1.69-1.034-3.124-1.992-4.44a1.087 1.087 0 0 0-1.783 0c-.96 1.315-1.595 2.75-1.996 4.44-1.628-.06-3.127.134-4.613.635-.723.244-1.017 1.127-.587 1.781.892 1.356 1.992 2.42 3.416 3.319a14.4 14.4 0 0 0-.831 4.723c-.008.813.726 1.394 1.47 1.153 1.481-.481 2.782-1.231 4.029-2.332 1.246 1.1 2.55 1.85 4.033 2.332.743.241 1.477-.34 1.469-1.153a14.4 14.4 0 0 0-.831-4.723c1.423-.898 2.524-1.963 3.416-3.319.43-.654.136-1.537-.587-1.78-1.486-.502-2.985-.696-4.613-.636Z"/></g><defs><clipPath id="a"><path fill="#fff" d="M0 0h32v32H0z"/></clipPath></defs></svg>