<svg width="32" height="32" viewBox="0 0 32 32" fill="none" xmlns="http://www.w3.org/2000/svg">
<path fill-rule="evenodd" clip-rule="evenodd" d="M4.57371 1.14307H27.4309C29.3243 1.14307 30.8594 2.67808 30.8594 4.57164V27.4288C30.8594 29.3223 29.3243 30.8573 27.4309 30.8573H4.57371C2.68016 30.8573 1.14514 29.3223 1.14514 27.4288V4.57164C1.14514 2.67808 2.68016 1.14307 4.57371 1.14307ZM8.00228 6.57164C7.2133 6.57164 6.57371 7.21123 6.57371 8.00021C6.57371 8.78919 7.2133 9.42878 8.00228 9.42878H12.5737C13.3627 9.42878 14.0023 8.78919 14.0023 8.00021C14.0023 7.21123 13.3627 6.57164 12.5737 6.57164H8.00228ZM8.00228 11.7145C7.2133 11.7145 6.57371 12.3541 6.57371 13.1431C6.57371 13.932 7.2133 14.5716 8.00228 14.5716H16.0023C16.7913 14.5716 17.4309 13.932 17.4309 13.1431C17.4309 12.3541 16.7913 11.7145 16.0023 11.7145H8.00228ZM24.8327 14.8377C25.4747 15.2963 25.6233 16.1885 25.1648 16.8305L19.4505 24.8306C19.2224 25.1499 18.8731 25.3613 18.4844 25.4153C18.0957 25.4692 17.702 25.3609 17.3956 25.1156L12.6797 21.3431L9.01243 25.0103C8.45454 25.5682 7.55003 25.5682 6.99214 25.0103C6.43424 24.4526 6.43424 23.5479 6.99214 22.9902L11.5636 18.4186C12.0783 17.9039 12.8977 17.8585 13.4661 18.3133L18.0024 21.9423L22.8398 15.1699C23.2983 14.5278 24.1906 14.3792 24.8327 14.8377Z" fill="#195A70"/>
</svg>
